<svg id="svg" version="1.1" xmlns="http://www.w3.org/2000/svg" xmlns:xlink="http://www.w3.org/1999/xlink" width="400" height="400" viewBox="0, 0, 400,400"><g id="svgg"><path id="path0" d="M105.200 199.973 L 105.200 395.600 143.957 395.600 C 178.930 395.600,182.738 395.538,182.957 394.967 C 183.091 394.619,183.200 360.800,183.200 319.812 L 183.200 245.290 222.300 245.085 C 245.682 244.962,263.088 244.707,265.600 244.450 C 267.910 244.214,272.050 243.819,274.800 243.573 C 277.550 243.327,282.140 242.701,285.000 242.183 C 287.860 241.665,290.830 241.128,291.600 240.990 C 339.520 232.426,377.687 197.316,386.597 153.600 C 386.754 152.830,387.046 151.480,387.246 150.600 C 389.360 141.301,390.353 121.679,389.201 111.964 C 387.217 95.219,384.013 83.718,377.790 71.000 C 365.675 46.240,348.134 30.027,319.800 17.399 C 315.087 15.299,302.404 11.010,298.800 10.298 C 298.250 10.190,295.730 9.632,293.200 9.059 C 287.476 7.763,280.686 6.622,275.200 6.034 C 272.890 5.787,269.380 5.384,267.400 5.138 C 264.908 4.830,239.400 4.639,184.500 4.519 L 105.200 4.346 105.200 199.973 M258.609 68.586 C 282.504 71.417,297.490 81.057,304.953 98.400 C 310.489 111.263,311.218 133.204,306.570 147.051 C 299.409 168.382,283.684 179.064,255.400 181.808 C 247.218 182.601,183.200 182.683,183.200 181.900 C 183.200 181.625,183.195 156.200,183.188 125.400 C 183.182 94.600,183.182 69.085,183.188 68.700 C 183.204 67.737,250.580 67.634,258.609 68.586 " stroke="none" fill="#040404" fill-rule="evenodd"></path><path id="path1" d="M0.000 200.000 L 0.000 400.000 200.000 400.000 L 400.000 400.000 400.000 200.000 L 400.000 0.000 200.000 0.000 L 0.000 0.000 0.000 200.000 M264.777 4.409 C 276.942 5.485,285.074 6.620,292.400 8.267 C 294.930 8.835,297.450 9.386,298.000 9.490 C 310.445 11.850,332.258 21.699,344.557 30.511 C 381.529 57.001,397.884 104.331,387.158 153.800 C 384.265 167.145,377.037 183.423,369.040 194.600 C 352.001 218.417,324.457 235.126,291.600 241.577 C 282.077 243.446,279.860 243.777,272.800 244.382 C 259.999 245.480,254.817 245.600,220.343 245.600 L 183.600 245.600 183.600 320.167 C 183.600 361.179,183.491 395.019,183.357 395.367 C 182.985 396.336,105.015 396.336,104.643 395.367 C 104.325 394.540,104.325 5.460,104.643 4.633 C 104.938 3.864,256.219 3.652,264.777 4.409 M183.600 124.958 L 183.600 181.600 218.623 181.600 C 239.488 181.600,254.810 181.440,256.523 181.205 C 258.106 180.987,260.840 180.616,262.600 180.380 C 294.475 176.099,311.439 153.503,308.845 118.779 C 306.791 91.286,292.935 75.734,265.600 70.242 C 258.283 68.772,256.753 68.714,220.100 68.514 L 183.600 68.315 183.600 124.958 " stroke="none" fill="#fbfbfb" fill-rule="evenodd"></path><path id="path2" d="M251.500 4.282 C 251.995 4.378,252.805 4.378,253.300 4.282 C 253.795 4.187,253.390 4.109,252.400 4.109 C 251.410 4.109,251.005 4.187,251.500 4.282 M390.101 125.400 C 390.105 126.280,390.187 126.593,390.283 126.095 C 390.379 125.598,390.375 124.878,390.275 124.495 C 390.175 124.113,390.096 124.520,390.101 125.400 " stroke="none" fill="#7c7c7c" fill-rule="evenodd"></path><path id="path3" d="M104.985 4.500 C 104.881 4.775,104.841 92.930,104.898 200.400 L 105.000 395.800 143.967 395.800 C 175.227 395.800,182.954 395.699,183.037 395.290 C 183.094 395.010,183.048 394.965,182.937 395.190 C 182.800 395.466,170.043 395.600,143.967 395.600 L 105.200 395.600 105.200 200.001 L 105.200 4.402 178.100 4.300 L 251.000 4.198 178.087 4.099 C 120.052 4.020,105.136 4.102,104.985 4.500 M254.316 4.697 C 255.699 4.775,257.859 4.774,259.116 4.695 C 260.372 4.616,259.240 4.552,256.600 4.553 C 253.960 4.553,252.932 4.618,254.316 4.697 M265.705 5.087 C 266.314 5.179,267.214 5.177,267.705 5.082 C 268.197 4.987,267.700 4.911,266.600 4.914 C 265.500 4.917,265.097 4.995,265.705 5.087 M269.505 5.483 C 270.002 5.579,270.722 5.575,271.105 5.475 C 271.487 5.375,271.080 5.296,270.200 5.301 C 269.320 5.305,269.007 5.387,269.505 5.483 M274.100 5.876 C 274.485 5.976,275.115 5.976,275.500 5.876 C 275.885 5.775,275.570 5.693,274.800 5.693 C 274.030 5.693,273.715 5.775,274.100 5.876 M281.400 6.800 C 283.092 7.231,284.544 7.231,283.200 6.800 C 282.650 6.624,281.750 6.483,281.200 6.487 C 280.302 6.494,280.322 6.526,281.400 6.800 M290.400 8.400 C 291.768 8.838,292.819 8.838,291.800 8.400 C 291.360 8.211,290.640 8.062,290.200 8.068 C 289.557 8.077,289.596 8.143,290.400 8.400 M293.233 8.944 C 293.325 9.023,293.940 9.208,294.600 9.356 C 295.476 9.552,295.638 9.515,295.200 9.218 C 294.660 8.853,292.832 8.598,293.233 8.944 M297.400 10.000 C 297.840 10.189,298.470 10.344,298.800 10.344 C 299.178 10.344,299.104 10.217,298.600 10.000 C 298.160 9.811,297.530 9.656,297.200 9.656 C 296.822 9.656,296.896 9.783,297.400 10.000 M329.200 21.779 C 329.200 21.889,329.740 22.259,330.400 22.600 C 331.060 22.941,331.600 23.131,331.600 23.021 C 331.600 22.911,331.060 22.541,330.400 22.200 C 329.740 21.859,329.200 21.669,329.200 21.779 M338.800 27.297 C 338.910 27.419,340.260 28.345,341.800 29.356 C 343.340 30.367,344.020 30.691,343.310 30.076 C 342.202 29.116,338.238 26.673,338.800 27.297 M346.000 32.125 C 346.000 32.224,346.661 32.809,347.468 33.425 C 348.276 34.041,348.811 34.341,348.656 34.091 C 348.340 33.579,346.000 31.847,346.000 32.125 M352.971 37.897 C 353.615 38.609,354.230 39.104,354.338 38.996 C 354.445 38.888,354.458 38.755,354.367 38.700 C 354.275 38.645,353.660 38.151,353.000 37.601 L 351.800 36.603 352.971 37.897 M362.989 48.100 C 364.283 49.585,365.417 50.800,365.508 50.800 C 365.773 50.800,362.583 47.081,361.562 46.200 C 361.053 45.760,361.695 46.615,362.989 48.100 M366.575 52.532 C 367.191 53.339,367.776 54.000,367.875 54.000 C 368.153 54.000,366.421 51.660,365.909 51.344 C 365.659 51.189,365.959 51.724,366.575 52.532 M368.975 55.732 C 369.591 56.539,370.176 57.200,370.275 57.200 C 370.553 57.200,368.821 54.860,368.309 54.544 C 368.059 54.389,368.359 54.924,368.975 55.732 M370.760 58.200 C 371.434 59.505,371.988 60.228,371.985 59.800 C 371.983 59.580,371.614 58.950,371.164 58.400 C 370.621 57.736,370.485 57.669,370.760 58.200 M375.000 65.600 C 375.341 66.260,375.711 66.800,375.821 66.800 C 375.931 66.800,375.741 66.260,375.400 65.600 C 375.059 64.940,374.689 64.400,374.579 64.400 C 374.469 64.400,374.659 64.940,375.000 65.600 M249.233 68.145 C 249.325 68.224,251.470 68.383,254.000 68.498 C 256.957 68.632,257.885 68.593,256.600 68.388 C 254.572 68.066,248.928 67.879,249.233 68.145 M261.800 69.181 C 262.568 69.529,264.710 69.756,264.367 69.453 C 264.275 69.372,263.480 69.196,262.600 69.062 C 261.485 68.893,261.242 68.929,261.800 69.181 M182.909 70.800 C 182.909 71.790,182.987 72.195,183.082 71.700 C 183.178 71.205,183.178 70.395,183.082 69.900 C 182.987 69.405,182.909 69.810,182.909 70.800 M284.400 76.179 C 284.400 76.289,284.940 76.659,285.600 77.000 C 286.260 77.341,286.800 77.531,286.800 77.421 C 286.800 77.311,286.260 76.941,285.600 76.600 C 284.940 76.259,284.400 76.069,284.400 76.179 M287.200 77.724 C 287.200 77.817,287.965 78.398,288.900 79.015 C 289.835 79.632,290.389 79.880,290.131 79.568 C 289.634 78.967,287.200 77.436,287.200 77.724 M295.214 84.210 C 296.636 85.756,297.882 86.964,297.981 86.895 C 298.081 86.827,296.918 85.562,295.396 84.085 L 292.628 81.400 295.214 84.210 M302.403 93.690 C 302.401 93.850,302.759 94.570,303.199 95.290 C 303.638 96.011,303.996 96.420,303.996 96.200 C 303.995 95.980,303.637 95.260,303.200 94.600 C 302.763 93.940,302.404 93.531,302.403 93.690 M386.468 95.200 C 386.488 96.239,387.118 97.946,387.132 97.000 C 387.138 96.560,386.989 95.840,386.800 95.400 C 386.589 94.910,386.461 94.832,386.468 95.200 M307.268 106.200 C 307.262 106.640,307.411 107.360,307.600 107.800 C 308.038 108.819,308.038 107.768,307.600 106.400 C 307.343 105.596,307.277 105.557,307.268 106.200 M389.074 111.000 C 389.198 112.540,389.366 113.875,389.449 113.967 C 389.727 114.274,389.558 111.417,389.202 109.800 C 388.931 108.570,388.902 108.848,389.074 111.000 M308.056 110.000 C 308.056 110.330,308.211 110.960,308.400 111.400 C 308.617 111.904,308.744 111.978,308.744 111.600 C 308.744 111.270,308.589 110.640,308.400 110.200 C 308.183 109.696,308.056 109.622,308.056 110.000 M309.081 117.200 C 309.204 118.850,309.371 120.275,309.452 120.367 C 309.731 120.681,309.554 117.401,309.206 115.800 C 308.948 114.614,308.916 114.976,309.081 117.200 M389.769 125.200 C 389.769 129.710,389.827 131.555,389.898 129.300 C 389.970 127.045,389.970 123.355,389.898 121.100 C 389.827 118.845,389.769 120.690,389.769 125.200 M309.040 133.040 C 308.890 134.503,308.849 135.782,308.948 135.882 C 309.048 135.981,309.257 134.871,309.413 133.413 C 309.569 131.956,309.611 130.677,309.505 130.572 C 309.399 130.466,309.190 131.577,309.040 133.040 M389.040 138.640 C 388.890 140.103,388.849 141.382,388.948 141.482 C 389.048 141.581,389.257 140.471,389.413 139.013 C 389.569 137.556,389.611 136.277,389.505 136.172 C 389.399 136.066,389.190 137.177,389.040 138.640 M307.429 143.029 C 307.281 143.615,307.238 144.172,307.332 144.266 C 307.427 144.360,307.624 143.958,307.771 143.371 C 307.919 142.785,307.962 142.228,307.868 142.134 C 307.773 142.040,307.576 142.442,307.429 143.029 M388.240 144.840 C 388.093 145.757,388.052 146.585,388.147 146.680 C 388.242 146.776,388.446 146.110,388.600 145.200 C 388.754 144.290,388.796 143.462,388.693 143.360 C 388.590 143.257,388.387 143.923,388.240 144.840 M387.429 149.429 C 387.281 150.015,387.238 150.572,387.332 150.666 C 387.427 150.760,387.624 150.358,387.771 149.771 C 387.919 149.185,387.962 148.628,387.868 148.534 C 387.773 148.440,387.576 148.842,387.429 149.429 M386.629 153.029 C 386.481 153.615,386.438 154.172,386.532 154.266 C 386.627 154.360,386.824 153.958,386.971 153.371 C 387.119 152.785,387.162 152.228,387.068 152.134 C 386.973 152.040,386.776 152.442,386.629 153.029 M301.400 157.600 C 301.059 158.260,300.869 158.800,300.979 158.800 C 301.089 158.800,301.459 158.260,301.800 157.600 C 302.141 156.940,302.331 156.400,302.221 156.400 C 302.111 156.400,301.741 156.940,301.400 157.600 M296.975 163.700 L 295.800 165.000 297.100 163.825 C 297.815 163.179,298.400 162.594,298.400 162.525 C 298.400 162.216,298.070 162.488,296.975 163.700 M295.394 165.610 C 295.254 165.836,294.064 166.916,292.749 168.010 C 291.434 169.105,290.507 170.000,290.688 170.000 C 291.097 170.000,296.305 165.245,295.924 165.219 C 295.772 165.208,295.533 165.385,295.394 165.610 M377.400 179.200 C 377.059 179.860,376.869 180.400,376.979 180.400 C 377.089 180.400,377.459 179.860,377.800 179.200 C 378.141 178.540,378.331 178.000,378.221 178.000 C 378.111 178.000,377.741 178.540,377.400 179.200 M268.800 179.618 C 268.362 179.915,268.524 179.952,269.400 179.756 C 270.871 179.427,271.190 179.198,270.167 179.206 C 269.745 179.209,269.130 179.395,268.800 179.618 M264.800 180.400 C 264.008 180.654,263.967 180.720,264.600 180.720 C 265.040 180.720,265.850 180.576,266.400 180.400 C 267.192 180.146,267.233 180.080,266.600 180.080 C 266.160 180.080,265.350 180.224,264.800 180.400 M259.200 181.200 C 257.850 181.484,257.843 181.495,259.000 181.500 C 259.660 181.503,260.740 181.368,261.400 181.200 C 263.060 180.778,261.207 180.778,259.200 181.200 M183.200 182.100 C 183.200 182.265,198.545 182.358,217.300 182.306 C 236.055 182.254,245.910 182.165,239.200 182.107 C 207.298 181.831,183.200 181.828,183.200 182.100 M252.905 181.887 C 253.514 181.979,254.414 181.977,254.905 181.882 C 255.397 181.787,254.900 181.711,253.800 181.714 C 252.700 181.717,252.297 181.795,252.905 181.887 M374.253 185.300 L 373.533 186.600 374.358 185.600 C 375.089 184.713,375.414 184.000,375.086 184.000 C 375.024 184.000,374.649 184.585,374.253 185.300 M372.600 188.000 C 372.259 188.660,372.069 189.200,372.179 189.200 C 372.289 189.200,372.659 188.660,373.000 188.000 C 373.341 187.340,373.531 186.800,373.421 186.800 C 373.311 186.800,372.941 187.340,372.600 188.000 M366.848 196.583 C 365.942 197.783,365.200 198.888,365.200 199.037 C 365.200 199.186,365.527 198.879,365.927 198.354 C 368.145 195.441,368.874 194.400,368.696 194.400 C 368.586 194.400,367.754 195.382,366.848 196.583 M361.300 203.175 C 359.485 205.134,358.000 206.824,358.000 206.930 C 358.000 207.036,359.126 205.925,360.502 204.461 C 363.692 201.068,364.984 199.598,364.770 199.606 C 364.676 199.609,363.115 201.215,361.300 203.175 M353.978 210.700 L 352.600 212.200 354.196 210.800 C 355.073 210.030,355.868 209.355,355.962 209.300 C 356.056 209.245,355.959 209.200,355.745 209.200 C 355.532 209.200,354.737 209.875,353.978 210.700 M350.975 213.300 L 349.800 214.600 351.100 213.425 C 351.815 212.779,352.400 212.194,352.400 212.125 C 352.400 211.816,352.070 212.088,350.975 213.300 M340.831 220.833 C 338.319 222.575,336.397 224.000,336.561 224.000 C 336.955 224.000,345.137 218.425,345.424 217.961 C 345.759 217.419,345.742 217.430,340.831 220.833 M333.500 225.429 C 332.005 226.240,332.096 226.578,333.600 225.800 C 334.260 225.459,334.800 225.094,334.800 224.990 C 334.800 224.732,334.757 224.747,333.500 225.429 M330.600 227.200 C 329.940 227.637,329.580 227.992,329.800 227.988 C 330.201 227.982,332.376 226.423,332.000 226.412 C 331.890 226.408,331.260 226.763,330.600 227.200 M301.000 238.800 C 300.496 239.017,300.422 239.144,300.800 239.144 C 301.130 239.144,301.760 238.989,302.200 238.800 C 302.704 238.583,302.778 238.456,302.400 238.456 C 302.070 238.456,301.440 238.611,301.000 238.800 M297.800 239.600 C 297.296 239.817,297.222 239.944,297.600 239.944 C 297.930 239.944,298.560 239.789,299.000 239.600 C 299.504 239.383,299.578 239.256,299.200 239.256 C 298.870 239.256,298.240 239.411,297.800 239.600 M294.600 240.400 C 294.096 240.617,294.022 240.744,294.400 240.744 C 294.730 240.744,295.360 240.589,295.800 240.400 C 296.304 240.183,296.378 240.056,296.000 240.056 C 295.670 240.056,295.040 240.211,294.600 240.400 M290.400 241.200 C 289.608 241.454,289.567 241.520,290.200 241.520 C 290.640 241.520,291.450 241.376,292.000 241.200 C 292.792 240.946,292.833 240.880,292.200 240.880 C 291.760 240.880,290.950 241.024,290.400 241.200 M281.800 242.800 C 280.711 243.077,280.693 243.107,281.600 243.125 C 282.150 243.135,282.960 242.989,283.400 242.800 C 284.386 242.376,283.466 242.376,281.800 242.800 M273.905 243.883 C 274.402 243.979,275.122 243.975,275.505 243.875 C 275.887 243.775,275.480 243.696,274.600 243.701 C 273.720 243.705,273.407 243.787,273.905 243.883 M267.900 244.282 C 268.395 244.378,269.205 244.378,269.700 244.282 C 270.195 244.187,269.790 244.109,268.800 244.109 C 267.810 244.109,267.405 244.187,267.900 244.282 M263.700 244.687 C 264.305 244.778,265.295 244.778,265.900 244.687 C 266.505 244.595,266.010 244.520,264.800 244.520 C 263.590 244.520,263.095 244.595,263.700 244.687 M252.100 245.094 C 253.145 245.176,254.855 245.176,255.900 245.094 C 256.945 245.012,256.090 244.944,254.000 244.944 C 251.910 244.944,251.055 245.012,252.100 245.094 M199.930 245.500 C 209.241 245.560,224.361 245.560,233.530 245.500 C 242.698 245.440,235.080 245.391,216.600 245.391 C 198.120 245.391,190.618 245.440,199.930 245.500 " stroke="none" fill="#747474" fill-rule="evenodd"></path><path id="path4" d="M254.033 4.144 C 254.125 4.224,256.900 4.379,260.200 4.489 C 263.731 4.606,265.212 4.564,263.800 4.388 C 261.322 4.077,253.738 3.888,254.033 4.144 M104.598 200.000 C 104.598 307.470,104.644 351.435,104.700 297.700 C 104.756 243.965,104.756 156.035,104.700 102.300 C 104.644 48.565,104.598 92.530,104.598 200.000 M270.800 5.220 C 273.214 5.650,275.106 5.613,273.000 5.177 C 272.120 4.995,270.860 4.858,270.200 4.873 C 269.300 4.893,269.450 4.980,270.800 5.220 M277.800 6.000 C 278.460 6.168,279.540 6.306,280.200 6.307 C 281.209 6.308,281.145 6.255,279.800 5.977 C 277.774 5.558,276.137 5.577,277.800 6.000 M283.400 6.781 C 284.168 7.129,286.310 7.356,285.967 7.053 C 285.875 6.972,285.080 6.796,284.200 6.662 C 283.085 6.493,282.842 6.529,283.400 6.781 M288.000 7.600 C 288.550 7.776,289.360 7.920,289.800 7.920 C 290.433 7.920,290.392 7.854,289.600 7.600 C 289.050 7.424,288.240 7.280,287.800 7.280 C 287.167 7.280,287.208 7.346,288.000 7.600 M291.800 8.400 C 292.240 8.589,292.960 8.738,293.400 8.732 C 294.043 8.723,294.004 8.657,293.200 8.400 C 291.832 7.962,290.781 7.962,291.800 8.400 M295.400 9.200 C 295.840 9.389,296.470 9.544,296.800 9.544 C 297.178 9.544,297.104 9.417,296.600 9.200 C 296.160 9.011,295.530 8.856,295.200 8.856 C 294.822 8.856,294.896 8.983,295.400 9.200 M299.000 10.000 C 299.440 10.189,300.070 10.344,300.400 10.344 C 300.778 10.344,300.704 10.217,300.200 10.000 C 299.760 9.811,299.130 9.656,298.800 9.656 C 298.422 9.656,298.496 9.783,299.000 10.000 M328.400 20.979 C 328.400 21.089,328.940 21.459,329.600 21.800 C 330.260 22.141,330.800 22.331,330.800 22.221 C 330.800 22.111,330.260 21.741,329.600 21.400 C 328.940 21.059,328.400 20.869,328.400 20.979 M336.200 25.396 C 337.094 26.139,339.628 27.509,339.000 26.910 C 338.780 26.700,337.880 26.124,337.000 25.630 C 336.120 25.135,335.760 25.030,336.200 25.396 M344.579 30.766 C 344.880 31.252,348.400 33.732,348.400 33.457 C 348.400 33.357,347.481 32.615,346.358 31.808 C 345.235 31.001,344.435 30.532,344.579 30.766 M348.833 34.100 C 348.925 34.155,349.540 34.650,350.200 35.200 L 351.400 36.200 350.430 35.100 C 349.897 34.495,349.282 34.000,349.064 34.000 C 348.845 34.000,348.742 34.045,348.833 34.100 M351.600 36.125 C 351.600 36.194,352.185 36.779,352.900 37.425 L 354.200 38.600 353.025 37.300 C 351.930 36.088,351.600 35.816,351.600 36.125 M354.400 38.469 C 354.400 38.778,361.309 45.625,361.464 45.469 C 361.525 45.408,359.961 43.752,357.987 41.788 C 356.014 39.824,354.400 38.330,354.400 38.469 M363.789 48.500 C 365.083 49.985,366.217 51.200,366.308 51.200 C 366.573 51.200,363.383 47.481,362.362 46.600 C 361.853 46.160,362.495 47.015,363.789 48.500 M367.191 52.788 C 367.657 53.441,368.242 54.102,368.491 54.256 C 368.741 54.411,368.441 53.876,367.825 53.068 C 366.488 51.315,365.984 51.092,367.191 52.788 M369.785 56.300 C 370.402 57.235,370.983 58.000,371.076 58.000 C 371.364 58.000,369.833 55.566,369.232 55.069 C 368.920 54.811,369.168 55.365,369.785 56.300 M372.524 60.600 C 372.862 61.260,373.438 62.160,373.804 62.600 C 374.170 63.040,374.065 62.680,373.570 61.800 C 372.480 59.858,371.664 58.922,372.524 60.600 M375.000 64.800 C 375.341 65.460,375.711 66.000,375.821 66.000 C 375.931 66.000,375.741 65.460,375.400 64.800 C 375.059 64.140,374.689 63.600,374.579 63.600 C 374.469 63.600,374.659 64.140,375.000 64.800 M183.385 68.500 C 183.280 68.775,183.241 94.380,183.297 125.400 L 183.400 181.800 216.600 181.803 L 249.800 181.807 216.700 181.701 L 183.600 181.595 183.600 124.963 L 183.600 68.330 219.100 68.465 C 238.625 68.539,252.710 68.487,250.400 68.349 C 241.745 67.832,183.589 67.963,183.385 68.500 M376.803 68.090 C 376.801 68.250,377.159 68.970,377.599 69.690 C 378.038 70.411,378.396 70.820,378.396 70.600 C 378.395 70.380,378.037 69.660,377.600 69.000 C 377.163 68.340,376.804 67.931,376.803 68.090 M257.633 68.944 C 257.725 69.024,258.880 69.189,260.200 69.312 C 261.691 69.451,262.221 69.411,261.600 69.207 C 260.612 68.884,257.311 68.665,257.633 68.944 M264.400 70.000 C 264.950 70.176,265.760 70.320,266.200 70.320 C 266.833 70.320,266.792 70.254,266.000 70.000 C 265.450 69.824,264.640 69.680,264.200 69.680 C 263.567 69.680,263.608 69.746,264.400 70.000 M267.633 70.544 C 267.725 70.623,268.340 70.808,269.000 70.956 C 269.876 71.152,270.038 71.115,269.600 70.818 C 269.060 70.453,267.232 70.198,267.633 70.544 M271.400 71.600 C 271.840 71.789,272.470 71.944,272.800 71.944 C 273.178 71.944,273.104 71.817,272.600 71.600 C 272.160 71.411,271.530 71.256,271.200 71.256 C 270.822 71.256,270.896 71.383,271.400 71.600 M285.400 77.090 C 285.620 77.300,286.520 77.876,287.400 78.370 C 288.280 78.865,288.640 78.970,288.200 78.604 C 287.306 77.861,284.772 76.491,285.400 77.090 M290.595 80.475 C 291.472 81.204,293.376 82.880,294.825 84.200 L 297.460 86.600 294.630 83.794 C 293.074 82.251,291.170 80.574,290.400 80.069 C 289.110 79.222,289.125 79.254,290.595 80.475 M298.575 88.532 C 299.191 89.339,299.776 90.000,299.875 90.000 C 300.153 90.000,298.421 87.660,297.909 87.344 C 297.659 87.189,297.959 87.724,298.575 88.532 M301.400 92.800 C 301.741 93.460,302.111 94.000,302.221 94.000 C 302.331 94.000,302.141 93.460,301.800 92.800 C 301.459 92.140,301.089 91.600,300.979 91.600 C 300.869 91.600,301.059 92.140,301.400 92.800 M386.468 93.800 C 386.462 94.240,386.611 94.960,386.800 95.400 C 387.238 96.419,387.238 95.368,386.800 94.000 C 386.543 93.196,386.477 93.157,386.468 93.800 M387.268 97.400 C 387.262 97.840,387.411 98.560,387.600 99.000 C 388.038 100.019,388.038 98.968,387.600 97.600 C 387.343 96.796,387.277 96.757,387.268 97.400 M388.870 106.600 C 388.857 107.040,388.995 108.120,389.177 109.000 C 389.455 110.345,389.508 110.409,389.507 109.400 C 389.505 107.999,388.908 105.370,388.870 106.600 M307.268 107.600 C 307.288 108.639,307.918 110.346,307.932 109.400 C 307.938 108.960,307.789 108.240,307.600 107.800 C 307.389 107.310,307.261 107.232,307.268 107.600 M308.282 113.000 C 308.409 114.100,308.577 115.075,308.656 115.167 C 308.955 115.514,308.728 112.564,308.397 111.800 C 308.174 111.285,308.133 111.713,308.282 113.000 M389.911 118.200 C 390.021 121.280,390.176 123.875,390.256 123.967 C 390.516 124.268,390.328 117.049,390.016 114.800 C 389.834 113.489,389.792 114.863,389.911 118.200 M308.924 119.400 C 308.926 120.720,309.001 121.212,309.090 120.493 C 309.179 119.774,309.177 118.694,309.086 118.093 C 308.995 117.492,308.922 118.080,308.924 119.400 M309.279 124.440 C 309.236 125.891,309.118 128.501,309.018 130.240 L 308.837 133.400 309.226 130.400 C 309.440 128.750,309.557 126.140,309.487 124.600 L 309.359 121.800 309.279 124.440 M390.076 129.200 C 390.031 130.630,389.913 133.060,389.814 134.600 L 389.634 137.400 390.030 134.600 C 390.247 133.060,390.365 130.630,390.291 129.200 L 390.157 126.600 390.076 129.200 M308.255 137.055 C 308.113 138.086,308.074 139.008,308.169 139.102 C 308.263 139.196,308.465 138.439,308.618 137.418 C 308.771 136.398,308.810 135.476,308.704 135.371 C 308.598 135.265,308.396 136.023,308.255 137.055 M389.033 141.633 C 388.883 142.766,388.841 143.774,388.939 143.872 C 389.037 143.971,389.245 143.128,389.400 142.000 C 389.555 140.872,389.598 139.864,389.494 139.761 C 389.391 139.658,389.184 140.500,389.033 141.633 M307.429 141.429 C 307.281 142.015,307.238 142.572,307.332 142.666 C 307.427 142.760,307.624 142.358,307.771 141.771 C 307.919 141.185,307.962 140.628,307.868 140.534 C 307.773 140.440,307.576 140.842,307.429 141.429 M388.240 146.840 C 388.093 147.757,388.052 148.585,388.147 148.680 C 388.242 148.776,388.446 148.110,388.600 147.200 C 388.754 146.290,388.796 145.462,388.693 145.360 C 388.590 145.257,388.387 145.923,388.240 146.840 M387.429 151.029 C 387.281 151.615,387.238 152.172,387.332 152.266 C 387.427 152.360,387.624 151.958,387.771 151.371 C 387.919 150.785,387.962 150.228,387.868 150.134 C 387.773 150.040,387.576 150.442,387.429 151.029 M386.629 154.629 C 386.481 155.215,386.438 155.772,386.532 155.866 C 386.627 155.960,386.824 155.558,386.971 154.971 C 387.119 154.385,387.162 153.828,387.068 153.734 C 386.973 153.640,386.776 154.042,386.629 154.629 M302.200 155.600 C 301.859 156.260,301.669 156.800,301.779 156.800 C 301.889 156.800,302.259 156.260,302.600 155.600 C 302.941 154.940,303.131 154.400,303.021 154.400 C 302.911 154.400,302.541 154.940,302.200 155.600 M300.252 158.865 C 299.653 159.780,299.453 160.288,299.808 159.994 C 300.412 159.492,301.785 157.200,301.481 157.200 C 301.405 157.200,300.852 157.949,300.252 158.865 M297.027 163.105 C 295.846 164.478,295.580 164.918,296.363 164.200 C 297.550 163.113,299.439 160.793,299.127 160.805 C 299.057 160.808,298.112 161.843,297.027 163.105 M292.800 167.643 L 290.600 169.677 292.699 168.002 C 294.556 166.520,295.496 165.591,295.124 165.604 C 295.056 165.607,294.010 166.524,292.800 167.643 M280.800 175.200 C 280.030 175.622,279.580 175.966,279.800 175.966 C 280.020 175.966,280.830 175.622,281.600 175.200 C 282.370 174.778,282.820 174.434,282.600 174.434 C 282.380 174.434,281.570 174.778,280.800 175.200 M378.278 178.205 C 377.912 178.972,377.695 179.600,377.796 179.600 C 378.070 179.600,379.284 177.151,379.101 176.968 C 379.014 176.881,378.644 177.438,378.278 178.205 M270.600 178.800 C 270.096 179.017,270.022 179.144,270.400 179.144 C 270.730 179.144,271.360 178.989,271.800 178.800 C 272.304 178.583,272.378 178.456,272.000 178.456 C 271.670 178.456,271.040 178.611,270.600 178.800 M267.400 179.600 C 266.896 179.817,266.822 179.944,267.200 179.944 C 267.530 179.944,268.160 179.789,268.600 179.600 C 269.104 179.383,269.178 179.256,268.800 179.256 C 268.470 179.256,267.840 179.411,267.400 179.600 M262.600 180.400 C 261.522 180.674,261.502 180.706,262.400 180.713 C 262.950 180.717,263.850 180.576,264.400 180.400 C 265.744 179.969,264.292 179.969,262.600 180.400 M256.200 181.200 C 254.839 181.444,254.779 181.492,255.800 181.520 C 256.460 181.539,257.720 181.405,258.600 181.223 C 260.693 180.790,258.602 180.770,256.200 181.200 M374.214 185.835 C 373.841 186.404,373.605 186.938,373.689 187.022 C 373.773 187.107,374.158 186.641,374.544 185.988 C 375.406 184.528,375.148 184.409,374.214 185.835 M371.814 189.835 C 371.441 190.404,371.205 190.938,371.289 191.022 C 371.373 191.107,371.758 190.641,372.144 189.988 C 373.006 188.528,372.748 188.409,371.814 189.835 M368.892 194.229 C 368.397 194.983,368.072 195.600,368.169 195.600 C 368.447 195.600,370.104 193.171,369.939 193.006 C 369.857 192.924,369.386 193.474,368.892 194.229 M364.368 200.300 C 362.230 202.695,361.421 203.717,361.864 203.463 C 362.119 203.317,363.081 202.298,364.001 201.199 C 365.768 199.088,366.037 198.430,364.368 200.300 M357.285 207.882 C 355.460 209.853,355.900 209.946,357.807 207.993 C 358.663 207.117,359.191 206.414,358.981 206.431 C 358.772 206.447,358.008 207.100,357.285 207.882 M352.400 212.471 C 349.863 214.869,349.770 214.997,351.800 213.298 C 354.050 211.415,355.928 209.578,355.562 209.617 C 355.473 209.627,354.050 210.911,352.400 212.471 M347.200 216.646 C 346.210 217.419,345.130 218.338,344.800 218.688 C 344.470 219.038,345.325 218.476,346.700 217.439 C 348.075 216.402,349.200 215.474,349.200 215.377 C 349.200 215.099,349.106 215.159,347.200 216.646 M331.200 227.236 C 330.536 227.779,330.469 227.915,331.000 227.640 C 332.305 226.966,333.028 226.412,332.600 226.415 C 332.380 226.417,331.750 226.786,331.200 227.236 M328.400 228.800 C 327.630 229.222,327.144 229.574,327.320 229.583 C 327.744 229.605,330.000 228.432,330.000 228.190 C 330.000 227.928,329.977 227.937,328.400 228.800 M299.200 239.618 C 298.762 239.915,298.924 239.952,299.800 239.756 C 301.271 239.427,301.590 239.198,300.567 239.206 C 300.145 239.209,299.530 239.395,299.200 239.618 M296.000 240.418 C 295.562 240.715,295.724 240.752,296.600 240.556 C 298.071 240.227,298.390 239.998,297.367 240.006 C 296.945 240.009,296.330 240.195,296.000 240.418 M292.200 241.200 C 291.181 241.638,292.232 241.638,293.600 241.200 C 294.404 240.943,294.443 240.877,293.800 240.868 C 293.360 240.862,292.640 241.011,292.200 241.200 M288.000 242.000 C 287.208 242.254,287.167 242.320,287.800 242.320 C 288.240 242.320,289.050 242.176,289.600 242.000 C 290.392 241.746,290.433 241.680,289.800 241.680 C 289.360 241.680,288.550 241.824,288.000 242.000 M283.600 242.800 C 282.808 243.054,282.767 243.120,283.400 243.120 C 283.840 243.120,284.650 242.976,285.200 242.800 C 285.992 242.546,286.033 242.480,285.400 242.480 C 284.960 242.480,284.150 242.624,283.600 242.800 M277.800 243.600 C 276.439 243.844,276.379 243.892,277.400 243.920 C 278.060 243.939,279.320 243.805,280.200 243.623 C 282.293 243.190,280.202 243.170,277.800 243.600 M269.400 244.400 C 267.491 244.662,267.472 244.676,269.000 244.702 C 269.880 244.717,271.500 244.590,272.600 244.418 C 275.299 243.998,272.450 243.982,269.400 244.400 M255.400 245.200 L 251.400 245.445 255.000 245.470 C 256.980 245.484,259.950 245.368,261.600 245.212 L 264.600 244.929 262.000 244.942 C 260.570 244.949,257.600 245.065,255.400 245.200 M183.396 320.400 C 183.396 361.650,183.443 378.525,183.500 357.900 C 183.557 337.275,183.557 303.525,183.500 282.900 C 183.443 262.275,183.396 279.150,183.396 320.400 " stroke="none" fill="#8c8c8c" fill-rule="evenodd"></path></g></svg>