<svg id="svg" version="1.1" xmlns="http://www.w3.org/2000/svg" xmlns:xlink="http://www.w3.org/1999/xlink" width="400" height="282.8138913624221" viewBox="0, 0, 400,282.8138913624221"><g id="svgg"><path id="path0" d="M146.170 104.443 C 146.087 104.645,145.575 105.891,145.033 107.214 C 144.490 108.536,142.620 113.055,140.876 117.256 C 139.132 121.457,137.166 126.231,136.506 127.864 C 135.846 129.498,134.847 131.917,134.286 133.239 C 133.725 134.562,131.978 138.762,130.403 142.574 C 126.084 153.028,124.211 155.687,120.651 156.423 C 120.060 156.545,119.775 156.788,119.712 157.224 L 119.621 157.850 127.986 157.850 C 136.058 157.850,136.351 157.831,136.351 157.305 C 136.351 156.850,136.080 156.730,134.724 156.581 C 129.545 156.013,128.492 153.918,130.708 148.587 C 131.339 147.069,132.112 145.159,132.426 144.342 L 132.997 142.857 141.570 142.857 C 150.698 142.857,150.502 142.827,150.907 144.272 C 151.016 144.661,151.275 145.361,151.482 145.827 C 155.594 155.095,155.282 156.212,148.444 156.703 C 148.327 156.712,148.232 156.973,148.232 157.284 C 148.232 157.841,148.421 157.850,160.396 157.850 C 172.333 157.850,172.560 157.840,172.560 157.290 C 172.560 156.908,172.312 156.675,171.782 156.559 C 168.443 155.831,167.070 153.739,162.505 142.433 C 161.311 139.477,160.043 136.358,159.687 135.502 C 158.849 133.488,156.839 128.583,155.166 124.470 C 154.439 122.680,153.673 120.835,153.465 120.368 C 153.256 119.901,152.261 117.482,151.253 114.993 C 146.595 103.493,146.578 103.457,146.170 104.443 M13.191 105.149 C 12.675 105.666,13.221 105.988,15.129 106.291 C 17.671 106.696,18.691 107.183,19.568 108.412 L 20.226 109.335 20.302 131.065 C 20.395 157.537,20.724 155.858,15.320 156.464 C 13.002 156.724,12.868 156.782,13.110 157.414 C 13.404 158.179,39.604 158.064,39.604 157.297 C 39.604 156.728,39.515 156.699,36.522 156.299 C 32.997 155.828,32.752 154.964,32.781 143.140 L 32.805 133.663 39.387 133.495 C 53.744 133.127,60.679 128.483,60.679 119.236 C 60.679 111.598,54.484 106.281,44.376 105.243 C 41.265 104.923,13.501 104.840,13.191 105.149 M64.686 105.139 C 64.144 105.681,64.628 106.015,66.193 106.179 C 69.104 106.483,70.718 107.395,71.452 109.152 C 72.115 110.739,72.011 152.124,71.340 153.875 C 70.711 155.515,69.609 156.150,66.854 156.459 C 64.486 156.724,64.353 156.780,64.595 157.414 C 64.806 157.963,91.474 158.089,91.812 157.543 C 92.174 156.956,91.393 156.636,89.105 156.435 C 84.302 156.013,84.158 155.630,84.158 143.281 L 84.158 133.663 85.400 133.663 L 86.641 133.663 89.956 139.038 C 91.779 141.994,94.898 147.086,96.886 150.354 C 98.875 153.621,100.748 156.644,101.048 157.072 L 101.594 157.850 109.233 157.850 C 116.832 157.850,116.871 157.847,116.781 157.256 C 116.720 156.856,116.334 156.540,115.594 156.287 C 113.122 155.442,110.507 151.731,99.785 133.855 C 99.126 132.757,99.229 132.618,101.166 131.990 C 112.340 128.367,114.116 113.941,104.112 108.060 C 101.265 106.386,98.351 105.539,94.378 105.230 C 90.492 104.928,64.976 104.850,64.686 105.139 M175.568 105.148 C 175.208 105.508,175.402 106.082,175.884 106.084 C 178.681 106.093,180.588 108.263,182.593 113.720 C 182.793 114.264,183.938 117.129,185.138 120.085 C 186.337 123.041,187.554 126.096,187.841 126.874 C 188.128 127.652,188.765 129.243,189.255 130.410 C 189.745 131.577,190.439 133.296,190.796 134.229 C 191.797 136.845,193.769 141.770,194.194 142.716 C 194.403 143.182,195.035 144.774,195.598 146.252 C 196.161 147.730,196.869 149.512,197.172 150.212 C 197.475 150.912,198.362 153.069,199.143 155.004 C 201.144 159.960,201.358 160.002,203.064 155.785 C 203.705 154.198,204.884 151.308,205.682 149.364 C 206.481 147.419,207.679 144.491,208.346 142.857 C 209.012 141.223,210.286 138.105,211.177 135.926 C 212.069 133.748,213.083 131.266,213.431 130.410 C 221.896 109.605,223.347 107.060,227.234 106.207 C 227.781 106.086,228.008 105.881,227.947 105.561 C 227.810 104.854,212.644 104.842,212.508 105.549 C 212.440 105.903,212.749 106.049,213.892 106.201 C 216.956 106.607,218.260 107.879,218.215 110.419 C 218.183 112.276,218.045 112.645,210.891 130.127 C 209.395 133.784,207.840 137.603,207.435 138.614 C 206.600 140.703,206.227 141.282,205.922 140.960 C 205.805 140.836,203.069 134.116,199.841 126.025 C 192.367 107.292,192.294 106.748,197.157 106.172 C 198.287 106.039,198.592 105.899,198.524 105.546 C 198.434 105.079,176.026 104.691,175.568 105.148 M231.188 105.138 C 230.296 105.498,230.918 106.014,232.461 106.194 C 239.083 106.967,238.796 105.765,238.695 132.317 L 238.614 153.465 237.973 154.496 C 237.124 155.861,235.860 156.415,233.109 156.627 C 231.147 156.778,230.835 156.874,230.835 157.326 C 230.835 157.832,231.634 157.850,253.743 157.850 L 276.651 157.850 276.779 157.214 C 277.149 155.367,277.538 152.814,277.932 149.646 C 278.328 146.467,278.679 144.248,279.088 142.341 C 279.440 140.700,278.014 141.800,277.210 143.789 C 274.082 151.525,269.839 154.603,261.669 155.060 C 250.530 155.683,250.778 155.980,250.778 142.008 L 250.778 132.249 252.900 132.249 C 258.148 132.249,261.001 135.096,262.191 141.519 C 262.715 144.353,263.398 145.175,263.753 143.401 C 263.995 142.190,263.927 119.139,263.679 118.246 C 263.277 116.800,262.705 117.461,262.211 119.943 C 260.801 127.026,258.039 129.764,252.567 129.505 L 250.778 129.420 250.704 118.845 C 250.651 111.275,250.721 108.160,250.951 107.883 C 251.332 107.424,260.767 107.328,263.366 107.756 C 269.285 108.733,272.254 111.950,274.287 119.590 C 274.339 119.784,274.576 119.943,274.814 119.943 C 275.192 119.943,275.248 118.990,275.248 112.447 L 275.248 104.950 253.395 104.973 C 241.376 104.985,231.383 105.059,231.188 105.138 M282.791 105.139 C 282.262 105.668,282.803 105.986,284.764 106.298 C 290.540 107.217,290.313 106.087,290.190 133.239 C 290.080 157.591,290.420 156.110,284.830 156.597 C 282.912 156.765,282.603 156.865,282.603 157.321 C 282.603 157.995,328.057 158.170,328.284 157.496 C 328.349 157.302,328.599 155.615,328.840 153.748 C 329.080 151.881,329.458 149.335,329.681 148.091 C 330.861 141.476,330.417 139.852,328.584 144.077 C 326.713 148.389,323.546 152.245,320.901 153.434 C 320.297 153.706,319.547 154.044,319.236 154.187 C 317.000 155.210,305.753 155.539,304.220 154.626 C 302.522 153.614,302.553 153.835,302.462 142.463 L 302.378 132.026 304.736 132.173 C 309.718 132.484,312.157 134.831,313.449 140.555 C 314.126 143.555,314.307 144.043,314.801 144.208 C 315.054 144.292,315.134 141.061,315.134 130.837 C 315.134 118.435,315.097 117.363,314.665 117.447 C 314.317 117.515,314.058 118.228,313.656 120.226 C 312.309 126.931,309.632 129.562,304.154 129.562 L 302.405 129.562 302.405 118.497 L 302.405 107.432 309.123 107.568 C 319.787 107.786,323.627 110.288,325.422 118.192 C 325.711 119.464,325.901 119.802,326.331 119.802 C 327.019 119.802,327.346 105.618,326.667 105.187 C 326.238 104.914,283.063 104.867,282.791 105.139 M333.993 105.139 C 333.553 105.579,333.867 106.051,334.724 106.235 C 336.266 106.568,337.969 107.744,339.603 109.605 L 341.160 111.378 341.160 131.602 C 341.160 145.946,341.066 152.105,340.838 152.787 C 340.204 154.686,337.881 156.410,335.926 156.433 C 334.515 156.450,333.805 156.746,333.805 157.317 C 333.805 157.950,351.678 158.171,352.066 157.543 C 352.408 156.990,351.758 156.706,349.603 156.464 C 346.912 156.162,345.549 155.512,344.600 154.079 L 343.847 152.941 343.767 133.755 C 343.722 123.072,343.796 114.569,343.932 114.569 C 344.067 114.569,344.562 115.046,345.032 115.629 C 345.502 116.213,346.637 117.524,347.554 118.543 C 349.402 120.595,349.234 120.406,357.818 130.104 C 365.254 138.506,373.100 147.347,375.663 150.212 C 376.707 151.379,378.753 153.702,380.210 155.375 C 382.139 157.590,383.035 158.416,383.509 158.416 L 384.158 158.416 384.158 134.947 C 384.158 112.131,384.174 111.436,384.727 109.958 C 385.547 107.766,387.041 106.589,389.504 106.195 C 390.387 106.054,390.665 105.882,390.665 105.476 C 390.665 104.714,373.900 104.783,373.753 105.545 C 373.684 105.906,374.015 106.035,375.375 106.177 C 378.339 106.487,380.018 107.477,381.074 109.536 C 381.640 110.639,381.946 139.180,381.392 139.180 C 381.271 139.180,380.927 138.893,380.628 138.543 C 379.517 137.246,369.784 126.177,366.386 122.348 C 361.890 117.281,362.229 117.665,356.445 111.075 C 353.734 107.987,351.215 105.346,350.846 105.205 C 350.080 104.914,334.281 104.852,333.993 105.139 M41.605 108.351 C 46.179 109.713,47.659 112.339,47.663 119.095 C 47.669 128.019,44.572 131.133,35.912 130.915 L 32.733 130.835 32.777 119.519 C 32.801 113.296,32.820 108.025,32.818 107.807 C 32.813 107.194,39.006 107.577,41.605 108.351 M92.054 108.357 C 96.504 109.740,98.295 112.900,98.300 119.378 C 98.307 128.522,94.727 131.507,84.371 130.993 C 83.972 130.974,83.834 108.065,84.229 107.653 C 84.622 107.243,90.040 107.732,92.054 108.357 M142.487 123.778 C 142.697 124.392,143.137 125.467,143.465 126.167 C 143.793 126.867,144.226 127.885,144.427 128.430 C 144.629 128.975,145.753 131.764,146.925 134.629 C 148.097 137.494,148.991 139.945,148.910 140.075 C 148.707 140.405,134.727 140.377,134.523 140.046 C 134.337 139.745,134.585 139.086,137.620 131.825 C 139.751 126.725,140.506 124.884,141.138 123.244 C 141.539 122.203,142.010 122.389,142.487 123.778 " stroke="none" fill="#070707" fill-rule="evenodd"></path><path id="path1" d="M0.000 141.443 L 0.000 282.885 200.000 282.885 L 400.000 282.885 400.000 141.443 L 400.000 0.000 200.000 0.000 L 0.000 0.000 0.000 141.443 M147.075 104.212 C 147.254 104.428,147.701 105.351,148.068 106.263 C 148.435 107.175,149.208 109.066,149.787 110.467 C 150.365 111.867,151.640 114.986,152.620 117.397 C 154.869 122.934,155.242 123.833,155.757 124.959 C 155.986 125.461,156.349 126.352,156.564 126.939 C 156.778 127.526,157.930 130.361,159.123 133.239 C 160.316 136.117,161.458 138.926,161.661 139.480 C 161.864 140.034,162.288 141.052,162.602 141.743 C 162.917 142.434,163.769 144.463,164.496 146.252 C 167.388 153.373,168.900 155.498,171.581 156.215 C 172.713 156.518,173.417 157.465,172.897 157.985 C 172.815 158.066,167.169 158.133,160.349 158.133 L 147.949 158.133 147.949 157.325 C 147.949 156.536,147.992 156.513,149.821 156.343 C 154.004 155.952,154.646 154.912,153.133 150.974 C 152.584 149.544,151.829 147.570,151.455 146.589 C 151.081 145.607,150.581 144.429,150.345 143.972 L 149.915 143.140 141.640 143.140 L 133.365 143.140 132.553 145.050 C 132.107 146.100,131.379 147.808,130.935 148.845 C 128.947 153.488,130.202 155.844,134.925 156.338 C 136.592 156.512,136.660 156.550,136.578 157.255 L 136.492 157.992 128.006 157.992 L 119.519 157.992 119.436 157.284 C 119.364 156.662,119.534 156.513,120.844 156.048 C 122.822 155.345,123.873 154.503,125.286 152.488 C 126.622 150.584,127.771 148.204,130.003 142.716 C 131.004 140.254,132.326 137.035,133.663 133.805 C 134.017 132.949,134.883 130.849,135.588 129.137 C 136.293 127.426,137.242 125.134,137.696 124.045 C 138.151 122.956,139.566 119.519,140.841 116.407 C 146.310 103.061,146.237 103.203,147.075 104.212 M48.515 105.601 C 59.797 108.923,64.271 117.446,59.256 126.059 C 56.316 131.107,50.086 133.505,39.180 133.786 L 32.956 133.946 32.875 142.008 C 32.746 154.753,33.117 155.713,38.410 156.340 C 39.806 156.505,39.887 156.559,39.887 157.324 L 39.887 158.133 26.308 158.133 L 12.730 158.133 12.730 157.325 C 12.730 156.550,12.797 156.509,14.356 156.339 C 17.918 155.951,19.230 155.166,19.789 153.088 C 20.454 150.620,20.046 109.656,19.348 108.719 C 18.413 107.466,17.154 106.889,14.916 106.689 L 12.871 106.506 12.781 105.569 L 12.691 104.631 29.330 104.741 L 45.969 104.851 48.515 105.601 M98.727 105.483 C 107.484 107.875,112.001 113.805,110.914 121.481 C 110.214 126.424,106.169 130.933,101.093 132.432 C 99.357 132.945,98.741 131.734,109.445 148.881 C 112.197 153.290,113.978 155.288,115.837 156.053 C 116.912 156.495,117.113 156.699,117.114 157.355 L 117.115 158.133 109.195 158.133 L 101.275 158.133 100.213 156.405 C 99.629 155.454,98.817 154.149,98.408 153.505 C 98.000 152.861,96.425 150.297,94.910 147.808 C 91.528 142.254,88.439 137.221,87.313 135.431 C 86.539 134.201,86.374 134.088,85.360 134.088 L 84.253 134.088 84.354 143.352 C 84.487 155.583,84.589 155.808,90.305 156.339 C 92.195 156.514,92.248 156.541,92.165 157.256 L 92.079 157.992 78.218 157.992 L 64.356 157.992 64.271 157.254 C 64.188 156.540,64.245 156.511,66.101 156.321 C 71.904 155.726,71.570 157.260,71.570 131.211 L 71.570 109.843 70.931 108.882 C 70.025 107.518,68.158 106.648,66.141 106.648 C 64.473 106.648,63.740 105.949,64.358 104.948 C 64.796 104.239,95.948 104.724,98.727 105.483 M199.098 105.577 C 199.197 106.428,199.012 106.509,196.473 106.745 C 193.743 106.998,193.311 108.206,194.666 111.791 C 195.155 113.085,195.840 114.908,196.188 115.842 C 196.536 116.775,197.296 118.685,197.876 120.085 C 198.457 121.485,199.036 122.949,199.163 123.338 C 199.290 123.727,199.799 125.000,200.292 126.167 C 200.786 127.334,201.480 129.052,201.835 129.986 C 202.190 130.919,202.916 132.765,203.449 134.088 C 203.982 135.410,204.782 137.419,205.228 138.551 C 206.164 140.933,206.110 140.956,207.444 137.624 C 208.424 135.176,209.675 132.122,212.745 124.682 C 217.056 114.234,217.822 112.068,217.822 110.321 C 217.822 108.094,216.602 106.969,213.868 106.674 C 212.358 106.512,212.306 106.478,212.306 105.658 L 212.306 104.809 220.297 104.734 L 228.289 104.659 228.289 105.521 C 228.289 105.995,228.129 106.424,227.935 106.474 C 224.176 107.449,222.134 110.068,218.865 118.105 C 218.169 119.816,216.942 122.808,216.138 124.752 C 215.334 126.697,213.486 131.216,212.030 134.795 C 210.575 138.373,208.495 143.465,207.408 146.110 C 206.321 148.755,204.680 152.765,203.760 155.021 C 201.654 160.187,200.811 160.650,199.636 157.284 C 199.391 156.584,198.790 155.057,198.299 153.890 C 197.808 152.723,197.114 151.004,196.757 150.071 C 195.783 147.525,193.792 142.548,193.362 141.584 C 193.154 141.117,190.299 134.007,187.018 125.784 C 179.473 106.877,179.540 107.000,176.591 106.660 C 175.600 106.546,175.229 106.374,175.156 105.995 C 174.894 104.622,174.569 104.656,187.192 104.735 L 199.010 104.809 199.098 105.577 M275.672 112.447 L 275.672 120.085 274.836 120.085 C 274.088 120.085,273.976 119.966,273.769 118.953 C 272.838 114.401,270.494 111.042,266.902 109.116 L 265.205 108.205 258.204 108.112 L 251.202 108.019 251.202 118.689 L 251.202 129.358 253.536 129.203 C 258.783 128.853,260.430 126.788,262.161 118.388 C 262.357 117.438,262.518 117.242,263.163 117.167 L 263.932 117.077 263.932 130.674 L 263.932 144.272 263.151 144.272 C 262.392 144.272,262.358 144.202,261.907 141.754 C 260.756 135.504,258.112 132.771,253.041 132.592 L 251.344 132.532 251.266 142.008 C 251.155 155.450,250.816 154.886,258.982 154.870 C 269.184 154.850,273.395 152.169,276.964 143.423 C 277.593 141.881,277.835 141.570,278.461 141.495 C 279.396 141.383,279.398 141.449,278.614 146.999 C 278.287 149.311,277.809 152.730,277.553 154.597 L 277.086 157.992 253.960 158.064 L 230.835 158.136 230.835 157.323 C 230.835 156.513,230.842 156.510,232.924 156.376 C 235.425 156.215,236.966 155.505,237.765 154.145 C 238.493 152.907,238.665 111.756,237.951 109.606 C 237.370 107.854,235.257 106.648,232.769 106.648 C 231.229 106.648,230.835 106.411,230.835 105.484 L 230.835 104.664 253.253 104.737 L 275.672 104.809 275.672 112.447 M327.157 112.447 L 327.157 120.085 326.395 120.173 C 325.667 120.257,324.752 118.468,324.752 116.960 C 324.752 114.992,321.070 110.509,318.223 109.011 L 316.690 108.204 309.689 108.111 L 302.687 108.019 302.687 118.649 L 302.687 129.279 304.333 129.279 C 309.612 129.279,312.627 125.885,313.648 118.796 C 313.859 117.325,313.907 117.256,314.714 117.256 L 315.559 117.256 315.632 130.732 C 315.711 145.160,315.751 144.737,314.347 144.370 C 313.898 144.252,313.750 143.887,313.595 142.518 C 312.879 136.190,309.833 132.862,304.526 132.612 L 302.829 132.532 302.751 142.008 C 302.643 155.135,302.458 154.771,309.335 154.966 C 320.216 155.274,325.777 151.607,329.091 141.938 C 329.203 141.612,329.555 141.443,330.122 141.443 C 331.098 141.443,331.090 141.134,330.254 146.252 C 330.038 147.574,329.663 150.120,329.421 151.909 C 329.179 153.699,328.848 155.831,328.685 156.648 L 328.390 158.133 305.371 158.133 C 292.711 158.133,282.288 158.028,282.209 157.899 C 281.654 157.002,282.390 156.494,284.396 156.387 C 287.036 156.247,288.497 155.538,289.250 154.031 C 290.060 152.411,290.295 111.897,289.506 109.760 C 288.740 107.681,287.599 106.986,284.471 106.691 C 282.439 106.499,281.770 106.053,282.125 105.129 C 282.289 104.703,284.153 104.670,304.730 104.737 L 327.157 104.809 327.157 112.447 M357.325 111.528 C 363.116 118.125,368.890 124.675,373.975 130.417 C 376.940 133.765,379.600 136.783,380.575 137.907 L 381.312 138.755 381.321 125.231 C 381.332 107.538,381.225 107.192,375.551 106.685 C 373.556 106.507,373.550 106.504,373.550 105.658 L 373.550 104.809 382.256 104.734 C 390.129 104.667,390.979 104.704,391.141 105.126 C 391.455 105.945,390.810 106.497,389.282 106.717 C 387.459 106.980,386.635 107.512,385.486 109.166 L 384.583 110.467 384.441 134.650 C 384.309 157.222,384.267 158.839,383.814 158.926 C 383.055 159.072,382.788 158.826,378.788 154.314 C 376.719 151.980,374.185 149.122,373.157 147.962 C 372.129 146.802,370.141 144.568,368.741 142.997 C 367.341 141.426,364.922 138.689,363.366 136.915 C 361.810 135.141,359.901 132.978,359.123 132.108 C 358.345 131.238,356.818 129.515,355.728 128.280 C 353.307 125.533,349.136 120.855,348.422 120.085 C 348.134 119.774,347.117 118.596,346.164 117.468 C 345.210 116.340,344.331 115.417,344.209 115.417 C 343.844 115.417,343.939 150.517,344.309 152.249 C 344.864 154.844,347.541 156.436,351.350 156.436 C 352.452 156.436,352.508 156.477,352.423 157.214 L 352.334 157.992 343.140 158.060 C 338.083 158.098,333.792 158.030,333.603 157.909 C 332.709 157.335,333.545 156.560,335.448 156.199 C 341.116 155.125,340.877 156.210,340.877 131.560 L 340.877 111.457 339.146 109.627 C 337.437 107.820,335.592 106.648,334.457 106.648 C 333.678 106.648,333.149 105.962,333.376 105.247 C 333.556 104.679,333.739 104.668,342.432 104.668 L 351.304 104.668 357.325 111.528 M32.815 119.368 L 32.815 130.737 36.563 130.644 C 44.357 130.452,47.533 127.190,47.521 119.389 C 47.508 111.219,44.773 108.329,36.846 108.111 L 32.815 107.999 32.815 119.368 M84.367 119.273 L 84.441 130.552 87.305 130.632 C 94.465 130.832,98.143 127.156,98.157 119.783 C 98.172 111.827,95.090 108.367,87.762 108.114 L 84.293 107.994 84.367 119.273 M139.767 127.513 C 138.768 129.962,137.324 133.494,136.560 135.361 C 135.796 137.228,135.057 139.042,134.919 139.392 L 134.667 140.028 141.591 140.028 C 146.943 140.028,148.514 139.948,148.511 139.675 C 148.509 139.480,147.797 137.603,146.928 135.502 C 146.059 133.402,144.780 130.283,144.087 128.571 C 142.765 125.308,141.770 123.054,141.653 123.057 C 141.615 123.058,140.766 125.063,139.767 127.513 " stroke="none" fill="#fbfbfb" fill-rule="evenodd"></path><path id="path2" d="M12.730 104.880 C 12.730 105.072,24.271 105.069,38.472 104.873 C 41.506 104.831,36.955 104.767,28.359 104.732 C 19.763 104.697,12.730 104.763,12.730 104.880 M64.321 105.083 C 64.233 105.311,64.227 105.661,64.307 105.861 C 64.388 106.060,64.463 105.938,64.476 105.589 L 64.498 104.955 79.420 104.880 L 94.342 104.804 79.411 104.736 C 66.506 104.677,64.459 104.724,64.321 105.083 M175.293 104.877 C 175.220 104.995,180.504 105.057,187.035 105.015 L 198.909 104.938 198.818 105.581 C 198.743 106.109,198.500 106.254,197.454 106.393 L 196.181 106.563 197.313 106.601 C 198.736 106.649,199.227 106.343,199.105 105.484 L 199.010 104.809 187.218 104.735 C 180.733 104.695,175.366 104.758,175.293 104.877 M212.349 104.880 C 212.276 104.996,214.592 105.059,217.495 105.019 C 227.450 104.883,228.422 104.787,220.455 104.727 C 216.069 104.694,212.421 104.763,212.349 104.880 M253.182 104.879 L 275.530 104.954 275.530 112.481 L 275.530 120.008 274.673 119.882 C 274.154 119.806,273.918 119.858,274.074 120.015 C 274.217 120.158,274.635 120.232,275.003 120.180 L 275.672 120.085 275.672 112.447 L 275.672 104.809 253.253 104.806 L 230.834 104.804 253.182 104.879 M282.124 105.130 C 281.806 105.960,282.436 106.504,283.763 106.544 L 285.007 106.583 283.737 106.403 C 282.414 106.216,281.837 105.431,282.645 104.918 C 282.940 104.731,282.945 104.675,282.664 104.672 C 282.465 104.670,282.222 104.876,282.124 105.130 M305.021 104.879 L 327.016 104.954 327.016 112.430 L 327.016 119.906 326.305 120.030 C 325.654 120.143,325.660 120.151,326.376 120.119 L 327.157 120.085 327.157 112.447 L 327.157 104.809 305.092 104.806 L 283.027 104.804 305.021 104.879 M342.707 104.880 L 351.184 104.959 352.183 105.874 L 353.182 106.789 352.208 105.728 L 351.233 104.668 342.731 104.734 L 334.229 104.800 342.707 104.880 M373.517 105.075 C 373.134 106.075,373.521 106.506,374.826 106.529 L 376.096 106.553 374.894 106.443 C 373.837 106.347,373.692 106.250,373.692 105.642 L 373.692 104.950 382.339 104.950 L 390.987 104.950 390.897 105.585 C 390.834 106.026,390.546 106.279,389.958 106.413 L 389.109 106.606 389.929 106.556 C 390.845 106.501,391.413 105.834,391.143 105.130 C 390.890 104.472,373.770 104.418,373.517 105.075 M333.257 105.552 C 333.234 106.134,333.953 106.748,334.432 106.555 C 334.657 106.465,334.603 106.401,334.291 106.387 C 334.013 106.375,333.671 106.079,333.531 105.728 C 333.358 105.298,333.269 105.241,333.257 105.552 M175.177 106.082 C 175.247 106.343,175.663 106.522,176.259 106.546 C 177.146 106.583,177.157 106.575,176.380 106.450 C 175.914 106.375,175.427 106.166,175.298 105.986 C 175.139 105.764,175.100 105.795,175.177 106.082 M12.989 106.454 C 13.116 106.582,13.715 106.643,14.319 106.590 L 15.417 106.494 14.087 106.358 C 13.355 106.283,12.861 106.326,12.989 106.454 M212.418 106.449 C 212.550 106.581,213.088 106.645,213.613 106.591 C 214.545 106.495,214.539 106.489,213.374 106.351 C 212.717 106.273,212.287 106.318,212.418 106.449 M65.138 106.568 C 65.568 106.633,66.205 106.631,66.553 106.564 C 66.901 106.497,66.549 106.444,65.771 106.446 C 64.993 106.448,64.708 106.503,65.138 106.568 M231.899 106.565 C 232.251 106.633,232.760 106.630,233.030 106.559 C 233.301 106.488,233.013 106.433,232.390 106.436 C 231.768 106.439,231.547 106.497,231.899 106.565 M216.997 107.954 C 217.373 108.439,217.737 108.786,217.807 108.724 C 217.876 108.662,217.569 108.265,217.124 107.841 L 216.315 107.072 216.997 107.954 M353.324 107.302 C 353.324 107.351,353.738 107.765,354.243 108.221 L 355.163 109.052 354.332 108.133 C 353.557 107.276,353.324 107.084,353.324 107.302 M385.770 108.416 C 385.003 109.454,384.485 110.348,384.910 109.901 C 385.435 109.350,386.731 107.496,386.592 107.496 C 386.514 107.496,386.144 107.910,385.770 108.416 M34.158 107.988 C 34.975 108.045,36.312 108.045,37.129 107.988 C 37.946 107.931,37.277 107.884,35.644 107.884 C 34.010 107.884,33.342 107.931,34.158 107.988 M85.511 107.988 C 86.254 108.046,87.400 108.045,88.057 107.986 C 88.713 107.927,88.105 107.879,86.704 107.880 C 85.304 107.881,84.767 107.929,85.511 107.988 M104.950 108.261 C 105.339 108.540,106.294 109.336,107.072 110.031 L 108.487 111.295 107.287 110.024 C 106.627 109.325,105.672 108.528,105.165 108.254 C 104.275 107.772,104.267 107.772,104.950 108.261 M148.535 107.921 C 148.535 108.076,148.717 108.522,148.939 108.911 C 149.162 109.300,149.343 109.491,149.343 109.335 C 149.343 109.180,149.162 108.734,148.939 108.345 C 148.717 107.956,148.535 107.765,148.535 107.921 M251.048 108.134 C 250.974 108.329,250.947 113.198,250.990 118.954 L 251.068 129.420 251.135 118.747 L 251.202 108.073 257.214 107.991 L 263.225 107.909 257.205 107.844 C 252.591 107.794,251.153 107.862,251.048 108.134 M302.534 108.134 C 302.459 108.329,302.432 113.198,302.475 118.954 L 302.553 129.420 302.620 118.747 L 302.687 108.073 308.699 107.991 L 314.710 107.909 308.690 107.844 C 304.076 107.794,302.638 107.862,302.534 108.134 M338.331 108.769 C 338.859 109.314,339.354 109.760,339.432 109.760 C 339.510 109.760,339.142 109.314,338.614 108.769 C 338.086 108.225,337.591 107.779,337.513 107.779 C 337.435 107.779,337.803 108.225,338.331 108.769 M266.219 108.733 C 266.510 108.994,268.175 109.759,268.175 109.633 C 268.175 109.470,266.607 108.628,266.304 108.628 C 266.192 108.628,266.154 108.675,266.219 108.733 M217.903 110.467 C 217.905 111.245,217.960 111.529,218.025 111.099 C 218.090 110.669,218.088 110.033,218.021 109.685 C 217.954 109.337,217.901 109.689,217.903 110.467 M356.153 110.467 C 356.681 111.011,357.176 111.457,357.254 111.457 C 357.332 111.457,356.963 111.011,356.436 110.467 C 355.908 109.922,355.412 109.477,355.335 109.477 C 355.257 109.477,355.625 109.922,356.153 110.467 M94.484 109.848 C 94.484 109.897,94.897 110.310,95.403 110.767 L 96.322 111.598 95.492 110.679 C 94.717 109.822,94.484 109.630,94.484 109.848 M321.346 111.245 C 322.040 111.984,322.644 112.588,322.690 112.588 C 322.902 112.588,322.678 112.334,321.429 111.162 L 320.085 109.901 321.346 111.245 M238.270 111.598 C 238.273 112.376,238.328 112.661,238.393 112.231 C 238.458 111.801,238.456 111.164,238.389 110.816 C 238.322 110.469,238.268 110.820,238.270 111.598 M20.219 131.400 C 20.219 142.914,20.254 147.583,20.297 141.775 C 20.340 135.968,20.340 126.548,20.297 120.842 C 20.254 115.136,20.219 119.887,20.219 131.400 M71.704 131.117 C 71.704 142.164,71.739 146.724,71.782 141.251 C 71.825 135.778,71.825 126.740,71.782 121.166 C 71.739 115.593,71.704 120.071,71.704 131.117 M341.011 131.259 C 341.011 142.228,341.046 146.715,341.089 141.231 C 341.132 135.746,341.132 126.772,341.089 121.287 C 341.046 115.803,341.011 120.290,341.011 131.259 M358.295 112.898 C 358.750 113.457,359.180 113.867,359.250 113.808 C 359.320 113.750,358.947 113.292,358.422 112.791 L 357.467 111.881 358.295 112.898 M381.397 125.406 C 381.347 135.328,381.248 138.597,381.003 138.445 C 380.792 138.315,380.754 138.368,380.893 138.595 C 381.510 139.592,381.613 137.487,381.542 125.301 L 381.465 112.164 381.397 125.406 M359.547 114.374 C 359.547 114.423,359.961 114.837,360.467 115.294 L 361.386 116.124 360.555 115.205 C 359.781 114.348,359.547 114.156,359.547 114.374 M343.774 131.754 L 343.843 148.373 343.918 131.981 C 343.976 119.301,344.073 115.539,344.345 115.366 C 344.593 115.208,344.551 115.142,344.201 115.139 C 343.734 115.135,343.710 116.087,343.774 131.754 M47.627 119.378 C 47.627 120.856,47.674 121.460,47.733 120.721 C 47.791 119.982,47.791 118.773,47.733 118.034 C 47.674 117.295,47.627 117.900,47.627 119.378 M262.332 117.551 C 262.240 117.791,262.244 118.067,262.341 118.164 C 262.438 118.261,262.518 118.137,262.518 117.888 C 262.518 117.611,262.820 117.389,263.296 117.317 L 264.074 117.199 263.287 117.157 C 262.808 117.131,262.434 117.286,262.332 117.551 M313.860 117.400 C 313.752 117.575,313.740 117.794,313.833 117.888 C 313.926 117.981,314.003 117.909,314.003 117.727 C 314.003 117.546,314.320 117.397,314.707 117.397 L 315.412 117.397 315.489 130.835 L 315.567 144.272 315.563 130.764 L 315.559 117.256 314.807 117.169 C 314.394 117.121,313.968 117.225,313.860 117.400 M61.169 119.095 C 61.169 119.639,61.227 119.862,61.298 119.590 C 61.369 119.318,61.369 118.872,61.298 118.600 C 61.227 118.327,61.169 118.550,61.169 119.095 M98.242 119.519 C 98.244 120.297,98.299 120.582,98.364 120.152 C 98.429 119.722,98.428 119.085,98.360 118.737 C 98.293 118.389,98.240 118.741,98.242 119.519 M347.684 119.258 C 348.219 119.892,348.714 120.365,348.784 120.309 C 348.854 120.253,348.416 119.734,347.811 119.156 L 346.712 118.105 347.684 119.258 M110.962 119.519 C 110.966 120.141,111.023 120.363,111.091 120.011 C 111.159 119.659,111.156 119.150,111.085 118.879 C 111.015 118.609,110.959 118.897,110.962 119.519 M364.356 119.802 C 364.884 120.347,365.380 120.792,365.458 120.792 C 365.535 120.792,365.167 120.347,364.639 119.802 C 364.112 119.257,363.616 118.812,363.538 118.812 C 363.460 118.812,363.829 119.257,364.356 119.802 M349.929 121.782 C 350.457 122.327,350.953 122.772,351.030 122.772 C 351.108 122.772,350.740 122.327,350.212 121.782 C 349.684 121.238,349.189 120.792,349.111 120.792 C 349.033 120.792,349.401 121.238,349.929 121.782 M366.620 122.348 C 367.147 122.893,367.643 123.338,367.721 123.338 C 367.798 123.338,367.430 122.893,366.902 122.348 C 366.375 121.803,365.879 121.358,365.801 121.358 C 365.724 121.358,366.092 121.803,366.620 122.348 M312.750 122.368 C 312.646 122.783,312.615 123.176,312.682 123.243 C 312.749 123.310,312.888 123.025,312.993 122.611 C 313.097 122.196,313.127 121.802,313.060 121.736 C 312.994 121.669,312.854 121.954,312.750 122.368 M351.627 123.709 C 351.627 123.758,352.040 124.172,352.546 124.629 L 353.465 125.460 352.634 124.540 C 351.860 123.683,351.627 123.491,351.627 123.709 M368.034 123.992 C 368.034 124.041,368.448 124.455,368.953 124.912 L 369.873 125.743 369.042 124.823 C 368.267 123.966,368.034 123.774,368.034 123.992 M354.455 126.874 C 354.983 127.419,355.479 127.864,355.557 127.864 C 355.634 127.864,355.266 127.419,354.738 126.874 C 354.211 126.330,353.715 125.884,353.637 125.884 C 353.559 125.884,353.928 126.330,354.455 126.874 M370.014 126.255 C 370.014 126.304,370.428 126.718,370.934 127.175 L 371.853 128.006 371.022 127.086 C 370.248 126.229,370.014 126.037,370.014 126.255 M57.274 128.218 L 55.870 129.703 57.355 128.299 C 58.172 127.527,58.840 126.859,58.840 126.814 C 58.840 126.603,58.578 126.838,57.274 128.218 M107.059 128.784 L 105.941 129.986 107.143 128.868 C 108.261 127.828,108.475 127.581,108.261 127.581 C 108.215 127.581,107.674 128.122,107.059 128.784 M42.433 129.562 C 41.888 129.860,41.545 130.109,41.669 130.115 C 41.969 130.131,43.564 129.302,43.564 129.130 C 43.564 128.945,43.548 128.951,42.433 129.562 M93.069 129.562 C 92.525 129.860,92.181 130.109,92.305 130.115 C 92.605 130.131,94.201 129.302,94.201 129.130 C 94.201 128.945,94.184 128.951,93.069 129.562 M84.554 130.778 C 84.679 130.903,85.596 130.965,86.592 130.917 L 88.402 130.828 86.364 130.690 C 85.243 130.614,84.428 130.654,84.554 130.778 M358.699 131.683 C 359.227 132.228,359.722 132.673,359.800 132.673 C 359.878 132.673,359.509 132.228,358.982 131.683 C 358.454 131.139,357.958 130.693,357.881 130.693 C 357.803 130.693,358.171 131.139,358.699 131.683 M375.106 131.966 C 375.634 132.511,376.129 132.956,376.207 132.956 C 376.285 132.956,375.917 132.511,375.389 131.966 C 374.861 131.421,374.366 130.976,374.288 130.976 C 374.210 130.976,374.578 131.421,375.106 131.966 M250.980 141.513 C 251.040 150.660,251.137 149.631,251.272 138.401 C 251.311 135.095,251.248 132.390,251.132 132.390 C 251.015 132.390,250.947 136.496,250.980 141.513 M253.536 132.585 C 253.808 132.657,254.254 132.657,254.526 132.585 C 254.798 132.514,254.576 132.456,254.031 132.456 C 253.487 132.456,253.264 132.514,253.536 132.585 M302.465 141.796 C 302.526 151.196,302.621 150.138,302.757 138.543 C 302.796 135.159,302.733 132.390,302.617 132.390 C 302.500 132.390,302.432 136.623,302.465 141.796 M305.021 132.585 C 305.293 132.657,305.739 132.657,306.011 132.585 C 306.284 132.514,306.061 132.456,305.516 132.456 C 304.972 132.456,304.749 132.514,305.021 132.585 M42.790 133.725 C 43.220 133.790,43.857 133.788,44.205 133.721 C 44.553 133.654,44.201 133.601,43.423 133.603 C 42.645 133.605,42.360 133.660,42.790 133.725 M84.441 133.948 C 85.088 134.173,86.796 134.235,86.668 134.029 C 86.592 133.906,85.996 133.815,85.344 133.827 C 84.692 133.839,84.286 133.894,84.441 133.948 M258.840 134.795 C 259.368 135.339,259.863 135.785,259.941 135.785 C 260.019 135.785,259.651 135.339,259.123 134.795 C 258.595 134.250,258.100 133.805,258.022 133.805 C 257.944 133.805,258.312 134.250,258.840 134.795 M132.719 135.939 C 132.245 136.979,132.336 137.201,132.848 136.255 C 133.088 135.813,133.230 135.399,133.166 135.334 C 133.101 135.270,132.900 135.542,132.719 135.939 M362.942 136.492 C 363.470 137.037,363.965 137.482,364.043 137.482 C 364.121 137.482,363.753 137.037,363.225 136.492 C 362.697 135.948,362.202 135.502,362.124 135.502 C 362.046 135.502,362.414 135.948,362.942 136.492 M378.501 135.874 C 378.501 135.922,378.914 136.336,379.420 136.793 L 380.339 137.624 379.509 136.704 C 378.734 135.847,378.501 135.655,378.501 135.874 M135.265 137.919 C 134.791 138.959,134.882 139.181,135.394 138.235 C 135.633 137.794,135.776 137.379,135.712 137.315 C 135.647 137.250,135.446 137.522,135.265 137.919 M364.639 138.419 C 364.639 138.468,365.053 138.882,365.559 139.339 L 366.478 140.170 365.647 139.250 C 364.873 138.393,364.639 138.201,364.639 138.419 M209.650 140.060 C 209.475 140.560,209.382 141.018,209.443 141.079 C 209.503 141.139,209.695 140.780,209.870 140.280 C 210.044 139.780,210.137 139.321,210.076 139.261 C 210.016 139.200,209.824 139.560,209.650 140.060 M367.327 141.443 C 367.934 142.065,368.495 142.574,368.573 142.574 C 368.651 142.574,368.217 142.065,367.610 141.443 C 367.002 140.820,366.441 140.311,366.363 140.311 C 366.285 140.311,366.719 140.820,367.327 141.443 M141.584 143.067 C 148.891 143.136,149.827 143.196,150.141 143.620 C 150.336 143.882,150.495 143.971,150.495 143.816 C 150.495 142.928,149.794 142.857,141.598 142.923 L 133.380 142.990 141.584 143.067 M369.590 143.989 C 370.198 144.611,370.758 145.120,370.836 145.120 C 370.914 145.120,370.480 144.611,369.873 143.989 C 369.265 143.366,368.704 142.857,368.626 142.857 C 368.549 142.857,368.982 143.366,369.590 143.989 M371.146 145.775 C 371.146 145.823,371.559 146.237,372.065 146.694 L 372.984 147.525 372.154 146.605 C 371.379 145.748,371.146 145.556,371.146 145.775 M151.647 147.242 C 151.647 147.397,151.829 147.843,152.051 148.232 C 152.273 148.621,152.455 148.812,152.455 148.656 C 152.455 148.501,152.273 148.055,152.051 147.666 C 151.829 147.277,151.647 147.086,151.647 147.242 M373.692 148.603 C 373.692 148.652,374.105 149.066,374.611 149.523 L 375.530 150.354 374.700 149.434 C 373.925 148.577,373.692 148.385,373.692 148.603 M323.752 150.849 L 322.348 152.334 323.833 150.930 C 324.650 150.158,325.318 149.490,325.318 149.445 C 325.318 149.234,325.056 149.469,323.752 150.849 M376.379 151.627 C 376.987 152.249,377.548 152.758,377.625 152.758 C 377.703 152.758,377.270 152.249,376.662 151.627 C 376.054 151.004,375.493 150.495,375.416 150.495 C 375.338 150.495,375.771 151.004,376.379 151.627 M238.255 151.627 C 238.255 152.171,238.313 152.394,238.385 152.122 C 238.456 151.849,238.456 151.404,238.385 151.132 C 238.313 150.859,238.255 151.082,238.255 151.627 M129.929 152.475 C 129.929 153.331,129.982 153.681,130.047 153.253 C 130.112 152.825,130.112 152.125,130.047 151.697 C 129.982 151.269,129.929 151.620,129.929 152.475 M268.953 153.203 C 267.896 153.777,267.960 154.016,269.024 153.465 C 269.491 153.224,269.873 152.966,269.873 152.892 C 269.873 152.710,269.842 152.721,268.953 153.203 M378.501 154.031 C 379.029 154.576,379.524 155.021,379.602 155.021 C 379.680 155.021,379.311 154.576,378.784 154.031 C 378.256 153.487,377.760 153.041,377.683 153.041 C 377.605 153.041,377.973 153.487,378.501 154.031 M70.617 154.526 L 70.108 155.446 70.691 154.738 C 71.209 154.111,71.438 153.607,71.207 153.607 C 71.162 153.607,70.897 154.021,70.617 154.526 M345.097 154.558 C 345.474 155.022,346.535 155.724,346.535 155.509 C 346.535 155.455,346.121 155.108,345.615 154.737 C 345.046 154.321,344.849 154.253,345.097 154.558 M262.871 154.933 C 263.144 155.004,263.589 155.004,263.861 154.933 C 264.134 154.862,263.911 154.804,263.366 154.804 C 262.822 154.804,262.599 154.862,262.871 154.933 M152.758 155.621 C 152.214 155.913,151.977 156.152,152.232 156.152 C 152.487 156.153,152.996 155.902,153.363 155.596 C 154.172 154.922,154.053 154.927,152.758 155.621 M380.764 156.577 C 381.292 157.122,381.787 157.567,381.865 157.567 C 381.943 157.567,381.574 157.122,381.047 156.577 C 380.519 156.033,380.023 155.587,379.946 155.587 C 379.868 155.587,380.236 156.033,380.764 156.577 M64.329 157.284 L 64.356 157.992 78.218 157.992 L 92.079 157.992 92.120 157.143 C 92.159 156.337,92.155 156.333,92.031 157.072 L 91.900 157.850 78.218 157.850 L 64.535 157.850 64.419 157.214 C 64.317 156.660,64.305 156.669,64.329 157.284 M119.492 157.284 L 119.519 157.992 127.864 157.998 L 136.209 158.004 127.953 157.923 L 119.697 157.842 119.581 157.209 C 119.481 156.667,119.468 156.678,119.492 157.284 M352.225 157.068 L 352.192 157.842 342.928 157.921 L 333.663 158.000 342.937 158.066 C 352.813 158.137,352.738 158.147,352.391 156.806 C 352.303 156.469,352.247 156.559,352.225 157.068 M276.945 157.377 C 276.945 157.810,275.152 157.853,253.819 157.921 L 230.693 157.995 253.828 158.064 C 277.778 158.135,278.157 158.119,277.121 157.084 C 277.024 156.986,276.945 157.119,276.945 157.377 M100.954 157.638 C 101.310 158.091,102.011 158.127,109.299 158.067 L 117.256 158.001 109.359 157.921 C 103.632 157.863,101.338 157.745,101.014 157.492 C 100.618 157.184,100.611 157.201,100.954 157.638 M282.110 157.567 C 282.211 157.940,285.042 157.992,305.398 157.994 L 328.571 157.997 305.532 157.922 C 287.551 157.863,282.438 157.769,282.243 157.495 C 282.059 157.236,282.024 157.255,282.110 157.567 M160.396 157.850 L 147.808 158.000 160.309 158.067 C 168.410 158.110,172.871 158.033,172.984 157.850 C 173.081 157.694,173.120 157.597,173.072 157.633 C 173.024 157.670,167.320 157.767,160.396 157.850 M19.448 158.062 C 23.221 158.107,29.395 158.107,33.168 158.062 C 36.941 158.017,33.854 157.981,26.308 157.981 C 18.762 157.981,15.675 158.017,19.448 158.062 M200.000 158.305 C 200.000 159.064,201.709 159.649,202.096 159.022 C 202.179 158.889,201.912 158.844,201.503 158.922 C 200.990 159.020,200.642 158.903,200.380 158.545 C 200.171 158.259,200.000 158.151,200.000 158.305 M384.158 158.369 C 384.158 158.550,383.872 158.713,383.522 158.732 C 382.998 158.759,382.978 158.788,383.411 158.900 C 383.975 159.045,384.671 158.551,384.352 158.232 C 384.245 158.126,384.158 158.187,384.158 158.369 " stroke="none" fill="#a2a2a2" fill-rule="evenodd"></path><path id="path3" d="M384.293 134.512 C 384.293 146.803,384.328 151.790,384.371 145.594 C 384.413 139.398,384.413 129.342,384.370 123.246 C 384.328 117.151,384.293 122.221,384.293 134.512 M251.697 129.478 C 252.047 129.546,252.620 129.546,252.970 129.478 C 253.320 129.411,253.034 129.356,252.334 129.356 C 251.634 129.356,251.347 129.411,251.697 129.478 M303.186 129.479 C 303.538 129.546,304.047 129.544,304.317 129.473 C 304.588 129.402,304.300 129.347,303.678 129.350 C 303.055 129.353,302.834 129.411,303.186 129.479 M35.290 133.732 C 36.574 133.785,38.674 133.785,39.958 133.732 C 41.241 133.680,40.191 133.637,37.624 133.637 C 35.057 133.637,34.006 133.680,35.290 133.732 M343.791 149.646 C 343.791 150.502,343.844 150.852,343.908 150.424 C 343.973 149.996,343.973 149.296,343.908 148.868 C 343.844 148.441,343.791 148.791,343.791 149.646 " stroke="none" fill="#848484" fill-rule="evenodd"></path><path id="path4" d="M43.214 105.151 C 43.566 105.218,44.075 105.216,44.346 105.145 C 44.616 105.074,44.328 105.019,43.706 105.022 C 43.083 105.025,42.862 105.083,43.214 105.151 M92.857 105.153 C 93.285 105.218,93.985 105.218,94.413 105.153 C 94.841 105.088,94.491 105.035,93.635 105.035 C 92.779 105.035,92.429 105.088,92.857 105.153 M198.499 105.498 C 198.618 105.955,198.464 106.065,197.553 106.168 L 196.464 106.291 197.595 106.257 C 198.628 106.226,199.640 104.950,198.632 104.950 C 198.480 104.950,198.420 105.197,198.499 105.498 M227.917 105.490 C 228.006 105.830,227.889 106.082,227.602 106.169 C 227.237 106.280,227.246 106.298,227.647 106.263 C 228.163 106.216,228.554 104.950,228.052 104.950 C 227.900 104.950,227.839 105.193,227.917 105.490 M275.371 112.447 C 275.371 116.648,275.411 118.406,275.459 116.354 C 275.507 114.301,275.507 110.864,275.459 108.716 C 275.411 106.567,275.372 108.246,275.371 112.447 M282.415 105.394 C 282.159 106.061,282.701 106.420,283.769 106.289 L 284.724 106.173 283.630 106.127 C 282.685 106.088,282.557 106.005,282.685 105.516 C 282.860 104.847,282.659 104.756,282.415 105.394 M333.629 105.361 C 333.415 105.919,333.736 106.372,334.317 106.332 C 334.721 106.304,334.715 106.279,334.274 106.165 C 333.924 106.075,333.799 105.853,333.894 105.490 C 334.059 104.859,333.860 104.761,333.629 105.361 M350.778 105.150 C 351.011 105.234,351.584 105.638,352.051 106.047 L 352.900 106.789 352.069 105.870 C 351.612 105.364,351.039 104.961,350.796 104.973 C 350.415 104.992,350.412 105.017,350.778 105.150 M390.665 105.592 C 390.665 105.868,390.362 106.090,389.887 106.162 L 389.109 106.280 389.896 106.323 C 390.646 106.363,391.248 105.722,390.841 105.315 C 390.744 105.218,390.665 105.343,390.665 105.592 M13.511 106.282 C 13.863 106.350,14.372 106.347,14.643 106.276 C 14.913 106.206,14.625 106.150,14.003 106.153 C 13.380 106.157,13.159 106.214,13.511 106.282 M64.993 106.282 C 65.343 106.349,65.916 106.349,66.266 106.282 C 66.616 106.214,66.330 106.159,65.629 106.159 C 64.929 106.159,64.643 106.214,64.993 106.282 M231.471 106.277 C 231.743 106.348,232.189 106.348,232.461 106.277 C 232.733 106.206,232.511 106.148,231.966 106.148 C 231.421 106.148,231.199 106.206,231.471 106.277 M374.187 106.282 C 374.537 106.349,375.110 106.349,375.460 106.282 C 375.810 106.214,375.523 106.159,374.823 106.159 C 374.123 106.159,373.837 106.214,374.187 106.282 M335.219 106.567 C 335.453 106.653,335.898 106.841,336.209 106.985 C 336.766 107.241,336.766 107.238,336.226 106.805 C 335.924 106.563,335.478 106.375,335.236 106.387 C 334.855 106.407,334.853 106.431,335.219 106.567 M217.135 107.806 C 217.591 108.365,218.020 108.775,218.090 108.716 C 218.160 108.658,217.787 108.200,217.262 107.700 L 216.307 106.789 217.135 107.806 M34.026 107.705 C 34.769 107.763,35.915 107.763,36.571 107.703 C 37.228 107.644,36.620 107.596,35.219 107.597 C 33.819 107.598,33.282 107.646,34.026 107.705 M84.201 107.709 C 84.129 107.825,84.853 107.885,85.811 107.842 C 88.740 107.709,89.087 107.583,86.650 107.539 C 85.376 107.516,84.274 107.592,84.201 107.709 M253.960 107.707 C 255.555 107.758,258.165 107.758,259.760 107.707 C 261.354 107.657,260.050 107.616,256.860 107.616 C 253.670 107.616,252.366 107.657,253.960 107.707 M305.319 107.708 C 307.000 107.758,309.674 107.758,311.260 107.707 C 312.846 107.657,311.471 107.616,308.204 107.616 C 304.936 107.616,303.638 107.658,305.319 107.708 M338.472 108.628 C 339.080 109.250,339.641 109.760,339.719 109.760 C 339.797 109.760,339.363 109.250,338.755 108.628 C 338.148 108.006,337.587 107.496,337.509 107.496 C 337.431 107.496,337.865 108.006,338.472 108.628 M315.158 107.881 C 315.223 107.937,315.658 108.068,316.124 108.172 C 316.744 108.311,316.859 108.285,316.549 108.075 C 316.167 107.817,314.874 107.636,315.158 107.881 M250.699 118.583 C 250.664 124.447,250.732 129.304,250.849 129.377 C 251.042 129.496,251.037 121.437,250.839 111.740 C 250.796 109.639,250.733 112.719,250.699 118.583 M84.145 118.670 C 84.145 124.427,84.183 126.742,84.229 123.815 C 84.275 120.887,84.275 116.177,84.229 113.348 C 84.183 110.519,84.145 112.914,84.145 118.670 M106.919 110.113 C 107.613 110.852,108.217 111.457,108.263 111.457 C 108.475 111.457,108.250 111.203,107.001 110.031 L 105.658 108.769 106.919 110.113 M95.332 110.467 C 95.860 111.011,96.356 111.457,96.433 111.457 C 96.511 111.457,96.143 111.011,95.615 110.467 C 95.087 109.922,94.592 109.477,94.514 109.477 C 94.436 109.477,94.805 109.922,95.332 110.467 M218.170 110.325 C 218.170 110.870,218.229 111.093,218.300 110.820 C 218.371 110.548,218.371 110.103,218.300 109.830 C 218.229 109.558,218.170 109.781,218.170 110.325 M355.870 110.467 C 356.398 111.011,356.893 111.457,356.971 111.457 C 357.049 111.457,356.681 111.011,356.153 110.467 C 355.625 109.922,355.129 109.477,355.052 109.477 C 354.974 109.477,355.342 109.922,355.870 110.467 M269.861 110.962 C 270.555 111.701,271.159 112.306,271.205 112.306 C 271.417 112.306,271.192 112.052,269.943 110.879 L 268.600 109.618 269.861 110.962 M321.346 110.962 C 322.040 111.701,322.644 112.306,322.690 112.306 C 322.902 112.306,322.678 112.052,321.429 110.879 L 320.085 109.618 321.346 110.962 M238.607 131.400 C 238.607 142.914,238.642 147.583,238.684 141.775 C 238.727 135.968,238.727 126.548,238.684 120.842 C 238.642 115.136,238.607 119.887,238.607 131.400 M290.092 131.259 C 290.092 142.383,290.127 146.934,290.170 141.372 C 290.213 135.810,290.213 126.708,290.170 121.146 C 290.127 115.583,290.092 120.134,290.092 131.259 M357.284 112.111 C 357.284 112.160,357.698 112.574,358.204 113.031 L 359.123 113.861 358.292 112.942 C 357.518 112.085,357.284 111.893,357.284 112.111 M109.390 113.575 C 109.649 114.118,109.911 114.511,109.973 114.450 C 110.102 114.320,109.243 112.588,109.050 112.588 C 108.978 112.588,109.132 113.032,109.390 113.575 M47.132 114.144 C 47.364 115.184,47.526 115.410,47.520 114.686 C 47.518 114.388,47.387 113.953,47.229 113.720 C 47.019 113.410,46.993 113.524,47.132 114.144 M110.705 119.519 C 110.706 120.764,110.756 121.238,110.816 120.572 C 110.875 119.907,110.875 118.889,110.814 118.309 C 110.753 117.730,110.704 118.274,110.705 119.519 M263.580 118.105 C 263.654 118.494,263.764 118.812,263.824 118.812 C 263.883 118.812,263.932 118.494,263.932 118.105 C 263.932 117.716,263.822 117.397,263.688 117.397 C 263.554 117.397,263.506 117.716,263.580 118.105 M315.265 130.835 C 315.265 138.303,315.302 141.317,315.346 137.533 C 315.391 133.750,315.391 127.639,315.346 123.955 C 315.302 120.271,315.265 123.366,315.265 130.835 M60.908 119.236 C 60.910 120.170,60.962 120.518,61.025 120.009 C 61.088 119.501,61.087 118.737,61.022 118.312 C 60.958 117.887,60.906 118.303,60.908 119.236 M347.383 118.618 C 347.383 118.666,347.797 119.080,348.303 119.537 L 349.222 120.368 348.391 119.448 C 347.617 118.591,347.383 118.399,347.383 118.618 M364.074 119.802 C 364.601 120.347,365.097 120.792,365.175 120.792 C 365.252 120.792,364.884 120.347,364.356 119.802 C 363.829 119.257,363.333 118.812,363.255 118.812 C 363.178 118.812,363.546 119.257,364.074 119.802 M365.771 121.729 C 365.771 121.778,366.185 122.192,366.690 122.649 L 367.610 123.479 366.779 122.560 C 366.004 121.703,365.771 121.511,365.771 121.729 M141.354 122.672 C 141.247 122.779,141.162 123.004,141.164 123.173 C 141.167 123.342,141.294 123.289,141.447 123.055 C 141.695 122.678,141.759 122.678,142.030 123.055 C 142.278 123.401,142.314 123.404,142.225 123.073 C 142.097 122.602,141.637 122.390,141.354 122.672 M351.627 123.427 C 351.627 123.475,352.040 123.889,352.546 124.346 L 353.465 125.177 352.634 124.257 C 351.860 123.400,351.627 123.208,351.627 123.427 M367.751 123.992 C 367.751 124.041,368.165 124.455,368.670 124.912 L 369.590 125.743 368.759 124.823 C 367.984 123.966,367.751 123.774,367.751 123.992 M354.738 126.874 C 355.266 127.419,355.762 127.864,355.839 127.864 C 355.917 127.864,355.549 127.419,355.021 126.874 C 354.493 126.330,353.998 125.884,353.920 125.884 C 353.842 125.884,354.211 126.330,354.738 126.874 M45.136 127.846 L 44.020 129.137 45.264 127.945 C 45.947 127.289,46.450 126.708,46.379 126.654 C 46.309 126.600,45.750 127.136,45.136 127.846 M107.198 128.359 L 106.223 129.420 107.284 128.445 C 107.868 127.909,108.345 127.432,108.345 127.384 C 108.345 127.168,108.106 127.372,107.198 128.359 M356.153 128.519 C 356.153 128.567,356.566 128.981,357.072 129.438 L 357.992 130.269 357.161 129.349 C 356.386 128.492,356.153 128.300,356.153 128.519 M371.994 128.801 C 371.994 128.850,372.408 129.264,372.914 129.721 L 373.833 130.552 373.002 129.632 C 372.228 128.775,371.994 128.583,371.994 128.801 M305.021 129.474 C 305.293 129.545,305.739 129.545,306.011 129.474 C 306.284 129.402,306.061 129.344,305.516 129.344 C 304.972 129.344,304.749 129.402,305.021 129.474 M34.735 130.903 C 35.714 130.958,37.241 130.958,38.130 130.902 C 39.018 130.846,38.218 130.801,36.351 130.801 C 34.484 130.802,33.757 130.847,34.735 130.903 M358.982 131.683 C 359.509 132.228,360.005 132.673,360.083 132.673 C 360.160 132.673,359.792 132.228,359.264 131.683 C 358.737 131.139,358.241 130.693,358.163 130.693 C 358.086 130.693,358.454 131.139,358.982 131.683 M250.765 132.464 C 250.689 132.660,250.664 136.638,250.707 141.304 L 250.787 149.788 250.853 141.102 L 250.919 132.416 252.829 132.317 L 254.738 132.218 252.820 132.163 C 251.494 132.125,250.859 132.218,250.765 132.464 M303.176 132.312 C 303.678 132.374,304.569 132.375,305.156 132.314 C 305.743 132.253,305.332 132.202,304.243 132.200 C 303.154 132.199,302.674 132.249,303.176 132.312 M361.245 134.229 C 361.772 134.774,362.268 135.219,362.346 135.219 C 362.424 135.219,362.055 134.774,361.528 134.229 C 361.000 133.685,360.504 133.239,360.426 133.239 C 360.349 133.239,360.717 133.685,361.245 134.229 M84.145 133.878 C 84.070 134.074,84.044 138.243,84.088 143.143 L 84.167 152.051 84.233 142.928 L 84.300 133.805 85.375 133.805 C 85.966 133.805,86.628 133.964,86.846 134.158 C 87.184 134.459,87.187 134.438,86.868 134.017 C 86.424 133.430,84.358 133.325,84.145 133.878 M259.110 134.795 C 259.793 135.573,260.410 136.273,260.483 136.351 C 260.555 136.429,260.480 136.238,260.316 135.926 C 260.152 135.615,259.535 134.915,258.944 134.371 C 257.923 133.430,257.931 133.451,259.110 134.795 M376.238 133.610 C 376.238 133.659,376.651 134.073,377.157 134.530 L 378.076 135.361 377.246 134.441 C 376.471 133.584,376.238 133.392,376.238 133.610 M362.376 135.591 C 362.376 135.639,362.790 136.053,363.296 136.510 L 364.215 137.341 363.384 136.421 C 362.610 135.565,362.376 135.372,362.376 135.591 M378.218 135.874 C 378.218 135.922,378.632 136.336,379.137 136.793 L 380.057 137.624 379.226 136.704 C 378.451 135.847,378.218 135.655,378.218 135.874 M365.488 139.038 C 366.016 139.583,366.511 140.028,366.589 140.028 C 366.667 140.028,366.299 139.583,365.771 139.038 C 365.243 138.494,364.748 138.048,364.670 138.048 C 364.592 138.048,364.960 138.494,365.488 139.038 M148.798 139.698 C 148.798 139.939,146.871 140.046,141.655 140.094 L 134.512 140.159 141.565 140.240 C 148.152 140.316,149.612 140.183,148.991 139.562 C 148.885 139.455,148.798 139.517,148.798 139.698 M366.902 140.683 C 366.902 140.731,367.316 141.145,367.822 141.602 L 368.741 142.433 367.910 141.513 C 367.136 140.656,366.902 140.464,366.902 140.683 M369.448 143.511 C 369.448 143.560,369.862 143.974,370.368 144.431 L 371.287 145.262 370.456 144.342 C 369.682 143.485,369.448 143.293,369.448 143.511 M372.277 146.676 C 372.805 147.221,373.301 147.666,373.378 147.666 C 373.456 147.666,373.088 147.221,372.560 146.676 C 372.032 146.132,371.537 145.686,371.459 145.686 C 371.381 145.686,371.749 146.132,372.277 146.676 M373.409 148.038 C 373.409 148.086,373.822 148.500,374.328 148.957 L 375.248 149.788 374.417 148.868 C 373.642 148.011,373.409 147.819,373.409 148.038 M32.597 149.081 C 32.597 149.625,32.656 149.848,32.727 149.576 C 32.798 149.303,32.798 148.858,32.727 148.586 C 32.656 148.313,32.597 148.536,32.597 149.081 M126.874 150.212 C 126.633 150.679,126.499 151.061,126.577 151.061 C 126.654 151.061,126.916 150.679,127.157 150.212 C 127.398 149.745,127.532 149.364,127.454 149.364 C 127.377 149.364,127.115 149.745,126.874 150.212 M329.150 150.932 C 329.042 151.654,329.011 152.302,329.082 152.373 C 329.153 152.444,329.299 151.911,329.407 151.189 C 329.515 150.468,329.546 149.820,329.475 149.749 C 329.405 149.678,329.258 150.211,329.150 150.932 M272.136 151.202 C 271.449 151.902,270.950 152.475,271.028 152.475 C 271.106 152.475,271.732 151.902,272.419 151.202 C 273.106 150.502,273.604 149.929,273.527 149.929 C 273.449 149.929,272.823 150.502,272.136 151.202 M376.803 151.768 C 377.331 152.313,377.827 152.758,377.904 152.758 C 377.982 152.758,377.614 152.313,377.086 151.768 C 376.558 151.223,376.063 150.778,375.985 150.778 C 375.907 150.778,376.276 151.223,376.803 151.768 M129.603 152.350 C 129.576 153.284,129.716 153.972,130.007 154.331 C 130.252 154.633,130.349 154.689,130.222 154.455 C 130.095 154.222,129.914 153.331,129.818 152.475 L 129.645 150.919 129.603 152.350 M84.833 154.363 C 85.191 155.068,86.488 156.157,86.955 156.144 C 87.128 156.139,87.016 156.000,86.704 155.835 C 86.393 155.669,85.775 155.132,85.330 154.641 C 84.792 154.048,84.625 153.954,84.833 154.363 M168.034 154.261 C 168.034 154.310,168.448 154.723,168.953 155.180 L 169.873 156.011 169.042 155.092 C 168.267 154.235,168.034 154.043,168.034 154.261 M256.506 155.226 C 257.012 155.289,257.839 155.289,258.345 155.226 C 258.851 155.163,258.437 155.112,257.426 155.112 C 256.414 155.112,256.001 155.163,256.506 155.226 M308.133 155.224 C 308.561 155.289,309.261 155.289,309.689 155.224 C 310.117 155.159,309.767 155.106,308.911 155.106 C 308.055 155.106,307.705 155.159,308.133 155.224 M39.092 156.611 C 39.354 156.689,39.630 157.032,39.704 157.372 C 39.816 157.891,39.831 157.877,39.792 157.287 C 39.760 156.809,39.564 156.564,39.180 156.525 C 38.772 156.484,38.748 156.508,39.092 156.611 M172.174 156.626 C 172.350 156.755,172.565 157.115,172.650 157.426 C 172.773 157.872,172.795 157.847,172.754 157.306 C 172.725 156.930,172.511 156.570,172.277 156.507 C 171.997 156.431,171.962 156.472,172.174 156.626 M231.618 156.641 C 232.126 156.704,232.890 156.702,233.315 156.638 C 233.740 156.573,233.324 156.522,232.390 156.523 C 231.457 156.525,231.109 156.578,231.618 156.641 M282.426 156.851 C 282.338 157.079,282.332 157.429,282.412 157.629 C 282.492 157.828,282.568 157.712,282.580 157.371 C 282.599 156.837,282.792 156.735,283.946 156.644 L 285.290 156.538 283.937 156.487 C 282.974 156.450,282.539 156.555,282.426 156.851 " stroke="none" fill="#747474" fill-rule="evenodd"></path></g></svg>