<svg id="svg" version="1.1" xmlns="http://www.w3.org/2000/svg" xmlns:xlink="http://www.w3.org/1999/xlink" width="400" height="150" viewBox="0, 0, 400,68"><g id="svgg"><path id="path0" d="M3.333 33.667 L 3.333 64.667 9.417 64.667 L 15.500 64.667 15.500 53.098 L 15.500 41.529 23.208 41.457 C 33.756 41.358,36.163 40.864,40.747 37.855 C 50.922 31.177,50.886 13.055,40.684 6.174 C 35.911 2.954,33.987 2.674,16.625 2.670 L 3.333 2.667 3.333 33.667 M60.333 33.659 L 60.333 64.667 66.417 64.667 L 72.500 64.667 72.500 51.750 L 72.500 38.833 76.735 38.833 C 82.895 38.833,84.667 39.276,86.491 41.271 C 88.005 42.928,88.053 43.058,94.483 62.667 L 95.111 64.583 101.374 64.627 L 107.636 64.671 104.422 55.127 C 98.914 38.775,98.600 38.185,93.875 35.267 C 92.693 34.537,92.846 34.208,94.709 33.477 C 101.495 30.811,104.587 26.329,104.580 19.167 C 104.572 10.248,100.030 4.835,91.062 3.059 C 89.734 2.796,88.091 2.760,74.958 2.709 L 60.333 2.651 60.333 33.659 M132.742 3.243 C 132.609 3.562,132.500 3.860,132.500 3.906 C 132.500 3.952,130.093 10.949,127.152 19.453 C 124.210 27.958,119.755 40.842,117.252 48.083 C 114.749 55.325,112.433 62.019,112.106 62.958 L 111.511 64.667 117.751 64.667 L 123.990 64.667 126.341 57.499 L 128.692 50.331 140.698 50.374 L 152.704 50.417 154.685 56.417 C 155.774 59.717,156.818 62.923,157.006 63.542 L 157.347 64.667 163.728 64.667 L 170.109 64.667 169.325 62.375 C 168.136 58.900,163.165 44.502,161.916 40.917 C 161.310 39.175,159.545 34.075,157.994 29.583 C 156.443 25.092,153.723 17.217,151.948 12.083 L 148.722 2.750 140.853 2.707 L 132.984 2.663 132.742 3.243 M172.540 2.873 C 172.620 3.092,180.185 25.434,188.555 50.167 L 193.434 64.583 200.826 64.583 L 208.218 64.583 208.538 63.667 C 209.145 61.928,216.707 39.578,217.504 37.167 C 217.944 35.837,219.167 32.200,220.223 29.083 C 221.279 25.967,223.720 18.747,225.647 13.040 L 229.151 2.663 222.881 2.706 L 216.611 2.750 215.982 4.667 C 215.636 5.721,212.457 15.583,208.917 26.583 C 205.377 37.583,202.310 47.108,202.102 47.750 L 201.722 48.917 201.094 48.917 L 200.466 48.917 198.995 44.417 C 195.297 33.105,189.598 15.642,187.599 9.500 L 185.402 2.750 178.933 2.706 C 173.780 2.672,172.478 2.706,172.540 2.873 M238.667 33.667 L 238.667 64.667 259.583 64.667 L 280.500 64.667 280.500 59.584 L 280.500 54.502 265.625 54.459 L 250.750 54.417 250.750 45.917 L 250.750 37.417 263.458 37.374 L 276.167 37.331 276.167 32.417 L 276.167 27.502 263.458 27.459 L 250.750 27.417 250.707 20.269 C 250.675 15.131,250.716 13.058,250.852 12.894 C 251.009 12.705,253.474 12.667,265.437 12.667 L 279.833 12.667 279.833 7.667 L 279.833 2.667 259.250 2.667 L 238.667 2.667 238.667 33.667 M292.167 33.667 L 292.167 64.667 313.167 64.667 L 334.167 64.667 334.167 59.583 L 334.167 54.500 319.248 54.500 L 304.330 54.500 304.373 45.958 L 304.417 37.417 317.125 37.374 L 329.833 37.331 329.833 32.417 L 329.833 27.502 317.125 27.459 L 304.417 27.417 304.373 20.178 C 304.339 14.497,304.375 12.910,304.540 12.805 C 304.655 12.732,311.219 12.671,319.125 12.669 L 333.500 12.667 333.500 7.667 L 333.500 2.667 312.833 2.667 L 292.167 2.667 292.167 33.667 M345.833 33.665 L 345.833 64.667 351.750 64.667 L 357.667 64.667 357.667 43.333 C 357.667 26.379,357.709 22.000,357.875 21.998 C 357.990 21.996,358.240 21.953,358.432 21.902 C 358.729 21.822,358.954 22.086,359.959 23.696 C 361.150 25.602,372.475 43.941,380.756 57.372 L 385.250 64.660 391.542 64.663 L 397.833 64.667 397.833 33.667 L 397.833 2.667 392.000 2.667 L 386.167 2.667 386.167 22.494 C 386.167 44.587,386.258 42.803,385.131 42.635 C 384.744 42.578,385.184 43.259,375.418 27.583 C 372.048 22.175,368.862 17.075,368.337 16.250 C 367.813 15.425,366.528 13.369,365.483 11.681 C 364.438 9.994,362.751 7.294,361.733 5.681 L 359.883 2.750 352.858 2.707 L 345.833 2.663 345.833 33.665 M29.250 12.500 C 34.839 13.887,37.595 19.948,35.484 26.213 C 33.934 30.814,31.412 31.833,21.572 31.833 L 15.500 31.833 15.500 21.985 L 15.500 12.137 21.958 12.215 C 26.292 12.267,28.691 12.361,29.250 12.500 M87.145 12.547 C 91.045 13.710,92.757 16.244,92.742 20.833 C 92.728 25.189,91.137 27.520,87.333 28.762 C 86.526 29.026,85.585 29.069,79.458 29.127 L 72.500 29.192 72.500 20.667 L 72.500 12.141 79.375 12.210 C 85.047 12.268,86.407 12.327,87.145 12.547 M142.284 18.625 C 146.327 30.922,149.167 39.707,149.167 39.918 C 149.167 40.189,132.269 40.311,132.115 40.042 C 132.062 39.950,139.407 17.022,139.910 15.708 C 139.954 15.592,140.270 15.500,140.623 15.500 L 141.257 15.500 142.284 18.625 " stroke="none" fill="#040404" fill-rule="evenodd"></path><path id="path1" d="M0.000 34.250 L 0.000 68.500 200.000 68.500 L 400.000 68.500 400.000 34.250 L 400.000 0.000 200.000 0.000 L 0.000 0.000 0.000 34.250 M31.979 2.763 C 42.675 4.349,48.823 11.867,48.447 22.897 C 48.177 30.804,44.988 36.091,38.583 39.249 C 34.453 41.286,31.973 41.659,22.542 41.664 L 15.667 41.667 15.667 53.250 L 15.667 64.833 9.417 64.833 L 3.167 64.833 3.167 33.667 L 3.167 2.500 16.687 2.500 C 28.137 2.500,30.479 2.540,31.979 2.763 M91.167 2.877 C 99.651 4.662,104.192 9.557,104.808 17.583 C 105.395 25.236,102.328 30.350,95.333 33.386 C 93.092 34.359,92.943 34.712,94.448 35.478 C 97.104 36.830,99.340 39.837,100.911 44.167 C 101.633 46.157,107.833 64.549,107.833 64.700 C 107.833 64.776,104.940 64.818,101.403 64.794 L 94.974 64.750 94.005 61.833 C 93.472 60.229,92.003 55.767,90.740 51.917 C 86.643 39.424,86.196 39.000,77.132 39.000 L 72.667 39.000 72.667 51.917 L 72.667 64.833 66.417 64.833 L 60.167 64.833 60.167 33.659 L 60.167 2.485 75.042 2.550 C 87.774 2.605,90.097 2.652,91.167 2.877 M150.119 6.167 C 150.805 8.137,152.753 13.762,154.447 18.667 C 156.141 23.571,158.489 30.358,159.664 33.750 C 166.271 52.825,170.227 64.284,170.295 64.542 C 170.368 64.816,169.977 64.833,163.784 64.833 L 157.196 64.833 155.590 59.875 C 154.707 57.148,153.653 53.942,153.248 52.750 L 152.511 50.583 140.682 50.541 L 128.853 50.498 126.504 57.666 L 124.156 64.833 117.744 64.833 C 114.182 64.833,111.333 64.768,111.333 64.687 C 111.333 64.542,111.855 63.005,113.999 56.833 C 114.620 55.046,116.307 50.171,117.747 46.000 C 119.188 41.829,120.875 36.954,121.496 35.167 C 122.117 33.379,123.843 28.392,125.331 24.083 C 126.818 19.775,128.543 14.787,129.163 13.000 C 129.783 11.213,130.783 8.325,131.384 6.583 C 131.985 4.842,132.555 3.210,132.651 2.957 L 132.826 2.497 140.848 2.540 L 148.870 2.583 150.119 6.167 M187.765 9.333 C 189.524 14.715,198.561 42.440,200.232 47.583 C 200.582 48.660,200.647 48.750,201.078 48.750 L 201.546 48.750 203.695 42.083 C 204.876 38.417,206.245 34.179,206.737 32.667 C 207.228 31.154,208.088 28.492,208.647 26.750 C 209.206 25.008,211.189 18.858,213.053 13.083 L 216.441 2.583 222.887 2.540 C 226.776 2.513,229.333 2.558,229.333 2.651 C 229.333 2.795,210.175 59.643,208.939 63.167 L 208.384 64.750 200.822 64.750 L 193.261 64.750 192.478 62.417 C 191.317 58.953,188.239 49.867,184.912 40.083 C 183.290 35.317,181.605 30.329,181.166 29.000 C 180.728 27.671,179.003 22.571,177.334 17.667 C 173.695 6.971,172.333 2.886,172.333 2.663 C 172.333 2.554,174.622 2.511,178.946 2.540 L 185.559 2.583 187.765 9.333 M279.961 7.708 L 279.917 12.917 265.458 12.959 L 251.000 13.002 251.000 20.168 L 251.000 27.333 263.663 27.333 L 276.327 27.333 276.419 27.708 C 276.469 27.915,276.489 30.183,276.463 32.750 L 276.417 37.417 263.708 37.459 L 251.000 37.502 251.000 45.917 L 251.000 54.332 265.792 54.374 L 280.583 54.417 280.627 59.625 L 280.671 64.833 259.586 64.833 L 238.500 64.833 238.500 33.667 L 238.500 2.500 259.252 2.500 L 280.005 2.500 279.961 7.708 M333.627 7.708 L 333.583 12.917 319.125 12.959 L 304.667 13.002 304.667 20.168 L 304.667 27.333 317.333 27.333 L 330.000 27.333 330.000 32.417 L 330.000 37.500 317.333 37.500 L 304.667 37.500 304.667 45.916 L 304.667 54.332 319.458 54.374 L 334.250 54.417 334.294 59.625 L 334.338 64.833 313.169 64.833 L 292.000 64.833 292.000 33.667 L 292.000 2.500 312.836 2.500 L 333.671 2.500 333.627 7.708 M361.497 4.917 C 362.300 6.200,367.848 15.088,373.826 24.667 C 385.628 43.579,384.974 42.584,385.481 42.423 L 385.832 42.311 385.874 22.447 L 385.917 2.583 391.958 2.540 L 398.000 2.496 398.000 33.665 L 398.000 64.833 391.585 64.833 L 385.171 64.833 384.720 64.125 C 384.183 63.281,382.373 60.361,380.251 56.917 C 379.404 55.542,378.129 53.479,377.418 52.333 C 376.707 51.188,375.412 49.087,374.542 47.667 C 373.672 46.246,372.169 43.808,371.202 42.250 C 370.235 40.692,368.982 38.667,368.416 37.750 C 367.851 36.833,366.576 34.771,365.583 33.167 C 363.775 30.246,362.426 28.059,360.698 25.250 C 360.191 24.425,359.556 23.394,359.287 22.958 C 358.886 22.309,358.712 22.167,358.317 22.167 L 357.835 22.167 357.792 43.458 L 357.750 64.750 351.708 64.794 L 345.667 64.837 345.667 33.667 L 345.667 2.496 352.852 2.540 L 360.037 2.583 361.497 4.917 M15.792 12.429 C 15.723 12.499,15.667 16.856,15.667 22.111 L 15.667 31.667 21.792 31.664 C 28.649 31.661,29.431 31.574,31.418 30.596 C 34.289 29.184,35.580 26.861,35.781 22.746 C 36.055 17.137,33.877 13.803,29.235 12.727 C 27.989 12.437,16.044 12.173,15.792 12.429 M72.792 12.429 C 72.723 12.499,72.667 16.256,72.667 20.778 L 72.667 29.000 78.924 29.000 C 85.561 29.000,86.703 28.898,88.462 28.150 C 91.523 26.848,92.901 23.846,92.487 19.386 C 92.146 15.720,90.401 13.618,86.960 12.727 C 85.834 12.435,73.052 12.167,72.792 12.429 M139.776 16.782 C 135.398 30.221,132.333 39.714,132.333 39.841 C 132.333 39.940,135.479 40.000,140.667 40.000 C 145.250 40.000,149.000 39.973,149.000 39.940 C 149.000 39.908,148.170 37.339,147.156 34.232 C 146.141 31.125,144.947 27.458,144.502 26.083 C 141.071 15.491,141.106 15.587,140.638 15.532 C 140.228 15.484,140.173 15.564,139.776 16.782 " stroke="none" fill="#fbfbfb" fill-rule="evenodd"></path><path id="path2" d="M9.779 2.625 C 13.370 2.650,19.295 2.650,22.946 2.625 C 26.597 2.600,23.658 2.579,16.417 2.579 C 9.175 2.579,6.188 2.600,9.779 2.625 M60.244 2.708 C 60.200 2.823,60.184 16.829,60.208 33.833 L 60.251 64.750 60.292 33.709 L 60.333 2.669 73.958 2.625 L 87.583 2.581 73.953 2.541 C 63.172 2.509,60.306 2.544,60.244 2.708 M132.942 2.625 C 132.900 2.694,136.451 2.750,140.833 2.750 C 145.216 2.750,148.767 2.694,148.724 2.625 C 148.623 2.462,133.043 2.462,132.942 2.625 M174.667 2.619 C 180.357 2.736,185.462 2.739,185.391 2.625 C 185.349 2.556,182.412 2.516,178.865 2.537 C 175.318 2.557,173.429 2.594,174.667 2.619 M216.609 2.625 C 216.538 2.739,221.287 2.736,227.000 2.619 C 228.237 2.594,226.423 2.557,222.968 2.537 C 219.513 2.516,216.651 2.556,216.609 2.625 M238.577 2.708 C 238.534 2.823,238.517 16.829,238.541 33.833 L 238.583 64.750 259.583 64.750 L 280.583 64.750 280.587 59.583 L 280.591 54.417 280.543 59.542 L 280.495 64.667 259.581 64.667 L 238.667 64.667 238.667 33.667 L 238.667 2.667 259.250 2.667 L 279.833 2.667 279.833 7.666 L 279.833 12.665 265.417 12.709 L 251.000 12.753 265.458 12.751 L 279.917 12.750 279.917 7.667 L 279.917 2.583 259.287 2.541 C 242.870 2.507,238.640 2.541,238.577 2.708 M302.458 2.625 C 308.165 2.649,317.502 2.649,323.208 2.625 C 328.915 2.601,324.246 2.581,312.833 2.581 C 301.421 2.581,296.752 2.601,302.458 2.625 M352.735 2.625 C 357.978 2.659,359.786 2.722,359.985 2.877 C 360.219 3.059,360.224 3.050,360.021 2.792 C 359.809 2.521,359.288 2.503,352.771 2.540 L 345.750 2.580 352.735 2.625 M386.077 2.708 C 386.033 2.823,386.017 11.804,386.041 22.667 L 386.085 42.417 386.126 22.544 L 386.167 2.671 392.042 2.625 L 397.917 2.579 392.036 2.539 C 387.456 2.509,386.139 2.546,386.077 2.708 M88.542 2.782 C 88.702 2.823,88.965 2.823,89.125 2.782 C 89.285 2.740,89.154 2.705,88.833 2.705 C 88.513 2.705,88.381 2.740,88.542 2.782 M100.333 7.583 C 100.831 8.087,101.276 8.500,101.322 8.500 C 101.368 8.500,100.998 8.087,100.500 7.583 C 100.002 7.079,99.557 6.667,99.511 6.667 C 99.466 6.667,99.835 7.079,100.333 7.583 M43.160 8.208 C 43.850 8.944,44.000 9.077,44.000 8.951 C 44.000 8.925,43.644 8.568,43.208 8.160 L 42.417 7.417 43.160 8.208 M102.833 11.000 C 103.020 11.367,103.211 11.667,103.257 11.667 C 103.303 11.667,103.187 11.367,103.000 11.000 C 102.813 10.633,102.622 10.333,102.577 10.333 C 102.531 10.333,102.646 10.633,102.833 11.000 M26.125 12.284 C 26.331 12.324,26.669 12.324,26.875 12.284 C 27.081 12.245,26.912 12.212,26.500 12.212 C 26.087 12.212,25.919 12.245,26.125 12.284 M84.125 12.284 C 84.331 12.324,84.669 12.324,84.875 12.284 C 85.081 12.245,84.912 12.212,84.500 12.212 C 84.087 12.212,83.919 12.245,84.125 12.284 M311.888 12.792 C 315.905 12.817,322.430 12.816,326.388 12.792 C 330.345 12.767,327.058 12.746,319.083 12.746 C 311.108 12.746,307.870 12.767,311.888 12.792 M304.414 20.083 L 304.417 27.417 317.083 27.418 L 329.750 27.420 317.127 27.376 L 304.504 27.331 304.457 20.041 L 304.411 12.750 304.414 20.083 M250.747 20.167 L 250.750 27.417 263.456 27.459 L 276.162 27.502 276.210 32.459 L 276.258 37.417 276.254 32.417 L 276.250 27.417 263.543 27.374 L 250.837 27.331 250.791 20.124 L 250.745 12.917 250.747 20.167 M104.723 19.500 C 104.723 20.188,104.752 20.469,104.788 20.125 C 104.824 19.781,104.824 19.219,104.788 18.875 C 104.752 18.531,104.723 18.813,104.723 19.500 M48.205 19.667 C 48.205 19.987,48.240 20.119,48.282 19.958 C 48.323 19.798,48.323 19.535,48.282 19.375 C 48.240 19.215,48.205 19.346,48.205 19.667 M92.724 20.750 C 92.724 21.483,92.754 21.763,92.789 21.371 C 92.824 20.979,92.824 20.379,92.788 20.037 C 92.752 19.696,92.723 20.017,92.724 20.750 M104.539 21.667 C 104.539 21.988,104.573 22.119,104.615 21.958 C 104.657 21.798,104.657 21.535,104.615 21.375 C 104.573 21.215,104.539 21.346,104.539 21.667 M48.205 24.500 C 48.205 24.821,48.240 24.952,48.282 24.792 C 48.323 24.631,48.323 24.369,48.282 24.208 C 48.240 24.048,48.205 24.179,48.205 24.500 M90.575 26.875 L 89.917 27.583 90.625 26.925 C 91.015 26.562,91.333 26.243,91.333 26.216 C 91.333 26.090,91.188 26.216,90.575 26.875 M33.500 29.250 C 33.095 29.662,32.801 30.000,32.847 30.000 C 32.893 30.000,33.262 29.662,33.667 29.250 C 34.072 28.837,34.365 28.500,34.319 28.500 C 34.274 28.500,33.905 28.837,33.500 29.250 M100.744 29.708 L 99.917 30.583 100.792 29.756 C 101.605 28.988,101.743 28.833,101.619 28.833 C 101.592 28.833,101.199 29.227,100.744 29.708 M93.367 34.033 C 93.257 34.143,93.175 34.387,93.186 34.575 C 93.205 34.910,93.207 34.910,93.287 34.583 C 93.332 34.400,93.445 34.156,93.538 34.042 C 93.754 33.776,93.630 33.770,93.367 34.033 M250.743 37.542 C 250.699 37.656,250.683 41.500,250.708 46.083 L 250.753 54.417 250.793 45.959 L 250.833 37.502 263.458 37.458 L 276.083 37.415 263.453 37.374 C 253.472 37.342,250.806 37.377,250.743 37.542 M304.410 37.542 C 304.366 37.656,304.350 41.537,304.375 46.167 L 304.420 54.583 304.460 46.043 L 304.500 37.502 317.125 37.458 L 329.750 37.415 317.120 37.374 C 307.139 37.342,304.473 37.377,304.410 37.542 M98.917 40.333 C 99.059 40.608,99.213 40.833,99.259 40.833 C 99.304 40.833,99.226 40.608,99.083 40.333 C 98.941 40.058,98.787 39.833,98.741 39.833 C 98.696 39.833,98.774 40.058,98.917 40.333 M140.574 50.458 C 149.901 50.492,152.598 50.548,152.712 50.709 C 152.820 50.862,152.841 50.851,152.790 50.667 C 152.731 50.447,151.239 50.416,140.653 50.415 L 128.583 50.413 140.574 50.458 M193.442 64.708 C 193.485 64.777,196.811 64.833,200.833 64.833 C 204.856 64.833,208.182 64.777,208.224 64.708 C 208.267 64.640,204.941 64.583,200.833 64.583 C 196.726 64.583,193.400 64.640,193.442 64.708 M6.458 64.791 C 8.131 64.819,10.869 64.819,12.542 64.791 C 14.215 64.764,12.846 64.742,9.500 64.742 C 6.154 64.742,4.785 64.764,6.458 64.791 M63.469 64.791 C 65.148 64.819,67.848 64.819,69.469 64.791 C 71.090 64.764,69.717 64.742,66.417 64.742 C 63.117 64.742,61.790 64.764,63.469 64.791 M98.375 64.791 C 100.094 64.819,102.906 64.819,104.625 64.791 C 106.344 64.764,104.938 64.742,101.500 64.742 C 98.063 64.742,96.656 64.764,98.375 64.791 M114.542 64.791 C 116.260 64.819,119.073 64.819,120.792 64.791 C 122.510 64.764,121.104 64.742,117.667 64.742 C 114.229 64.742,112.823 64.764,114.542 64.791 M160.636 64.791 C 162.407 64.819,165.257 64.818,166.969 64.791 C 168.682 64.764,167.233 64.742,163.750 64.742 C 160.267 64.742,158.865 64.764,160.636 64.791 M302.708 64.792 C 308.460 64.816,317.873 64.816,323.625 64.792 C 329.377 64.767,324.671 64.747,313.167 64.747 C 301.662 64.747,296.956 64.767,302.708 64.792 M348.781 64.791 C 350.356 64.819,352.981 64.819,354.614 64.791 C 356.247 64.764,354.958 64.742,351.750 64.742 C 348.542 64.742,347.206 64.764,348.781 64.791 M388.375 64.791 C 390.094 64.819,392.906 64.819,394.625 64.791 C 396.344 64.764,394.938 64.742,391.500 64.742 C 388.063 64.742,386.656 64.764,388.375 64.791 " stroke="none" fill="#747474" fill-rule="evenodd"></path><path id="path3" d="M3.207 33.615 C 3.185 50.683,3.223 64.682,3.292 64.724 C 3.405 64.794,3.404 43.442,3.290 13.750 C 3.267 7.608,3.229 16.548,3.207 33.615 M18.292 12.291 C 19.690 12.319,21.977 12.319,23.375 12.291 C 24.773 12.263,23.629 12.241,20.833 12.241 C 18.037 12.241,16.894 12.263,18.292 12.291 M75.542 12.291 C 77.077 12.319,79.590 12.319,81.125 12.291 C 82.660 12.264,81.404 12.241,78.333 12.241 C 75.262 12.241,74.006 12.264,75.542 12.291 M329.833 32.534 C 329.787 35.256,329.807 37.426,329.878 37.356 C 329.948 37.286,329.985 35.058,329.961 32.406 L 329.916 27.583 329.833 32.534 M43.158 35.958 L 42.583 36.583 43.208 36.009 C 43.790 35.474,43.910 35.333,43.783 35.333 C 43.755 35.333,43.474 35.615,43.158 35.958 M136.458 40.125 C 138.773 40.151,142.560 40.151,144.875 40.125 C 147.190 40.099,145.296 40.077,140.667 40.077 C 136.037 40.077,134.144 40.099,136.458 40.125 " stroke="none" fill="#7c7c7c" fill-rule="evenodd"></path><path id="path4" d="M292.082 33.667 C 292.082 50.854,292.101 57.885,292.125 49.292 C 292.149 40.698,292.149 26.635,292.125 18.042 C 292.101 9.448,292.082 16.479,292.082 33.667 M333.539 7.625 L 333.500 12.833 319.000 12.833 L 304.500 12.833 304.540 20.125 L 304.580 27.417 304.625 20.208 L 304.670 13.000 319.090 13.000 C 330.536 13.000,333.527 12.957,333.591 12.790 C 333.635 12.674,333.651 10.293,333.625 7.498 L 333.578 2.417 333.539 7.625 M345.712 3.167 C 345.712 3.579,345.745 3.748,345.784 3.542 C 345.824 3.335,345.824 2.998,345.784 2.792 C 345.745 2.585,345.712 2.754,345.712 3.167 M397.915 33.667 C 397.915 50.854,397.934 57.885,397.958 49.292 C 397.982 40.698,397.982 26.635,397.958 18.042 C 397.934 9.448,397.915 16.479,397.915 33.667 M385.833 22.486 C 385.833 38.186,385.790 42.323,385.625 42.390 C 385.501 42.440,385.534 42.479,385.708 42.487 C 385.985 42.499,386.000 41.445,386.000 22.583 C 386.000 11.629,385.962 2.667,385.917 2.667 C 385.871 2.667,385.833 11.585,385.833 22.486 M345.720 5.000 C 345.720 5.596,345.750 5.840,345.787 5.542 C 345.824 5.244,345.824 4.756,345.787 4.458 C 345.750 4.160,345.720 4.404,345.720 5.000 M345.712 6.833 C 345.712 7.246,345.745 7.415,345.784 7.208 C 345.824 7.002,345.824 6.665,345.784 6.458 C 345.745 6.252,345.712 6.421,345.712 6.833 M100.417 7.500 C 100.868 7.958,101.275 8.333,101.321 8.333 C 101.367 8.333,101.035 7.958,100.583 7.500 C 100.132 7.042,99.725 6.667,99.679 6.667 C 99.633 6.667,99.965 7.042,100.417 7.500 M43.250 8.167 C 43.701 8.625,44.108 9.000,44.154 9.000 C 44.200 9.000,43.868 8.625,43.417 8.167 C 42.965 7.708,42.558 7.333,42.513 7.333 C 42.467 7.333,42.799 7.708,43.250 8.167 M345.717 8.833 C 345.717 9.337,345.748 9.544,345.786 9.292 C 345.824 9.040,345.824 8.627,345.786 8.375 C 345.748 8.123,345.717 8.329,345.717 8.833 M345.720 10.833 C 345.720 11.429,345.750 11.673,345.787 11.375 C 345.824 11.077,345.824 10.590,345.787 10.292 C 345.750 9.994,345.720 10.237,345.720 10.833 M129.685 11.352 C 129.583 11.646,129.528 11.917,129.563 11.952 C 129.599 11.988,129.712 11.776,129.815 11.481 C 129.917 11.187,129.972 10.917,129.937 10.881 C 129.901 10.845,129.788 11.057,129.685 11.352 M345.717 12.833 C 345.717 13.338,345.748 13.544,345.786 13.292 C 345.824 13.040,345.824 12.627,345.786 12.375 C 345.748 12.123,345.717 12.329,345.717 12.833 M15.576 12.542 C 15.533 12.656,15.516 17.025,15.540 22.250 L 15.583 31.750 21.250 31.753 L 26.917 31.757 21.289 31.710 L 15.661 31.662 15.706 21.998 C 15.730 16.682,15.729 12.333,15.703 12.333 C 15.677 12.333,15.620 12.427,15.576 12.542 M26.958 12.451 C 27.165 12.491,27.502 12.491,27.708 12.451 C 27.915 12.411,27.746 12.379,27.333 12.379 C 26.921 12.379,26.752 12.411,26.958 12.451 M72.576 12.542 C 72.532 12.656,72.516 16.387,72.540 20.833 L 72.583 28.917 72.667 20.625 C 72.713 16.065,72.729 12.333,72.703 12.333 C 72.677 12.333,72.620 12.427,72.576 12.542 M84.792 12.451 C 84.998 12.491,85.335 12.491,85.542 12.451 C 85.748 12.411,85.579 12.379,85.167 12.379 C 84.754 12.379,84.585 12.411,84.792 12.451 M265.417 12.832 L 250.917 12.917 250.914 20.125 L 250.911 27.333 250.957 20.167 L 251.004 13.000 265.409 13.000 C 274.832 13.000,279.849 12.942,279.917 12.833 C 279.973 12.742,279.996 12.685,279.968 12.707 C 279.940 12.729,273.392 12.785,265.417 12.832 M345.717 14.667 C 345.717 15.171,345.748 15.377,345.786 15.125 C 345.824 14.873,345.824 14.460,345.786 14.208 C 345.748 13.956,345.717 14.162,345.717 14.667 M90.000 14.052 C 90.000 14.081,90.244 14.325,90.542 14.594 L 91.083 15.083 90.594 14.542 C 90.138 14.037,90.000 13.923,90.000 14.052 M345.720 16.667 C 345.720 17.262,345.750 17.506,345.787 17.208 C 345.824 16.910,345.824 16.423,345.787 16.125 C 345.750 15.827,345.720 16.071,345.720 16.667 M345.717 18.667 C 345.717 19.171,345.748 19.377,345.786 19.125 C 345.824 18.873,345.824 18.460,345.786 18.208 C 345.748 17.956,345.717 18.162,345.717 18.667 M92.545 19.833 C 92.545 20.246,92.578 20.415,92.618 20.208 C 92.657 20.002,92.657 19.665,92.618 19.458 C 92.578 19.252,92.545 19.421,92.545 19.833 M48.389 20.500 C 48.389 21.188,48.419 21.469,48.455 21.125 C 48.491 20.781,48.491 20.219,48.455 19.875 C 48.419 19.531,48.389 19.813,48.389 20.500 M345.717 20.500 C 345.717 21.004,345.748 21.210,345.786 20.958 C 345.824 20.706,345.824 20.294,345.786 20.042 C 345.748 19.790,345.717 19.996,345.717 20.500 M35.892 22.083 C 35.892 22.908,35.920 23.267,35.955 22.880 C 35.990 22.493,35.990 21.818,35.956 21.380 C 35.922 20.942,35.893 21.258,35.892 22.083 M92.542 21.750 C 92.544 22.117,92.578 22.247,92.618 22.040 C 92.658 21.832,92.656 21.532,92.615 21.373 C 92.573 21.214,92.540 21.383,92.542 21.750 M345.720 22.500 C 345.720 23.096,345.750 23.340,345.787 23.042 C 345.824 22.744,345.824 22.256,345.787 21.958 C 345.750 21.660,345.720 21.904,345.720 22.500 M357.744 22.208 C 357.700 22.323,357.684 31.942,357.708 43.583 L 357.751 64.750 357.792 43.440 L 357.833 22.130 358.405 22.197 C 358.719 22.234,358.940 22.204,358.895 22.132 C 358.764 21.919,357.830 21.981,357.744 22.208 M48.388 23.583 C 48.389 24.225,48.419 24.467,48.455 24.121 C 48.491 23.775,48.490 23.250,48.454 22.955 C 48.417 22.659,48.387 22.942,48.388 23.583 M345.717 24.500 C 345.717 25.004,345.748 25.210,345.786 24.958 C 345.824 24.706,345.824 24.294,345.786 24.042 C 345.748 23.790,345.717 23.996,345.717 24.500 M345.717 26.333 C 345.717 26.837,345.748 27.044,345.786 26.792 C 345.824 26.540,345.824 26.127,345.786 25.875 C 345.748 25.623,345.717 25.829,345.717 26.333 M345.720 28.333 C 345.720 28.929,345.750 29.173,345.787 28.875 C 345.824 28.577,345.824 28.090,345.787 27.792 C 345.750 27.494,345.720 27.738,345.720 28.333 M145.020 27.667 C 145.017 27.804,145.118 28.142,145.244 28.417 C 145.539 29.060,145.543 28.761,145.250 28.000 C 145.126 27.679,145.023 27.529,145.020 27.667 M276.333 32.534 C 276.287 35.256,276.307 37.426,276.378 37.356 C 276.448 37.286,276.485 35.058,276.461 32.406 L 276.416 27.583 276.333 32.534 M75.542 29.125 C 77.077 29.152,79.590 29.152,81.125 29.125 C 82.660 29.097,81.404 29.075,78.333 29.075 C 75.262 29.075,74.006 29.097,75.542 29.125 M100.833 29.750 C 100.428 30.162,100.135 30.500,100.181 30.500 C 100.226 30.500,100.595 30.162,101.000 29.750 C 101.405 29.337,101.699 29.000,101.653 29.000 C 101.607 29.000,101.238 29.337,100.833 29.750 M345.717 30.333 C 345.717 30.837,345.748 31.044,345.786 30.792 C 345.824 30.540,345.824 30.127,345.786 29.875 C 345.748 29.623,345.717 29.829,345.717 30.333 M181.762 30.833 C 181.824 31.063,181.943 31.363,182.028 31.500 C 182.135 31.674,182.149 31.623,182.071 31.333 C 182.010 31.104,181.890 30.804,181.805 30.667 C 181.698 30.493,181.685 30.544,181.762 30.833 M134.762 31.762 C 134.701 32.006,134.683 32.238,134.722 32.277 C 134.761 32.317,134.843 32.149,134.905 31.905 C 134.966 31.661,134.984 31.429,134.945 31.389 C 134.906 31.350,134.823 31.518,134.762 31.762 M345.712 32.333 C 345.712 32.746,345.745 32.915,345.784 32.708 C 345.824 32.502,345.824 32.165,345.784 31.958 C 345.745 31.752,345.712 31.921,345.712 32.333 M206.682 32.682 C 206.569 33.058,206.508 33.396,206.545 33.434 C 206.583 33.471,206.705 33.194,206.818 32.818 C 206.931 32.442,206.992 32.104,206.955 32.066 C 206.917 32.029,206.795 32.306,206.682 32.682 M345.720 34.167 C 345.720 34.762,345.750 35.006,345.787 34.708 C 345.824 34.410,345.824 33.923,345.787 33.625 C 345.750 33.327,345.720 33.571,345.720 34.167 M93.397 34.240 C 93.347 34.372,93.335 34.616,93.370 34.782 C 93.411 34.970,93.468 34.880,93.522 34.542 C 93.613 33.974,93.554 33.832,93.397 34.240 M345.717 36.167 C 345.717 36.671,345.748 36.877,345.786 36.625 C 345.824 36.373,345.824 35.960,345.786 35.708 C 345.748 35.456,345.717 35.662,345.717 36.167 M250.914 46.000 L 250.917 54.417 265.708 54.418 L 280.500 54.419 265.752 54.375 L 251.003 54.332 250.958 45.957 L 250.912 37.583 250.914 46.000 M304.540 45.958 L 304.500 54.500 319.331 54.500 L 334.162 54.500 334.210 59.667 L 334.257 64.833 334.254 59.625 L 334.250 54.417 319.460 54.374 L 304.670 54.332 304.625 45.874 L 304.580 37.417 304.540 45.958 M345.712 38.167 C 345.712 38.579,345.745 38.748,345.784 38.542 C 345.824 38.335,345.824 37.998,345.784 37.792 C 345.745 37.585,345.712 37.754,345.712 38.167 M72.577 39.042 C 72.533 39.156,72.517 45.025,72.541 52.083 L 72.585 64.917 72.626 51.961 L 72.667 39.006 76.708 38.958 L 80.750 38.910 76.703 38.872 C 73.590 38.842,72.638 38.881,72.577 39.042 M345.720 40.000 C 345.720 40.596,345.750 40.840,345.787 40.542 C 345.824 40.244,345.824 39.756,345.787 39.458 C 345.750 39.160,345.720 39.404,345.720 40.000 M345.717 42.000 C 345.717 42.504,345.748 42.710,345.786 42.458 C 345.824 42.206,345.824 41.794,345.786 41.542 C 345.748 41.290,345.717 41.496,345.717 42.000 M19.220 41.625 C 21.220 41.651,24.445 41.651,26.386 41.625 C 28.328 41.598,26.692 41.576,22.750 41.576 C 18.808 41.576,17.220 41.598,19.220 41.625 M15.579 53.333 C 15.579 59.704,15.600 62.310,15.625 59.125 C 15.650 55.940,15.650 50.727,15.625 47.542 C 15.600 44.356,15.579 46.962,15.579 53.333 M345.712 44.000 C 345.712 44.413,345.745 44.581,345.784 44.375 C 345.824 44.169,345.824 43.831,345.784 43.625 C 345.745 43.419,345.712 43.587,345.712 44.000 M345.720 45.833 C 345.720 46.429,345.750 46.673,345.787 46.375 C 345.824 46.077,345.824 45.590,345.787 45.292 C 345.750 44.994,345.720 45.237,345.720 45.833 M89.192 47.167 C 89.192 47.304,89.293 47.679,89.417 48.000 C 89.540 48.321,89.641 48.471,89.641 48.333 C 89.641 48.196,89.540 47.821,89.417 47.500 C 89.293 47.179,89.192 47.029,89.192 47.167 M345.712 48.000 C 345.712 48.413,345.745 48.581,345.784 48.375 C 345.824 48.169,345.824 47.831,345.784 47.625 C 345.745 47.419,345.712 47.587,345.712 48.000 M345.729 50.917 C 345.729 51.925,345.757 52.316,345.790 51.786 C 345.823 51.255,345.823 50.430,345.789 49.952 C 345.756 49.474,345.729 49.908,345.729 50.917 M152.692 51.000 C 152.692 51.137,152.793 51.512,152.917 51.833 C 153.040 52.154,153.141 52.304,153.141 52.167 C 153.141 52.029,153.040 51.654,152.917 51.333 C 152.793 51.012,152.692 50.862,152.692 51.000 M189.262 53.000 C 189.324 53.229,189.443 53.529,189.528 53.667 C 189.635 53.840,189.649 53.790,189.571 53.500 C 189.510 53.271,189.390 52.971,189.305 52.833 C 189.198 52.660,189.185 52.710,189.262 53.000 M345.712 53.833 C 345.712 54.246,345.745 54.415,345.784 54.208 C 345.824 54.002,345.824 53.665,345.784 53.458 C 345.745 53.252,345.712 53.421,345.712 53.833 M345.729 56.750 C 345.729 57.758,345.757 58.149,345.790 57.619 C 345.823 57.088,345.823 56.263,345.789 55.786 C 345.756 55.308,345.729 55.742,345.729 56.750 M114.352 55.685 C 114.249 55.980,114.194 56.250,114.230 56.286 C 114.266 56.321,114.379 56.109,114.481 55.815 C 114.584 55.520,114.639 55.250,114.603 55.214 C 114.568 55.179,114.455 55.391,114.352 55.685 M345.712 59.667 C 345.712 60.079,345.745 60.248,345.784 60.042 C 345.824 59.835,345.824 59.498,345.784 59.292 C 345.745 59.085,345.712 59.254,345.712 59.667 M345.729 62.583 C 345.729 63.592,345.757 63.983,345.790 63.452 C 345.823 62.922,345.823 62.097,345.789 61.619 C 345.756 61.141,345.729 61.575,345.729 62.583 " stroke="none" fill="#a5a5a5" fill-rule="evenodd"></path></g></svg>