<svg width="104" height="16" viewBox="0 0 144 16" fill="none" xmlns="http://www.w3.org/2000/svg">
<g style="mix-blend-mode:darken">
<path d="M5.192 10.128H4.088V15H0.0560001V0.0959988H4.928C6.64 0.0959988 7.912 0.487999 8.744 1.272C9.576 2.056 9.992 3.344 9.992 5.136C9.992 6.928 9.6 8.208 8.816 8.976C8.032 9.744 6.824 10.128 5.192 10.128ZM5.648 6.888C5.792 6.616 5.864 6.128 5.864 5.424C5.864 4.72 5.784 4.224 5.624 3.936C5.464 3.648 5.144 3.504 4.664 3.504H4.088V7.296H4.76C5.208 7.296 5.504 7.16 5.648 6.888ZM21.3888 4.824C21.3888 5.72 21.2528 6.464 20.9808 7.056C20.7088 7.648 20.2848 8.184 19.7088 8.664L21.7008 15H17.2608L15.7728 9.624H15.2208V15H11.1888V0.0959988H16.7568C18.3568 0.0959988 19.5248 0.471999 20.2608 1.224C21.0128 1.976 21.3888 3.176 21.3888 4.824ZM15.8448 7.104C16.2608 7.104 16.5568 6.984 16.7328 6.744C16.9088 6.504 16.9968 6.072 16.9968 5.448C16.9968 4.808 16.9088 4.368 16.7328 4.128C16.5568 3.872 16.2688 3.744 15.8688 3.744H15.2208V7.104H15.8448ZM33.7522 15H29.7442L29.2882 12.648H26.4562L26.0002 15H22.1842L24.9202 0.0959988H31.0162L33.7522 15ZM28.8322 9.84L27.9922 4.512H27.8242L26.9842 9.84H28.8322ZM45.7773 0.0959988L43.2573 15H36.9213L34.2333 0.0959988H38.7693L40.0653 9.864H40.4733L41.4573 0.0959988H45.7773ZM55.1825 15H47.1185V0.0959988H55.4225L55.1825 3.768H51.2225V6H54.6545V9.168H51.2225V11.64H55.4225L55.1825 15ZM64.8856 15H56.8216V0.0959988H65.1256L64.8856 3.768H60.9256V6H64.3576V9.168H60.9256V11.64H65.1256L64.8856 15ZM77.3968 15H73.4608L70.3648 8.064H70.1728V15H66.5248V0.0959988H70.5808L73.5328 7.248H73.7248V0.0959988H77.3968V15ZM90.0691 15H85.5331L83.7331 9.384H83.4931V15H79.5091V0.0959988H83.4931V6.336H83.7331L85.8931 0.0959988H90.3091L87.4051 7.8L90.0691 15ZM95.3576 10.104C95.3576 10.6 95.4616 10.968 95.6696 11.208C95.8776 11.448 96.2136 11.568 96.6776 11.568C97.1576 11.568 97.4856 11.456 97.6616 11.232C97.8536 10.992 97.9496 10.608 97.9496 10.08V0.0959988H102.078V10.32C102.078 12.032 101.606 13.28 100.662 14.064C99.7336 14.848 98.3576 15.24 96.5336 15.24C94.7256 15.24 93.3736 14.856 92.4776 14.088C91.5976 13.304 91.1576 12.064 91.1576 10.368V0.0959988H95.3576V10.104ZM118.613 15H114.845V7.224H114.629L113.213 15H109.349L108.005 7.224H107.765V15H104.045L104.549 0.0959988H109.949L111.293 8.16H111.485L112.781 0.0959988H118.109L118.613 15ZM131.276 15H127.268L126.812 12.648H123.98L123.524 15H119.708L122.444 0.0959988H128.54L131.276 15ZM126.356 9.84L125.516 4.512H125.348L124.508 9.84H126.356ZM142.725 4.824C142.725 5.72 142.589 6.464 142.317 7.056C142.045 7.648 141.621 8.184 141.045 8.664L143.037 15H138.597L137.109 9.624H136.557V15H132.525V0.0959988H138.093C139.693 0.0959988 140.861 0.471999 141.597 1.224C142.349 1.976 142.725 3.176 142.725 4.824ZM137.181 7.104C137.597 7.104 137.893 6.984 138.069 6.744C138.245 6.504 138.333 6.072 138.333 5.448C138.333 4.808 138.245 4.368 138.069 4.128C137.893 3.872 137.605 3.744 137.205 3.744H136.557V7.104H137.181Z" fill="url(#paint0_linear_2_52)"/>
</g>
<defs>
<linearGradient id="paint0_linear_2_52" x1="-1" y1="-0.5" x2="153" y2="-0.5" gradientUnits="userSpaceOnUse">
<stop stop-color="#1C1B1A"/>
<stop offset="1" stop-color="#AE1AEE"/>
</linearGradient>
</defs>
</svg>
