<svg id="svg" version="1.1" xmlns="http://www.w3.org/2000/svg" xmlns:xlink="http://www.w3.org/1999/xlink" width="400" height="400" viewBox="0, 0, 400,400"><g id="svgg"><path id="path0" d="M96.985 23.700 C 96.881 23.975,96.841 103.490,96.898 200.400 L 97.000 376.600 132.000 376.600 L 167.000 376.600 167.203 308.800 C 167.314 271.510,167.449 240.955,167.503 240.900 C 167.556 240.845,181.505 240.802,198.500 240.804 C 238.435 240.810,245.684 240.442,262.400 237.559 C 269.029 236.416,272.485 235.622,278.200 233.928 C 302.424 226.747,323.915 211.584,336.421 192.851 C 342.629 183.551,349.573 167.446,351.361 158.200 C 351.489 157.540,351.787 156.100,352.023 155.000 C 354.985 141.231,355.017 123.982,352.108 109.600 C 351.774 107.950,351.414 106.150,351.308 105.600 C 350.606 101.954,347.497 92.338,345.812 88.600 C 338.260 71.842,330.648 61.568,318.200 51.330 C 306.105 41.384,287.861 32.417,272.400 28.821 C 271.630 28.642,269.290 28.099,267.200 27.614 C 265.110 27.129,262.410 26.577,261.200 26.387 C 259.990 26.197,257.380 25.783,255.400 25.467 C 242.564 23.419,233.398 23.200,160.603 23.200 C 110.228 23.200,97.136 23.303,96.985 23.700 M235.600 81.386 C 268.298 85.435,283.425 103.529,281.761 136.600 C 280.725 157.175,269.428 174.275,253.600 179.225 C 253.050 179.397,251.558 179.916,250.285 180.377 C 247.442 181.409,241.258 182.676,235.400 183.428 C 228.465 184.318,167.787 184.264,167.443 183.367 C 167.125 182.540,167.125 82.260,167.443 81.433 C 167.788 80.533,228.378 80.492,235.600 81.386 " stroke="none" fill="#fbfbfb" fill-rule="evenodd"></path><path id="path1" d="M0.000 200.000 L 0.000 400.000 200.000 400.000 L 400.000 400.000 400.000 200.000 L 400.000 0.000 200.000 0.000 L 0.000 0.000 0.000 200.000 M244.000 23.412 C 306.017 29.009,344.963 60.997,353.561 113.400 C 355.460 124.975,355.094 145.338,352.813 155.000 C 352.605 155.880,352.159 157.770,351.821 159.200 C 350.644 164.182,349.082 168.930,346.482 175.424 C 333.807 207.083,304.163 230.133,266.600 237.535 C 249.405 240.924,243.835 241.275,202.800 241.560 L 168.200 241.800 168.000 309.400 L 167.800 377.000 132.200 377.000 L 96.600 377.000 96.498 200.400 C 96.441 103.270,96.481 23.575,96.585 23.300 C 96.891 22.493,234.979 22.598,244.000 23.412 M168.195 82.074 C 168.084 82.363,168.041 105.190,168.097 132.800 L 168.200 183.000 202.000 183.000 C 238.732 183.000,236.883 183.094,246.400 180.752 C 268.764 175.249,281.213 157.995,281.197 132.523 C 281.178 103.957,268.274 88.090,240.710 82.740 C 235.068 81.645,168.591 81.034,168.195 82.074 " stroke="none" fill="#140c6c" fill-rule="evenodd"></path><path id="path2" d="M96.585 23.300 C 96.481 23.575,96.441 103.270,96.498 200.400 L 96.600 377.000 131.978 377.102 C 151.436 377.158,167.492 377.068,167.658 376.902 C 167.824 376.736,151.949 376.647,132.380 376.704 L 96.800 376.809 96.800 200.005 L 96.800 23.202 168.100 23.100 L 239.400 22.998 168.087 22.899 C 111.332 22.820,96.736 22.902,96.585 23.300 M240.900 23.487 C 241.505 23.578,242.495 23.578,243.100 23.487 C 243.705 23.395,243.210 23.320,242.000 23.320 C 240.790 23.320,240.295 23.395,240.900 23.487 M245.500 23.889 C 246.215 23.978,247.385 23.978,248.100 23.889 C 248.815 23.801,248.230 23.728,246.800 23.728 C 245.370 23.728,244.785 23.801,245.500 23.889 M250.600 24.394 C 251.813 24.709,255.875 24.922,255.567 24.656 C 255.475 24.576,254.050 24.415,252.400 24.297 C 250.642 24.172,249.897 24.212,250.600 24.394 M256.600 25.197 C 257.364 25.528,260.314 25.755,259.967 25.456 C 259.875 25.377,258.900 25.209,257.800 25.082 C 256.513 24.933,256.085 24.974,256.600 25.197 M261.200 25.980 C 262.199 26.320,264.682 26.532,264.367 26.251 C 264.275 26.169,263.300 25.999,262.200 25.872 C 260.851 25.716,260.526 25.751,261.200 25.980 M265.400 26.781 C 266.168 27.129,268.310 27.356,267.967 27.053 C 267.875 26.972,267.080 26.796,266.200 26.662 C 265.085 26.493,264.842 26.529,265.400 26.781 M269.000 27.581 C 269.768 27.929,271.910 28.156,271.567 27.853 C 271.475 27.772,270.680 27.596,269.800 27.462 C 268.685 27.293,268.442 27.329,269.000 27.581 M274.800 29.021 C 275.790 29.333,276.780 29.577,277.000 29.563 C 277.700 29.521,274.634 28.461,273.800 28.457 C 273.360 28.455,273.810 28.709,274.800 29.021 M278.000 29.982 C 278.330 30.205,278.945 30.391,279.367 30.394 C 280.390 30.402,280.071 30.173,278.600 29.844 C 277.724 29.648,277.562 29.685,278.000 29.982 M282.944 31.478 C 283.234 31.767,286.999 33.180,288.200 33.450 C 289.213 33.678,285.395 32.027,283.846 31.567 C 283.211 31.379,282.805 31.339,282.944 31.478 M291.401 34.801 C 291.536 35.021,291.816 35.200,292.023 35.200 C 292.230 35.200,293.874 35.915,295.677 36.790 C 297.479 37.664,299.017 38.316,299.094 38.239 C 299.172 38.162,297.843 37.429,296.142 36.611 C 292.186 34.708,291.083 34.286,291.401 34.801 M299.600 38.565 C 299.600 38.665,300.725 39.356,302.100 40.100 C 303.475 40.845,305.275 41.865,306.100 42.366 C 306.925 42.868,307.600 43.197,307.600 43.096 C 307.600 42.860,303.491 40.345,301.300 39.241 C 300.365 38.769,299.600 38.465,299.600 38.565 M308.000 43.321 C 308.000 43.412,309.035 44.151,310.300 44.963 C 311.565 45.775,312.108 46.021,311.506 45.510 C 310.318 44.500,308.000 43.053,308.000 43.321 M312.800 46.539 C 312.800 46.631,314.195 47.740,315.900 49.004 C 317.605 50.267,318.697 50.962,318.326 50.548 C 317.608 49.746,312.800 46.258,312.800 46.539 M319.215 51.460 C 319.223 51.647,320.049 52.430,321.050 53.200 C 323.837 55.345,330.598 62.572,333.678 66.700 C 335.197 68.735,336.542 70.400,336.667 70.400 C 336.792 70.400,336.389 69.725,335.770 68.900 C 335.151 68.075,334.040 66.590,333.300 65.600 C 330.188 61.435,319.167 50.371,319.215 51.460 M337.251 71.700 C 338.016 73.138,340.495 76.800,340.703 76.800 C 340.807 76.800,340.627 76.395,340.303 75.900 C 339.979 75.405,339.133 74.055,338.423 72.900 C 337.134 70.805,336.343 69.994,337.251 71.700 M341.683 79.000 C 341.964 79.778,345.181 86.114,345.414 86.347 C 345.817 86.751,344.901 84.575,343.639 82.133 C 342.507 79.944,341.362 78.109,341.683 79.000 M168.000 81.500 C 168.000 81.772,191.025 81.769,220.200 81.493 C 226.360 81.435,217.135 81.345,199.700 81.294 C 182.265 81.242,168.000 81.335,168.000 81.500 M232.691 81.889 C 233.401 81.977,234.661 81.979,235.491 81.892 C 236.321 81.805,235.740 81.733,234.200 81.731 C 232.660 81.729,231.981 81.800,232.691 81.889 M239.233 82.546 C 239.325 82.626,240.390 82.794,241.600 82.919 C 243.020 83.066,243.446 83.029,242.800 82.813 C 241.809 82.483,238.913 82.265,239.233 82.546 M249.600 84.733 C 249.930 84.936,250.650 85.224,251.200 85.371 C 251.895 85.557,252.017 85.525,251.600 85.267 C 251.270 85.064,250.550 84.776,250.000 84.629 C 249.305 84.443,249.183 84.475,249.600 84.733 M254.400 86.552 C 255.610 87.056,257.185 87.773,257.900 88.145 C 258.615 88.517,259.200 88.714,259.200 88.584 C 259.200 88.262,253.383 85.596,252.726 85.617 C 252.437 85.626,253.190 86.047,254.400 86.552 M345.633 86.845 C 345.615 86.980,346.108 88.330,346.728 89.845 C 347.348 91.360,348.366 94.178,348.989 96.106 C 349.612 98.034,350.197 99.537,350.289 99.445 C 350.516 99.217,347.836 91.354,346.635 88.724 C 346.102 87.556,345.651 86.710,345.633 86.845 M259.600 88.929 C 259.600 89.016,260.718 89.776,262.085 90.620 C 265.592 92.785,270.536 97.641,273.056 101.396 C 274.235 103.154,275.200 104.450,275.200 104.274 C 275.200 102.591,267.419 93.838,263.600 91.226 C 261.254 89.622,259.600 88.672,259.600 88.929 M350.406 100.633 C 350.409 101.055,350.595 101.670,350.818 102.000 C 351.115 102.438,351.152 102.276,350.956 101.400 C 350.627 99.929,350.398 99.610,350.406 100.633 M351.389 104.000 C 351.501 104.770,351.777 106.210,352.002 107.200 C 352.226 108.190,352.591 110.159,352.814 111.576 C 353.036 112.992,353.321 114.252,353.447 114.376 C 353.718 114.642,353.310 111.341,352.758 108.800 C 352.101 105.773,351.171 102.515,351.389 104.000 M276.296 107.201 C 276.866 108.521,277.400 109.534,277.483 109.451 C 277.669 109.265,275.719 104.800,275.452 104.800 C 275.346 104.800,275.726 105.880,276.296 107.201 M278.500 112.900 C 278.602 113.175,278.915 114.390,279.195 115.600 C 279.948 118.860,280.426 120.165,280.146 118.200 C 279.854 116.150,278.808 112.400,278.529 112.400 C 278.411 112.400,278.398 112.625,278.500 112.900 M353.630 116.233 C 353.646 117.095,353.813 118.610,354.001 119.600 C 354.258 120.953,354.288 120.606,354.123 118.200 C 353.890 114.822,353.579 113.582,353.630 116.233 M280.509 121.600 C 280.509 122.590,280.587 122.995,280.682 122.500 C 280.778 122.005,280.778 121.195,280.682 120.700 C 280.587 120.205,280.509 120.610,280.509 121.600 M354.557 127.200 C 354.557 130.170,354.620 131.385,354.697 129.900 C 354.774 128.415,354.774 125.985,354.697 124.500 C 354.620 123.015,354.557 124.230,354.557 127.200 M280.893 124.800 C 280.893 125.570,280.975 125.885,281.076 125.500 C 281.176 125.115,281.176 124.485,281.076 124.100 C 280.975 123.715,280.893 124.030,280.893 124.800 M281.284 132.000 C 281.233 135.190,281.106 138.520,281.002 139.400 L 280.812 141.000 281.216 139.421 C 281.439 138.552,281.566 135.222,281.499 132.021 L 281.377 126.200 281.284 132.000 M354.554 138.000 C 354.554 140.750,354.618 141.875,354.696 140.500 C 354.774 139.125,354.774 136.875,354.696 135.500 C 354.618 134.125,354.554 135.250,354.554 138.000 M280.462 142.800 C 280.422 143.570,280.296 144.650,280.183 145.200 L 279.977 146.200 280.408 145.214 C 280.644 144.671,280.770 143.591,280.686 142.814 L 280.534 141.400 280.462 142.800 M353.787 146.187 C 353.631 147.644,353.589 148.923,353.695 149.028 C 353.801 149.134,354.010 148.023,354.160 146.560 C 354.310 145.097,354.351 143.818,354.252 143.718 C 354.152 143.619,353.943 144.729,353.787 146.187 M279.660 147.267 C 279.627 147.854,279.496 148.664,279.370 149.067 C 279.152 149.760,279.165 149.761,279.595 149.090 C 279.846 148.699,279.977 147.889,279.886 147.290 L 279.720 146.200 279.660 147.267 M353.004 151.700 C 352.855 152.855,352.577 154.430,352.387 155.200 C 350.626 162.306,349.883 165.117,349.357 166.665 C 349.019 167.661,348.819 168.553,348.913 168.646 C 349.133 168.866,350.540 164.348,351.606 160.000 C 352.064 158.130,352.596 155.970,352.786 155.200 C 353.267 153.260,353.718 149.600,353.475 149.600 C 353.365 149.600,353.153 150.545,353.004 151.700 M278.796 150.233 C 278.793 150.435,278.520 151.494,278.189 152.587 C 277.857 153.680,277.739 154.400,277.925 154.187 C 278.418 153.626,279.296 150.363,279.028 150.094 C 278.902 149.969,278.798 150.032,278.796 150.233 M274.811 160.104 C 274.299 161.037,273.268 162.700,272.518 163.800 C 271.604 165.142,271.486 165.438,272.159 164.700 C 273.267 163.485,276.118 158.785,275.888 158.555 C 275.808 158.474,275.323 159.172,274.811 160.104 M268.855 168.180 C 267.710 169.379,265.925 171.117,264.887 172.043 C 262.856 173.855,263.214 173.707,265.840 171.649 C 267.298 170.505,271.486 166.000,271.091 166.000 C 271.005 166.000,269.999 166.981,268.855 168.180 M347.691 171.300 C 347.010 173.184,347.104 173.694,347.826 172.030 C 348.153 171.277,348.366 170.499,348.301 170.302 C 348.235 170.105,347.960 170.554,347.691 171.300 M346.438 174.500 C 346.249 174.995,345.804 176.097,345.448 176.949 C 344.744 178.631,344.609 179.367,345.185 178.385 C 345.791 177.349,347.201 173.600,346.984 173.600 C 346.872 173.600,346.626 174.005,346.438 174.500 M259.693 175.460 C 258.754 176.026,256.594 177.097,254.893 177.840 C 253.192 178.583,252.049 179.192,252.354 179.195 C 253.051 179.201,259.926 175.914,261.000 175.061 C 262.179 174.124,261.631 174.292,259.693 175.460 M250.000 179.733 C 249.230 180.006,247.520 180.469,246.200 180.760 C 242.998 181.467,242.826 181.532,244.040 181.568 C 244.612 181.586,245.602 181.441,246.240 181.247 C 246.878 181.052,248.210 180.661,249.200 180.377 C 250.190 180.093,251.171 179.712,251.380 179.530 C 251.870 179.104,251.696 179.130,250.000 179.733 M240.400 182.000 C 239.033 182.288,239.028 182.295,240.200 182.319 C 240.860 182.333,241.760 182.189,242.200 182.000 C 243.162 181.587,242.364 181.587,240.400 182.000 M234.600 182.800 L 231.800 183.059 234.400 183.089 C 235.830 183.106,237.450 182.976,238.000 182.800 C 239.189 182.419,238.721 182.419,234.600 182.800 M342.143 183.900 C 341.761 184.725,340.763 186.543,339.924 187.941 C 339.086 189.338,338.400 190.595,338.400 190.734 C 338.400 191.393,342.235 184.905,342.912 183.100 C 343.396 181.810,342.845 182.383,342.143 183.900 M168.000 183.300 C 168.000 183.465,182.265 183.558,199.700 183.506 C 217.135 183.455,226.360 183.365,220.200 183.307 C 191.025 183.031,168.000 183.028,168.000 183.300 M333.891 197.100 C 332.460 199.025,329.796 202.220,327.970 204.200 C 326.144 206.180,325.599 206.900,326.759 205.800 C 329.767 202.947,337.368 193.600,336.680 193.600 C 336.577 193.600,335.321 195.175,333.891 197.100 M320.949 210.914 C 314.888 216.293,310.018 219.764,302.900 223.774 C 300.645 225.045,298.800 226.162,298.800 226.256 C 298.800 226.465,299.646 226.027,303.800 223.668 C 310.176 220.047,317.169 214.973,322.000 210.463 C 325.593 207.108,324.901 207.405,320.949 210.914 M294.800 228.000 C 294.030 228.421,291.286 229.615,288.702 230.652 C 286.119 231.690,284.071 232.605,284.152 232.686 C 284.366 232.899,292.058 229.790,294.730 228.411 C 295.978 227.766,296.820 227.237,296.600 227.236 C 296.380 227.235,295.570 227.578,294.800 228.000 M279.000 234.012 C 278.560 234.209,277.030 234.732,275.600 235.174 C 274.170 235.616,273.584 235.879,274.298 235.758 C 276.196 235.435,281.540 233.650,280.600 233.652 C 280.160 233.653,279.440 233.815,279.000 234.012 M269.700 236.441 C 265.852 237.504,265.675 237.572,267.400 237.329 C 269.707 237.003,273.181 236.050,272.000 236.067 C 271.450 236.075,270.415 236.243,269.700 236.441 M263.700 237.876 C 264.085 237.976,264.715 237.976,265.100 237.876 C 265.485 237.775,265.170 237.693,264.400 237.693 C 263.630 237.693,263.315 237.775,263.700 237.876 M257.400 238.820 C 256.611 239.035,257.022 239.070,258.600 238.923 C 259.920 238.800,261.075 238.632,261.167 238.550 C 261.464 238.282,258.634 238.485,257.400 238.820 M251.600 239.602 C 251.000 239.795,251.640 239.837,253.200 239.706 C 254.630 239.586,255.875 239.423,255.967 239.344 C 256.289 239.065,252.588 239.284,251.600 239.602 M243.000 240.400 L 240.600 240.666 242.600 240.683 C 243.700 240.693,245.860 240.571,247.400 240.413 L 250.200 240.126 247.800 240.130 C 246.480 240.133,244.320 240.254,243.000 240.400 M231.318 241.098 C 233.033 241.173,235.733 241.172,237.318 241.097 C 238.903 241.021,237.500 240.959,234.200 240.960 C 230.900 240.961,229.603 241.022,231.318 241.098 M168.000 241.500 C 168.000 241.772,189.246 241.769,217.400 241.493 C 223.340 241.434,214.655 241.345,198.100 241.293 C 181.545 241.242,168.000 241.335,168.000 241.500 " stroke="none" fill="#5c5498" fill-rule="evenodd"></path><path id="path3" d="M228.033 23.345 C 228.125 23.425,231.440 23.574,235.400 23.677 C 239.360 23.780,241.520 23.734,240.200 23.575 C 237.719 23.277,227.738 23.088,228.033 23.345 M247.800 24.423 C 249.826 24.842,251.463 24.823,249.800 24.400 C 249.140 24.232,248.060 24.094,247.400 24.093 C 246.391 24.092,246.455 24.145,247.800 24.423 M252.833 24.949 C 252.925 25.031,253.900 25.201,255.000 25.328 C 256.349 25.484,256.674 25.449,256.000 25.220 C 255.001 24.880,252.518 24.668,252.833 24.949 M258.800 26.000 C 259.350 26.176,260.160 26.320,260.600 26.320 C 261.233 26.320,261.192 26.254,260.400 26.000 C 259.850 25.824,259.040 25.680,258.600 25.680 C 257.967 25.680,258.008 25.746,258.800 26.000 M263.600 26.800 C 264.968 27.238,266.019 27.238,265.000 26.800 C 264.560 26.611,263.840 26.462,263.400 26.468 C 262.757 26.477,262.796 26.543,263.600 26.800 M267.200 27.600 C 268.568 28.038,269.619 28.038,268.600 27.600 C 268.160 27.411,267.440 27.262,267.000 27.268 C 266.357 27.277,266.396 27.343,267.200 27.600 M270.600 28.400 C 271.040 28.589,271.670 28.744,272.000 28.744 C 272.378 28.744,272.304 28.617,271.800 28.400 C 271.360 28.211,270.730 28.056,270.400 28.056 C 270.022 28.056,270.096 28.183,270.600 28.400 M297.200 37.779 C 297.200 37.889,297.740 38.259,298.400 38.600 C 299.060 38.941,299.600 39.131,299.600 39.021 C 299.600 38.911,299.060 38.541,298.400 38.200 C 297.740 37.859,297.200 37.669,297.200 37.779 M304.400 41.779 C 304.400 41.889,304.940 42.259,305.600 42.600 C 306.260 42.941,306.800 43.131,306.800 43.021 C 306.800 42.911,306.260 42.541,305.600 42.200 C 304.940 41.859,304.400 41.669,304.400 41.779 M308.410 44.126 C 309.009 44.774,311.695 46.397,311.218 45.822 C 310.910 45.451,310.105 44.866,309.429 44.523 C 308.753 44.179,308.295 44.001,308.410 44.126 M314.167 48.085 C 314.808 48.588,316.383 49.862,317.667 50.915 C 318.950 51.968,319.992 52.688,319.983 52.515 C 319.964 52.161,316.600 49.480,314.426 48.085 L 313.000 47.170 314.167 48.085 M322.200 54.800 C 323.283 55.900,324.260 56.800,324.370 56.800 C 324.480 56.800,323.683 55.900,322.600 54.800 C 321.517 53.700,320.540 52.800,320.430 52.800 C 320.320 52.800,321.117 53.700,322.200 54.800 M324.800 56.904 C 324.800 56.988,326.084 58.393,327.653 60.028 L 330.506 63.000 328.008 60.096 C 325.704 57.417,324.800 56.518,324.800 56.904 M331.865 65.000 C 333.531 66.994,334.113 67.414,332.833 65.700 C 331.284 63.624,330.911 63.200,330.636 63.200 C 330.484 63.200,331.037 64.010,331.865 65.000 M334.575 68.532 C 335.191 69.339,335.776 70.000,335.875 70.000 C 336.153 70.000,334.421 67.660,333.909 67.344 C 333.659 67.189,333.959 67.724,334.575 68.532 M338.430 74.200 C 338.924 75.080,339.500 75.980,339.710 76.200 C 340.309 76.828,338.939 74.294,338.196 73.400 C 337.830 72.960,337.935 73.320,338.430 74.200 M167.443 81.433 C 167.125 82.260,167.125 182.540,167.443 183.367 C 167.576 183.715,167.882 184.000,168.123 184.000 C 168.415 184.000,168.401 183.841,168.080 183.520 C 167.383 182.823,167.383 81.977,168.080 81.280 C 168.401 80.959,168.415 80.800,168.123 80.800 C 167.882 80.800,167.576 81.085,167.443 81.433 M225.633 80.944 C 225.725 81.024,228.050 81.180,230.800 81.292 C 233.880 81.417,235.032 81.375,233.800 81.183 C 231.776 80.866,225.326 80.678,225.633 80.944 M238.600 82.000 C 240.292 82.431,241.744 82.431,240.400 82.000 C 239.850 81.824,238.950 81.683,238.400 81.687 C 237.502 81.694,237.522 81.726,238.600 82.000 M243.400 82.800 C 243.840 82.989,244.470 83.144,244.800 83.144 C 245.178 83.144,245.104 83.017,244.600 82.800 C 244.160 82.611,243.530 82.456,243.200 82.456 C 242.822 82.456,242.896 82.583,243.400 82.800 M261.200 89.567 C 262.163 90.352,262.800 90.608,262.800 90.210 C 262.800 90.106,262.215 89.735,261.500 89.386 L 260.200 88.752 261.200 89.567 M263.200 90.488 C 263.200 90.566,264.055 91.333,265.100 92.192 C 266.145 93.051,266.640 93.340,266.200 92.834 C 265.422 91.939,263.200 90.202,263.200 90.488 M267.200 93.726 C 267.200 94.130,270.816 97.718,271.019 97.514 C 271.108 97.425,270.286 96.469,269.191 95.391 C 268.096 94.312,267.200 93.563,267.200 93.726 M272.175 99.332 C 272.791 100.139,273.376 100.800,273.475 100.800 C 273.753 100.800,272.021 98.460,271.509 98.144 C 271.259 97.989,271.559 98.524,272.175 99.332 M274.124 102.200 C 274.462 102.860,275.038 103.760,275.404 104.200 C 275.770 104.640,275.665 104.280,275.170 103.400 C 274.080 101.458,273.264 100.522,274.124 102.200 M351.256 105.600 C 351.256 105.930,351.411 106.560,351.600 107.000 C 351.817 107.504,351.944 107.578,351.944 107.200 C 351.944 106.870,351.789 106.240,351.600 105.800 C 351.383 105.296,351.256 105.222,351.256 105.600 M352.068 109.200 C 352.088 110.239,352.718 111.946,352.732 111.000 C 352.738 110.560,352.589 109.840,352.400 109.400 C 352.189 108.910,352.061 108.832,352.068 109.200 M352.895 114.000 C 352.895 114.550,353.032 115.540,353.200 116.200 C 353.472 117.270,353.505 117.292,353.505 116.400 C 353.505 115.850,353.368 114.860,353.200 114.200 C 352.928 113.130,352.895 113.108,352.895 114.000 M280.068 117.000 C 280.062 117.440,280.211 118.160,280.400 118.600 C 280.838 119.619,280.838 118.568,280.400 117.200 C 280.143 116.396,280.077 116.357,280.068 117.000 M353.894 123.200 C 354.012 125.290,354.174 127.075,354.254 127.167 C 354.526 127.477,354.343 123.010,354.010 121.200 C 353.782 119.966,353.746 120.595,353.894 123.200 M280.869 121.200 C 280.856 121.750,280.995 122.920,281.177 123.800 C 281.389 124.826,281.516 125.041,281.531 124.400 C 281.544 123.850,281.405 122.680,281.223 121.800 C 281.011 120.774,280.884 120.559,280.869 121.200 M281.731 132.600 C 281.733 134.140,281.805 134.721,281.892 133.891 C 281.979 133.061,281.977 131.801,281.889 131.091 C 281.800 130.381,281.729 131.060,281.731 132.600 M353.852 141.553 C 353.698 143.397,353.652 144.985,353.749 145.083 C 354.000 145.333,354.526 139.377,354.310 138.732 C 354.212 138.439,354.006 139.709,353.852 141.553 M281.033 141.633 C 280.883 142.766,280.841 143.774,280.939 143.872 C 281.037 143.971,281.245 143.128,281.400 142.000 C 281.555 140.872,281.598 139.864,281.494 139.761 C 281.391 139.658,281.184 140.500,281.033 141.633 M280.200 146.400 C 280.048 147.091,280.007 147.741,280.109 147.842 C 280.211 147.944,280.409 147.453,280.550 146.750 C 280.883 145.083,280.560 144.760,280.200 146.400 M353.040 148.840 C 352.893 149.757,352.852 150.585,352.947 150.680 C 353.042 150.776,353.246 150.110,353.400 149.200 C 353.554 148.290,353.596 147.462,353.493 147.360 C 353.390 147.257,353.187 147.923,353.040 148.840 M352.250 153.650 C 351.917 155.317,352.240 155.640,352.600 154.000 C 352.752 153.309,352.793 152.659,352.691 152.558 C 352.589 152.456,352.391 152.947,352.250 153.650 M351.429 157.429 C 351.281 158.015,351.238 158.572,351.332 158.666 C 351.427 158.760,351.624 158.358,351.771 157.771 C 351.919 157.185,351.962 156.628,351.868 156.534 C 351.773 156.440,351.576 156.842,351.429 157.429 M275.878 159.005 C 275.512 159.772,275.295 160.400,275.396 160.400 C 275.670 160.400,276.884 157.951,276.701 157.768 C 276.614 157.681,276.244 158.238,275.878 159.005 M273.432 163.100 C 272.617 164.365,272.294 165.040,272.714 164.600 C 273.542 163.734,275.377 160.800,275.090 160.800 C 274.994 160.800,274.247 161.835,273.432 163.100 M267.811 169.733 C 265.618 171.970,264.718 173.051,265.811 172.136 C 267.656 170.591,268.694 169.540,271.178 166.700 C 273.088 164.516,271.722 165.747,267.811 169.733 M259.900 175.829 C 258.405 176.640,258.496 176.978,260.000 176.200 C 260.660 175.859,261.200 175.494,261.200 175.390 C 261.200 175.132,261.157 175.147,259.900 175.829 M341.885 183.416 C 340.851 185.497,340.092 187.200,340.199 187.200 C 340.465 187.200,344.085 179.951,343.907 179.774 C 343.829 179.696,342.919 181.334,341.885 183.416 M246.600 181.200 C 246.096 181.417,246.022 181.544,246.400 181.544 C 246.730 181.544,247.360 181.389,247.800 181.200 C 248.304 180.983,248.378 180.856,248.000 180.856 C 247.670 180.856,247.040 181.011,246.600 181.200 M242.600 182.000 C 241.581 182.438,242.632 182.438,244.000 182.000 C 244.804 181.743,244.843 181.677,244.200 181.668 C 243.760 181.662,243.040 181.811,242.600 182.000 M238.600 182.800 C 237.581 183.238,238.632 183.238,240.000 182.800 C 240.804 182.543,240.843 182.477,240.200 182.468 C 239.760 182.462,239.040 182.611,238.600 182.800 M229.000 183.600 L 225.400 183.849 228.600 183.889 C 230.360 183.912,232.700 183.790,233.800 183.618 C 236.337 183.223,234.550 183.216,229.000 183.600 M338.253 190.100 L 337.533 191.400 338.358 190.400 C 339.089 189.513,339.414 188.800,339.086 188.800 C 339.024 188.800,338.649 189.385,338.253 190.100 M334.208 196.042 C 333.401 197.165,332.932 197.965,333.166 197.821 C 333.652 197.520,336.132 194.000,335.857 194.000 C 335.757 194.000,335.015 194.919,334.208 196.042 M331.601 199.398 C 331.086 199.948,330.739 200.464,330.832 200.546 C 330.924 200.628,331.419 200.178,331.930 199.547 C 333.076 198.135,332.874 198.044,331.601 199.398 M324.000 207.684 C 321.470 210.128,320.660 211.033,322.200 209.696 C 324.954 207.305,329.147 203.181,328.785 203.220 C 328.683 203.231,326.530 205.240,324.000 207.684 M317.000 213.852 C 315.386 215.305,316.040 214.991,318.131 213.309 C 318.753 212.809,319.113 212.403,318.931 212.406 C 318.749 212.409,317.880 213.060,317.000 213.852 M304.700 222.229 C 303.205 223.040,303.296 223.378,304.800 222.600 C 305.460 222.259,306.000 221.894,306.000 221.790 C 306.000 221.532,305.957 221.547,304.700 222.229 M301.900 223.829 C 301.295 224.157,300.800 224.510,300.800 224.613 C 300.800 224.999,301.432 224.757,302.400 224.000 C 303.589 223.070,303.411 223.009,301.900 223.829 M298.800 225.600 C 298.030 226.022,297.544 226.374,297.720 226.383 C 298.144 226.405,300.400 225.232,300.400 224.990 C 300.400 224.728,300.377 224.737,298.800 225.600 M272.200 235.600 C 271.696 235.817,271.622 235.944,272.000 235.944 C 272.330 235.944,272.960 235.789,273.400 235.600 C 273.904 235.383,273.978 235.256,273.600 235.256 C 273.270 235.256,272.640 235.411,272.200 235.600 M268.600 236.400 C 268.096 236.617,268.022 236.744,268.400 236.744 C 268.730 236.744,269.360 236.589,269.800 236.400 C 270.304 236.183,270.378 236.056,270.000 236.056 C 269.670 236.056,269.040 236.211,268.600 236.400 M264.400 237.200 C 263.608 237.454,263.567 237.520,264.200 237.520 C 264.640 237.520,265.450 237.376,266.000 237.200 C 266.792 236.946,266.833 236.880,266.200 236.880 C 265.760 236.880,264.950 237.024,264.400 237.200 M260.200 238.000 C 259.111 238.277,259.093 238.307,260.000 238.325 C 260.550 238.335,261.360 238.189,261.800 238.000 C 262.786 237.576,261.866 237.576,260.200 238.000 M254.600 238.800 C 253.530 239.072,253.508 239.105,254.400 239.105 C 254.950 239.105,255.940 238.968,256.600 238.800 C 257.670 238.528,257.692 238.495,256.800 238.495 C 256.250 238.495,255.260 238.632,254.600 238.800 M248.800 239.600 C 247.443 239.886,247.437 239.895,248.600 239.907 C 249.260 239.915,250.250 239.776,250.800 239.600 C 252.112 239.180,250.796 239.180,248.800 239.600 M235.800 240.400 L 232.600 240.653 235.600 240.680 C 237.250 240.695,239.770 240.575,241.200 240.414 L 243.800 240.122 241.400 240.134 C 240.080 240.141,237.560 240.261,235.800 240.400 M167.503 240.900 C 167.244 241.169,167.041 376.800,167.300 376.800 C 167.465 376.800,167.600 346.416,167.600 309.280 C 167.600 257.298,167.710 241.650,168.080 241.280 C 168.453 240.907,168.453 240.800,168.080 240.800 C 167.816 240.800,167.557 240.845,167.503 240.900 " stroke="none" fill="#8c84b4" fill-rule="evenodd"></path><path id="path4" d="M323.200 55.400 C 323.946 56.170,324.647 56.800,324.757 56.800 C 324.867 56.800,324.346 56.170,323.600 55.400 C 322.854 54.630,322.153 54.000,322.043 54.000 C 321.933 54.000,322.454 54.630,323.200 55.400 M182.729 81.100 C 190.721 81.160,203.681 81.160,211.529 81.100 C 219.378 81.039,212.840 80.990,197.000 80.990 C 181.160 80.990,174.738 81.039,182.729 81.100 M167.794 132.400 C 167.794 160.450,167.842 171.925,167.900 157.900 C 167.958 143.875,167.958 120.925,167.900 106.900 C 167.842 92.875,167.794 104.350,167.794 132.400 M182.729 183.900 C 190.721 183.960,203.681 183.960,211.529 183.900 C 219.378 183.839,212.840 183.790,197.000 183.790 C 181.160 183.790,174.738 183.839,182.729 183.900 M183.300 241.100 C 191.605 241.160,205.195 241.160,213.500 241.100 C 221.805 241.039,215.010 240.990,198.400 240.990 C 181.790 240.990,174.995 241.039,183.300 241.100 M167.795 309.000 C 167.795 346.180,167.842 361.331,167.900 342.668 C 167.957 324.006,167.957 293.586,167.900 275.068 C 167.842 256.551,167.795 271.820,167.795 309.000 " stroke="none" fill="#8481b4" fill-rule="evenodd"></path></g></svg>