<svg id="svg" version="1.1" xmlns="http://www.w3.org/2000/svg" xmlns:xlink="http://www.w3.org/1999/xlink" width="400" height="54.6972860125261" viewBox="0, 0, 400,54.6972860125261"><g id="svgg"><path id="path0" d="M0.000 27.333 L 0.000 54.667 200.000 54.667 L 400.000 54.667 400.000 27.333 L 400.000 0.000 200.000 0.000 L 0.000 0.000 0.000 27.333 M34.189 1.376 C 37.765 2.156,40.138 3.435,42.597 5.908 C 50.824 14.180,48.694 30.073,38.678 35.162 C 35.537 36.758,34.740 36.871,25.833 36.985 L 18.083 37.083 18.040 45.542 L 17.997 54.000 9.498 54.000 L 1.000 54.000 1.000 27.611 C 1.000 13.097,1.053 1.169,1.119 1.103 C 1.398 0.824,32.846 1.083,34.189 1.376 M93.000 1.381 C 100.878 3.036,105.715 8.057,106.506 15.400 C 107.262 22.426,103.858 28.588,97.680 31.375 C 97.077 31.647,96.558 31.893,96.527 31.922 C 96.496 31.950,96.656 32.298,96.882 32.695 C 97.108 33.092,97.667 34.129,98.125 35.000 C 98.583 35.871,99.576 37.746,100.333 39.167 C 101.089 40.587,102.046 42.387,102.459 43.167 C 102.872 43.946,103.491 45.108,103.834 45.750 C 104.177 46.392,105.189 48.304,106.083 50.000 C 106.976 51.696,107.774 53.155,107.854 53.242 C 108.560 54.007,108.645 54.000,98.490 54.000 L 88.981 54.000 86.972 49.875 C 85.867 47.606,84.530 44.850,83.999 43.750 C 83.469 42.650,82.281 40.194,81.358 38.292 L 79.682 34.833 76.592 34.833 L 73.503 34.833 73.460 44.375 L 73.417 53.917 64.875 53.960 L 56.333 54.003 56.333 27.613 C 56.333 13.098,56.387 1.168,56.453 1.102 C 56.722 0.834,91.665 1.100,93.000 1.381 M150.255 1.175 C 150.360 1.344,151.014 3.109,153.499 9.917 C 154.135 11.658,155.260 14.733,156.000 16.750 C 156.740 18.767,157.865 21.842,158.500 23.583 C 159.135 25.325,160.261 28.400,161.002 30.417 C 161.743 32.433,162.881 35.546,163.532 37.333 C 164.183 39.121,164.883 41.033,165.088 41.583 C 165.293 42.133,165.854 43.671,166.336 45.000 C 166.818 46.329,167.380 47.867,167.585 48.417 C 168.451 50.737,169.500 53.717,169.500 53.855 C 169.500 53.940,165.663 53.985,160.483 53.960 L 151.465 53.917 151.081 52.667 C 150.505 50.795,149.882 48.702,149.579 47.624 L 149.309 46.664 140.035 46.707 L 130.761 46.750 130.537 47.583 C 130.282 48.532,129.729 50.409,129.074 52.543 L 128.627 54.003 119.938 53.960 C 112.330 53.922,111.254 53.886,111.279 53.667 C 111.295 53.529,111.490 52.929,111.713 52.333 C 111.936 51.737,112.649 49.788,113.299 48.000 C 113.948 46.212,115.055 43.175,115.759 41.250 C 116.463 39.325,117.245 37.188,117.495 36.500 C 117.746 35.813,118.485 33.787,119.137 32.000 C 119.789 30.212,120.930 27.100,121.673 25.083 C 122.416 23.067,123.126 21.117,123.252 20.750 C 123.378 20.383,124.126 18.321,124.915 16.167 C 125.704 14.012,126.882 10.787,127.533 9.000 C 128.183 7.212,128.897 5.263,129.119 4.667 C 129.341 4.071,129.701 3.077,129.918 2.459 C 130.135 1.840,130.360 1.259,130.416 1.167 C 130.563 0.930,150.109 0.938,150.255 1.175 M189.629 1.208 C 189.722 1.323,189.873 1.679,189.963 2.000 C 190.054 2.321,190.407 3.521,190.749 4.667 C 191.090 5.813,191.501 7.200,191.663 7.750 C 191.824 8.300,192.230 9.650,192.565 10.750 C 192.900 11.850,193.354 13.350,193.574 14.083 C 194.213 16.212,195.003 18.834,195.331 19.917 C 195.938 21.922,196.504 23.810,197.331 26.583 C 197.795 28.142,198.358 30.017,198.582 30.750 C 198.805 31.483,199.258 32.983,199.587 34.083 C 200.339 36.599,200.395 36.646,200.830 35.145 C 201.026 34.470,201.326 33.467,201.496 32.917 C 201.666 32.367,202.006 31.242,202.252 30.417 C 202.498 29.592,202.874 28.354,203.086 27.667 C 203.298 26.979,203.664 25.779,203.899 25.000 C 204.134 24.221,204.599 22.683,204.933 21.583 C 205.267 20.483,205.652 19.208,205.788 18.750 C 205.924 18.292,206.524 16.304,207.122 14.333 C 207.719 12.362,208.281 10.487,208.370 10.167 C 208.459 9.846,208.795 8.721,209.118 7.667 C 209.628 6.003,210.127 4.344,210.899 1.750 L 211.098 1.083 219.664 1.040 C 224.375 1.016,228.294 1.061,228.373 1.139 C 228.515 1.281,228.222 2.249,227.080 5.417 C 226.749 6.333,226.383 7.383,226.265 7.750 C 226.042 8.444,223.028 16.959,222.490 18.417 C 222.320 18.875,221.047 22.475,219.660 26.417 C 217.586 32.309,214.744 40.358,212.834 45.750 C 212.640 46.300,212.342 47.163,212.172 47.667 C 212.003 48.171,211.475 49.671,210.999 51.000 C 210.523 52.329,210.095 53.548,210.047 53.708 C 209.935 54.087,190.267 54.170,190.122 53.792 C 190.078 53.677,188.750 49.946,187.170 45.500 C 185.591 41.054,184.163 37.042,183.997 36.583 C 183.832 36.125,183.510 35.225,183.282 34.583 C 183.053 33.942,182.678 32.892,182.447 32.250 C 182.216 31.608,180.564 26.958,178.775 21.917 C 176.987 16.875,175.361 12.300,175.163 11.750 C 174.965 11.200,174.664 10.337,174.494 9.833 C 174.325 9.329,173.998 8.392,173.768 7.750 C 173.538 7.108,173.203 6.160,173.022 5.642 C 172.842 5.124,172.422 3.942,172.089 3.015 C 171.755 2.088,171.528 1.255,171.584 1.165 C 171.748 0.901,189.413 0.943,189.629 1.208 M281.232 1.264 C 281.364 1.608,281.364 13.392,281.232 13.736 C 281.141 13.974,279.723 14.000,266.899 14.000 L 252.667 14.000 252.667 17.499 L 252.667 20.998 264.875 21.041 L 277.083 21.083 277.083 27.167 L 277.083 33.250 264.875 33.293 L 252.667 33.335 252.667 37.251 L 252.667 41.167 267.250 41.167 L 281.833 41.167 281.833 47.583 L 281.833 54.000 258.667 54.000 L 235.500 54.000 235.500 27.611 C 235.500 13.097,235.550 1.172,235.611 1.111 C 235.885 0.837,281.127 0.988,281.232 1.264 M336.583 7.500 L 336.583 13.917 322.292 13.959 L 308.000 14.002 308.000 17.500 L 308.000 20.998 320.292 21.041 L 332.583 21.083 332.583 27.167 L 332.583 33.250 320.292 33.293 L 308.000 33.335 308.000 37.250 L 308.000 41.165 322.625 41.207 L 337.250 41.250 337.250 47.583 L 337.250 53.917 314.177 53.959 C 295.828 53.993,291.077 53.958,290.971 53.792 C 290.818 53.551,290.782 1.661,290.935 1.263 C 291.027 1.023,293.151 1.003,313.810 1.041 L 336.583 1.083 336.583 7.500 M361.644 1.542 C 361.911 1.840,363.728 3.958,365.681 6.250 C 369.473 10.697,372.851 14.655,378.343 21.083 C 380.223 23.283,382.055 25.440,382.416 25.875 C 382.776 26.310,383.129 26.667,383.201 26.667 C 383.273 26.667,383.350 20.910,383.374 13.875 L 383.417 1.083 391.167 1.083 L 398.917 1.083 398.959 27.542 L 399.001 54.000 391.537 54.000 L 384.074 54.000 381.662 51.216 C 379.181 48.352,377.567 46.484,373.350 41.596 C 372.012 40.045,370.129 37.864,369.167 36.749 C 368.204 35.634,366.322 33.453,364.984 31.902 C 363.646 30.352,362.427 28.980,362.275 28.854 C 362.020 28.642,362.000 29.533,362.000 41.313 L 362.000 54.000 354.167 54.000 L 346.333 54.000 346.333 27.611 C 346.333 13.097,346.383 1.172,346.444 1.111 C 346.506 1.050,349.841 1.000,353.857 1.000 L 361.159 1.000 361.644 1.542 M73.500 18.083 L 73.500 22.833 79.303 22.833 C 86.004 22.833,86.289 22.790,87.641 21.575 C 90.204 19.270,89.405 14.861,86.207 13.665 C 85.383 13.357,84.903 13.333,79.410 13.333 L 73.500 13.333 73.500 18.083 M18.039 19.113 L 18.083 24.417 22.167 24.409 C 28.956 24.396,30.083 23.638,30.083 19.083 C 30.083 14.583,29.149 13.944,22.456 13.863 L 17.995 13.809 18.039 19.113 M139.840 16.400 C 139.744 16.650,139.667 16.913,139.667 16.984 C 139.667 17.055,139.253 18.493,138.747 20.181 C 138.241 21.869,137.637 23.887,137.405 24.667 C 137.173 25.446,136.804 26.683,136.586 27.417 C 136.367 28.150,135.999 29.387,135.768 30.167 C 135.537 30.946,135.157 32.206,134.924 32.967 C 134.691 33.728,134.500 34.384,134.500 34.425 C 134.500 34.466,137.007 34.500,140.072 34.500 L 145.643 34.500 145.506 34.042 C 145.258 33.215,144.537 30.778,144.113 29.333 C 143.885 28.554,143.421 26.979,143.083 25.833 C 142.745 24.688,142.293 23.150,142.077 22.417 C 141.862 21.683,141.486 20.408,141.241 19.583 C 140.996 18.758,140.685 17.671,140.551 17.167 C 140.243 16.011,140.062 15.816,139.840 16.400 " stroke="none" fill="#050505" fill-rule="evenodd"></path><path id="path1" d="M1.167 27.576 L 1.167 53.833 9.498 53.833 L 17.830 53.833 17.873 45.375 L 17.917 36.917 25.333 36.811 C 30.997 36.730,33.065 36.644,34.083 36.446 C 43.352 34.648,48.885 25.689,47.173 15.250 C 46.190 9.251,41.828 3.983,36.398 2.236 C 33.826 1.408,34.653 1.445,17.375 1.380 L 1.167 1.319 1.167 27.576 M56.500 27.578 L 56.500 53.836 64.875 53.793 L 73.250 53.750 73.333 44.167 L 73.417 34.583 76.571 34.583 L 79.725 34.583 80.197 35.500 C 80.456 36.004,81.446 38.029,82.397 40.000 C 83.347 41.971,85.073 45.533,86.231 47.917 C 87.389 50.300,88.504 52.603,88.710 53.035 L 89.083 53.820 98.458 53.827 C 103.615 53.830,107.833 53.798,107.833 53.755 C 107.833 53.712,107.244 52.569,106.523 51.214 C 105.803 49.859,104.855 48.075,104.418 47.250 C 103.980 46.425,102.983 44.550,102.201 43.083 C 101.419 41.617,100.541 39.967,100.251 39.417 C 99.961 38.867,98.961 36.981,98.029 35.226 C 95.997 31.402,96.018 31.894,97.846 31.021 C 110.465 24.995,108.820 6.037,95.348 2.233 C 92.414 1.405,93.431 1.446,74.375 1.381 L 56.500 1.319 56.500 27.578 M130.275 2.040 C 130.133 2.431,129.796 3.350,129.526 4.083 C 129.255 4.817,128.680 6.392,128.247 7.583 C 127.814 8.775,127.252 10.313,126.999 11.000 C 126.745 11.688,125.993 13.750,125.327 15.583 C 124.662 17.417,123.950 19.367,123.745 19.917 C 123.541 20.467,122.980 22.004,122.500 23.333 C 122.020 24.662,121.459 26.200,121.255 26.750 C 121.050 27.300,120.336 29.250,119.669 31.083 C 119.002 32.917,118.249 34.979,117.996 35.667 C 117.744 36.354,117.184 37.892,116.752 39.083 C 116.319 40.275,115.760 41.813,115.507 42.500 C 115.255 43.188,114.502 45.250,113.833 47.083 C 111.842 52.545,111.713 52.897,111.523 53.375 L 111.342 53.833 119.907 53.833 L 128.472 53.833 128.731 53.125 C 128.873 52.735,129.102 52.004,129.239 51.500 C 129.727 49.706,130.307 47.740,130.544 47.083 L 130.784 46.417 140.076 46.417 L 149.368 46.417 149.752 47.667 C 149.964 48.354,150.324 49.554,150.553 50.333 C 150.782 51.112,151.107 52.200,151.276 52.750 L 151.583 53.750 160.477 53.793 C 168.906 53.834,169.364 53.821,169.254 53.543 C 169.191 53.382,168.608 51.788,167.959 50.000 C 166.070 44.794,165.912 44.358,165.109 42.167 C 164.689 41.021,163.740 38.433,162.999 36.417 C 162.257 34.400,161.119 31.287,160.468 29.500 C 159.817 27.712,159.117 25.800,158.912 25.250 C 158.707 24.700,158.146 23.162,157.664 21.833 C 157.182 20.504,156.620 18.967,156.415 18.417 C 156.209 17.867,155.686 16.442,155.252 15.250 C 154.818 14.058,154.256 12.521,154.002 11.833 C 153.748 11.146,153.185 9.608,152.752 8.417 C 152.318 7.225,151.741 5.650,151.469 4.917 C 151.197 4.183,150.804 3.096,150.597 2.500 L 150.219 1.417 140.376 1.374 L 130.532 1.331 130.275 2.040 M171.837 1.790 C 171.919 2.043,172.218 2.887,172.502 3.667 C 172.786 4.446,173.155 5.496,173.322 6.000 C 173.489 6.504,175.131 11.128,176.972 16.275 C 178.812 21.422,180.469 26.072,180.653 26.608 C 180.837 27.144,181.258 28.333,181.588 29.250 C 181.919 30.167,182.329 31.329,182.500 31.833 C 183.083 33.547,183.626 35.076,186.169 42.167 C 187.567 46.063,188.850 49.663,189.020 50.167 C 189.190 50.671,189.540 51.683,189.797 52.417 L 190.265 53.750 200.027 53.793 L 209.789 53.836 211.240 49.710 C 212.038 47.440,212.835 45.217,213.012 44.769 C 213.189 44.322,213.333 43.885,213.333 43.798 C 213.333 43.711,213.512 43.177,213.730 42.612 C 213.949 42.046,214.932 39.296,215.915 36.500 C 216.898 33.704,217.840 31.042,218.009 30.583 C 218.178 30.125,219.261 27.050,220.417 23.750 C 221.572 20.450,222.697 17.262,222.916 16.667 C 223.136 16.071,224.260 12.883,225.415 9.583 C 226.570 6.283,227.699 3.113,227.924 2.538 C 228.149 1.964,228.333 1.457,228.333 1.413 C 228.333 1.369,224.482 1.333,219.774 1.333 L 211.215 1.333 210.837 2.625 C 210.629 3.335,210.325 4.329,210.161 4.833 C 209.997 5.337,209.625 6.575,209.334 7.583 C 209.043 8.592,208.630 9.979,208.417 10.667 C 208.026 11.924,207.660 13.132,206.598 16.667 C 206.281 17.721,205.948 18.808,205.858 19.083 C 205.768 19.358,205.420 20.521,205.085 21.667 C 204.750 22.813,204.374 24.050,204.249 24.417 C 204.124 24.783,203.785 25.908,203.495 26.917 C 203.205 27.925,202.829 29.200,202.660 29.750 C 202.491 30.300,202.167 31.350,201.941 32.083 C 201.715 32.817,201.319 34.113,201.062 34.964 C 200.312 37.445,200.364 37.545,197.742 28.583 C 197.527 27.850,197.115 26.462,196.826 25.500 C 196.536 24.537,196.167 23.300,196.005 22.750 C 195.843 22.200,195.437 20.850,195.102 19.750 C 194.255 16.967,193.731 15.226,193.448 14.250 C 193.316 13.792,192.934 12.517,192.600 11.417 C 192.266 10.317,191.813 8.817,191.593 8.083 C 190.455 4.295,190.114 3.171,189.847 2.333 L 189.556 1.417 180.622 1.374 L 171.689 1.330 171.837 1.790 M235.667 27.583 L 235.667 53.833 258.669 53.833 L 281.671 53.833 281.627 47.625 L 281.583 41.417 267.000 41.333 L 252.417 41.250 252.417 37.250 L 252.417 33.250 264.708 33.207 L 277.000 33.165 277.000 27.249 L 277.000 21.333 264.854 21.333 C 254.743 21.333,252.676 21.295,252.517 21.104 C 252.384 20.944,252.340 19.799,252.372 17.312 L 252.417 13.750 266.792 13.707 L 281.167 13.665 281.167 7.499 L 281.167 1.333 258.417 1.333 L 235.667 1.333 235.667 27.583 M291.041 27.542 L 291.083 53.750 314.127 53.792 L 337.171 53.835 337.127 47.626 L 337.083 41.417 322.458 41.374 L 307.833 41.332 307.833 37.249 L 307.833 33.167 320.083 33.167 L 332.333 33.167 332.333 27.251 L 332.333 21.335 320.125 21.293 L 307.917 21.250 307.917 17.500 L 307.917 13.750 322.208 13.707 L 336.500 13.665 336.500 7.499 L 336.500 1.333 313.749 1.333 L 290.999 1.333 291.041 27.542 M346.500 27.583 L 346.500 53.833 354.250 53.833 L 362.000 53.833 362.000 41.073 C 362.000 31.957,362.052 28.346,362.180 28.425 C 362.280 28.487,363.274 29.600,364.389 30.901 C 367.345 34.347,376.624 45.092,377.500 46.084 C 377.912 46.551,379.589 48.486,381.225 50.383 L 384.201 53.833 391.517 53.833 L 398.833 53.833 398.833 27.583 L 398.833 1.333 391.167 1.333 L 383.500 1.333 383.500 14.264 C 383.500 21.917,383.438 27.172,383.349 27.139 C 383.200 27.084,381.124 24.688,376.584 19.333 C 375.301 17.821,374.151 16.478,374.028 16.349 C 373.905 16.219,372.653 14.757,371.246 13.099 C 369.839 11.440,367.439 8.621,365.913 6.833 C 364.387 5.046,362.713 3.079,362.194 2.462 L 361.250 1.341 353.875 1.337 L 346.500 1.333 346.500 27.583 M86.452 13.477 C 90.241 15.186,90.326 20.619,86.594 22.567 L 85.605 23.083 79.511 23.083 L 73.417 23.083 73.372 18.252 C 73.348 15.595,73.367 13.320,73.414 13.198 C 73.589 12.742,85.383 12.995,86.452 13.477 M27.509 13.963 C 31.641 15.612,31.360 23.181,27.121 24.413 C 26.397 24.623,25.440 24.664,22.072 24.628 L 17.917 24.583 17.870 19.417 C 17.844 16.575,17.866 14.076,17.918 13.863 L 18.013 13.475 22.298 13.535 C 26.253 13.590,26.655 13.623,27.509 13.963 M140.751 17.292 C 140.997 18.094,141.374 19.350,141.588 20.083 C 141.803 20.817,142.178 22.092,142.421 22.917 C 142.986 24.826,143.591 26.886,144.088 28.583 C 144.814 31.066,145.360 32.913,145.603 33.715 C 145.957 34.883,146.208 34.833,139.990 34.833 C 133.644 34.833,134.136 34.952,134.574 33.531 C 134.707 33.102,135.049 31.962,135.335 31.000 C 136.214 28.043,136.687 26.460,137.002 25.417 C 137.169 24.867,137.543 23.592,137.833 22.583 C 139.330 17.393,139.850 15.833,140.083 15.833 C 140.215 15.833,140.483 16.419,140.751 17.292 " stroke="none" fill="#fbfbfb" fill-rule="evenodd"></path><path id="path2" d="M1.109 1.125 C 1.039 1.238,11.663 1.237,26.083 1.122 C 29.108 1.098,24.744 1.061,16.385 1.039 C 8.026 1.018,1.152 1.056,1.109 1.125 M56.442 1.125 C 56.372 1.238,68.163 1.237,83.917 1.123 C 87.217 1.099,82.402 1.061,73.218 1.040 C 64.034 1.018,56.485 1.056,56.442 1.125 M130.442 1.125 C 130.400 1.194,134.851 1.250,140.333 1.250 C 145.816 1.250,150.267 1.194,150.224 1.125 C 150.123 0.962,130.543 0.962,130.442 1.125 M171.558 1.257 C 171.503 1.399,171.506 1.561,171.563 1.618 C 171.620 1.675,171.667 1.597,171.667 1.444 C 171.667 1.078,189.258 1.010,189.667 1.375 C 189.866 1.552,189.868 1.540,189.680 1.292 C 189.361 0.870,171.719 0.837,171.558 1.257 M211.110 1.124 C 211.067 1.193,214.919 1.230,219.670 1.205 C 227.807 1.163,228.313 1.178,228.394 1.455 C 228.463 1.689,228.474 1.681,228.447 1.417 C 228.411 1.070,211.322 0.781,211.110 1.124 M235.611 1.111 C 235.457 1.265,235.471 54.000,235.625 54.000 C 235.694 54.000,235.731 42.113,235.707 27.584 L 235.665 1.168 258.457 1.125 L 281.250 1.082 258.486 1.041 C 245.966 1.018,235.672 1.050,235.611 1.111 M299.167 1.123 C 321.000 1.237,336.628 1.238,336.558 1.125 C 336.515 1.056,326.229 1.018,313.698 1.040 C 301.168 1.062,294.629 1.100,299.167 1.123 M346.442 1.125 C 346.372 1.239,352.090 1.236,358.667 1.120 C 360.087 1.095,357.936 1.058,353.885 1.037 C 349.834 1.017,346.485 1.056,346.442 1.125 M383.442 1.125 C 383.400 1.194,386.876 1.250,391.167 1.250 C 395.457 1.250,398.933 1.194,398.891 1.125 C 398.848 1.056,395.373 1.000,391.167 1.000 C 386.961 1.000,383.485 1.056,383.442 1.125 M32.542 1.282 C 32.702 1.323,32.965 1.323,33.125 1.282 C 33.285 1.240,33.154 1.205,32.833 1.205 C 32.512 1.205,32.381 1.240,32.542 1.282 M90.958 1.284 C 91.165 1.324,91.502 1.324,91.708 1.284 C 91.915 1.245,91.746 1.212,91.333 1.212 C 90.921 1.212,90.752 1.245,90.958 1.284 M281.242 7.500 C 281.242 10.938,281.264 12.344,281.291 10.625 C 281.319 8.906,281.319 6.094,281.291 4.375 C 281.264 2.656,281.242 4.063,281.242 7.500 M290.915 27.500 C 290.915 41.938,290.934 47.844,290.958 40.625 C 290.982 33.406,290.982 21.594,290.958 14.375 C 290.934 7.156,290.915 13.063,290.915 27.500 M37.347 2.397 C 37.517 2.552,39.500 3.496,39.500 3.421 C 39.500 3.328,37.575 2.333,37.394 2.333 C 37.330 2.333,37.309 2.362,37.347 2.397 M97.500 2.917 C 97.729 3.048,97.992 3.155,98.083 3.155 C 98.175 3.155,98.063 3.048,97.833 2.917 C 97.604 2.786,97.342 2.678,97.250 2.678 C 97.158 2.678,97.271 2.786,97.500 2.917 M41.500 4.885 C 41.500 4.914,41.744 5.158,42.042 5.427 L 42.583 5.917 42.094 5.375 C 41.638 4.870,41.500 4.757,41.500 4.885 M366.333 7.219 C 366.333 7.248,366.577 7.491,366.875 7.760 L 367.417 8.250 366.927 7.708 C 366.471 7.203,366.333 7.090,366.333 7.219 M105.012 10.250 C 105.012 10.342,105.119 10.604,105.250 10.833 C 105.381 11.063,105.488 11.175,105.488 11.083 C 105.488 10.992,105.381 10.729,105.250 10.500 C 105.119 10.271,105.012 10.158,105.012 10.250 M371.167 12.885 C 371.167 12.914,371.410 13.158,371.708 13.427 L 372.250 13.917 371.760 13.375 C 371.304 12.870,371.167 12.757,371.167 12.885 M73.409 13.377 C 73.364 13.493,73.349 15.649,73.375 18.169 L 73.422 22.750 73.461 18.044 L 73.500 13.338 79.375 13.292 L 85.250 13.246 79.370 13.206 C 74.755 13.175,73.472 13.212,73.409 13.377 M19.958 13.791 C 21.081 13.820,22.919 13.820,24.042 13.791 C 25.165 13.762,24.246 13.739,22.000 13.739 C 19.754 13.739,18.835 13.762,19.958 13.791 M322.250 13.833 L 307.917 13.919 322.198 13.960 C 331.584 13.986,336.516 13.943,336.583 13.833 C 336.640 13.742,336.663 13.685,336.635 13.707 C 336.607 13.729,330.133 13.786,322.250 13.833 M252.575 14.046 C 252.530 14.163,252.513 15.794,252.538 17.671 L 252.583 21.083 264.792 21.126 L 277.000 21.169 277.000 27.167 L 277.000 33.165 264.792 33.207 L 252.583 33.250 252.583 37.250 L 252.583 41.250 267.250 41.251 L 281.917 41.253 267.292 41.209 L 252.667 41.165 252.667 37.250 L 252.667 33.335 264.875 33.293 L 277.083 33.250 277.083 27.167 L 277.083 21.083 264.875 21.041 L 252.667 20.998 252.667 17.500 L 252.667 14.002 266.958 13.958 L 281.250 13.915 266.953 13.874 C 255.479 13.841,252.640 13.875,252.575 14.046 M87.750 14.667 C 88.108 15.033,88.438 15.333,88.484 15.333 C 88.530 15.333,88.275 15.033,87.917 14.667 C 87.559 14.300,87.228 14.000,87.182 14.000 C 87.137 14.000,87.392 14.300,87.750 14.667 M47.372 16.167 C 47.372 16.487,47.406 16.619,47.448 16.458 C 47.490 16.298,47.490 16.035,47.448 15.875 C 47.406 15.715,47.372 15.846,47.372 16.167 M106.553 17.167 C 106.553 17.762,106.584 18.006,106.621 17.708 C 106.658 17.410,106.658 16.923,106.621 16.625 C 106.584 16.327,106.553 16.571,106.553 17.167 M47.561 19.083 C 47.561 20.000,47.589 20.354,47.623 19.869 C 47.657 19.385,47.656 18.635,47.622 18.203 C 47.588 17.770,47.560 18.167,47.561 19.083 M89.205 18.000 C 89.205 18.321,89.240 18.452,89.282 18.292 C 89.323 18.131,89.323 17.869,89.282 17.708 C 89.240 17.548,89.205 17.679,89.205 18.000 M30.224 19.083 C 30.224 19.817,30.254 20.096,30.289 19.704 C 30.324 19.312,30.324 18.712,30.288 18.371 C 30.252 18.029,30.223 18.350,30.224 19.083 M87.740 21.542 L 87.250 22.083 87.792 21.594 C 88.090 21.325,88.333 21.081,88.333 21.052 C 88.333 20.923,88.196 21.037,87.740 21.542 M320.208 21.124 L 332.500 21.169 332.500 27.167 L 332.500 33.165 320.250 33.209 L 308.000 33.253 320.292 33.252 L 332.583 33.250 332.583 27.167 L 332.583 21.083 320.250 21.082 L 307.917 21.080 320.208 21.124 M47.372 21.833 C 47.372 22.154,47.406 22.285,47.448 22.125 C 47.490 21.965,47.490 21.702,47.448 21.542 C 47.406 21.381,47.372 21.512,47.372 21.833 M76.292 22.958 C 77.873 22.985,80.460 22.985,82.042 22.958 C 83.623 22.931,82.329 22.908,79.167 22.908 C 76.004 22.908,74.710 22.931,76.292 22.958 M25.458 24.451 C 25.665 24.491,26.002 24.491,26.208 24.451 C 26.415 24.411,26.246 24.379,25.833 24.379 C 25.421 24.379,25.252 24.411,25.458 24.451 M362.000 28.552 C 362.000 28.581,362.244 28.825,362.542 29.094 L 363.083 29.583 362.594 29.042 C 362.138 28.537,362.000 28.423,362.000 28.552 M363.333 30.052 C 363.333 30.081,363.577 30.325,363.875 30.594 L 364.417 31.083 363.927 30.542 C 363.471 30.037,363.333 29.923,363.333 30.052 M98.167 31.000 C 97.662 31.266,97.309 31.488,97.381 31.492 C 97.558 31.503,99.167 30.682,99.167 30.581 C 99.167 30.469,99.190 30.459,98.167 31.000 M366.333 33.552 C 366.333 33.581,366.577 33.825,366.875 34.094 L 367.417 34.583 366.927 34.042 C 366.471 33.537,366.333 33.423,366.333 33.552 M40.060 34.174 C 39.964 34.269,39.330 34.642,38.651 35.003 C 37.226 35.759,37.210 35.902,38.630 35.185 C 39.503 34.745,40.546 34.019,40.325 34.006 C 40.275 34.002,40.155 34.078,40.060 34.174 M137.198 34.625 C 138.727 34.652,141.277 34.652,142.864 34.625 C 144.451 34.597,143.200 34.575,140.083 34.575 C 136.967 34.575,135.668 34.597,137.198 34.625 M73.412 34.875 C 73.279 35.232,73.243 53.973,73.375 53.891 C 73.444 53.848,73.500 49.540,73.500 44.317 L 73.500 34.819 76.651 34.868 C 78.384 34.895,79.767 34.860,79.725 34.792 C 79.582 34.562,73.499 34.642,73.412 34.875 M31.121 36.954 C 31.417 36.990,31.942 36.991,32.288 36.955 C 32.634 36.919,32.392 36.889,31.750 36.888 C 31.108 36.887,30.825 36.917,31.121 36.954 M81.417 38.500 C 81.559 38.775,81.713 39.000,81.759 39.000 C 81.804 39.000,81.726 38.775,81.583 38.500 C 81.441 38.225,81.287 38.000,81.241 38.000 C 81.196 38.000,81.274 38.225,81.417 38.500 M322.540 41.291 L 337.163 41.335 337.209 47.626 L 337.256 53.917 337.253 47.583 L 337.250 41.250 322.583 41.249 L 307.917 41.247 322.540 41.291 M373.833 42.219 C 373.833 42.248,374.077 42.491,374.375 42.760 L 374.917 43.250 374.427 42.708 C 373.971 42.203,373.833 42.090,373.833 42.219 M374.833 43.385 C 374.833 43.414,375.077 43.658,375.375 43.927 L 375.917 44.417 375.427 43.875 C 374.971 43.370,374.833 43.257,374.833 43.385 M130.776 46.625 C 130.705 46.739,137.486 46.737,146.083 46.621 C 147.917 46.596,145.240 46.559,140.135 46.538 C 135.030 46.517,130.818 46.556,130.776 46.625 M378.000 47.052 C 378.000 47.081,378.244 47.325,378.542 47.594 L 379.083 48.083 378.594 47.542 C 378.138 47.037,378.000 46.923,378.000 47.052 M379.167 48.385 C 379.167 48.414,379.410 48.658,379.708 48.927 L 380.250 49.417 379.760 48.875 C 379.304 48.370,379.167 48.257,379.167 48.385 " stroke="none" fill="#747474" fill-rule="evenodd"></path><path id="path3" d="M56.416 27.583 L 56.417 53.917 64.792 53.919 L 73.167 53.921 64.834 53.876 L 56.501 53.830 56.458 27.540 L 56.415 1.250 56.416 27.583 M383.333 14.117 C 383.287 21.193,383.307 26.927,383.376 26.857 C 383.445 26.788,383.483 20.998,383.459 13.991 L 383.417 1.250 383.333 14.117 M307.904 17.417 C 307.904 19.342,307.928 20.106,307.958 19.116 C 307.987 18.126,307.987 16.551,307.958 15.616 C 307.928 14.681,307.904 15.492,307.904 17.417 M19.884 24.624 C 20.874 24.654,22.449 24.654,23.384 24.624 C 24.319 24.595,23.508 24.570,21.583 24.571 C 19.658 24.571,18.894 24.595,19.884 24.624 M307.905 37.250 C 307.905 39.358,307.929 40.198,307.958 39.116 C 307.987 38.033,307.987 36.308,307.958 35.282 C 307.928 34.256,307.905 35.142,307.905 37.250 M21.303 36.958 C 23.073 36.985,25.923 36.985,27.636 36.958 C 29.349 36.931,27.900 36.909,24.417 36.909 C 20.933 36.909,19.532 36.931,21.303 36.958 M200.083 53.833 L 190.250 53.921 200.032 53.960 C 206.416 53.986,209.849 53.942,209.917 53.833 C 209.973 53.742,209.996 53.685,209.968 53.706 C 209.940 53.728,205.492 53.785,200.083 53.833 M5.292 53.958 C 7.606 53.984,11.394 53.984,13.708 53.958 C 16.023 53.932,14.129 53.911,9.500 53.911 C 4.871 53.911,2.977 53.932,5.292 53.958 M93.792 53.958 C 96.381 53.984,100.619 53.984,103.208 53.958 C 105.798 53.932,103.679 53.911,98.500 53.911 C 93.321 53.911,91.202 53.932,93.792 53.958 M115.637 53.958 C 118.049 53.984,121.949 53.984,124.303 53.958 C 126.657 53.932,124.683 53.911,119.917 53.911 C 115.150 53.911,113.224 53.932,115.637 53.958 M156.042 53.958 C 158.494 53.984,162.506 53.984,164.958 53.958 C 167.410 53.932,165.404 53.911,160.500 53.911 C 155.596 53.911,153.590 53.932,156.042 53.958 M247.305 53.958 C 253.660 53.983,264.010 53.982,270.305 53.958 C 276.600 53.934,271.400 53.914,258.750 53.914 C 246.100 53.914,240.950 53.934,247.305 53.958 M302.625 53.958 C 308.973 53.982,319.360 53.982,325.708 53.958 C 332.056 53.934,326.862 53.914,314.167 53.914 C 301.471 53.914,296.277 53.934,302.625 53.958 M350.386 53.958 C 352.570 53.985,356.095 53.985,358.220 53.958 C 360.345 53.932,358.558 53.910,354.250 53.910 C 349.942 53.910,348.203 53.932,350.386 53.958 M387.792 53.958 C 389.831 53.985,393.169 53.985,395.208 53.958 C 397.248 53.932,395.579 53.910,391.500 53.910 C 387.421 53.910,385.752 53.932,387.792 53.958 " stroke="none" fill="#848484" fill-rule="evenodd"></path><path id="path4" d="M1.077 1.375 C 1.033 1.490,1.017 13.358,1.041 27.750 L 1.084 53.917 1.126 27.626 L 1.167 1.335 16.375 1.292 L 31.583 1.248 16.370 1.207 C 4.322 1.175,1.140 1.210,1.077 1.375 M64.792 1.292 C 69.398 1.316,76.935 1.316,81.542 1.292 C 86.148 1.267,82.379 1.247,73.167 1.247 C 63.954 1.247,60.185 1.267,64.792 1.292 M133.917 1.288 C 142.945 1.403,150.295 1.405,150.224 1.292 C 150.182 1.223,145.708 1.184,140.282 1.205 C 134.856 1.226,131.992 1.263,133.917 1.288 M174.750 1.287 C 182.886 1.403,189.628 1.405,189.558 1.292 C 189.515 1.223,185.454 1.184,180.532 1.205 C 175.610 1.225,173.008 1.263,174.750 1.287 M215.470 1.292 C 217.883 1.318,221.783 1.318,224.137 1.292 C 226.491 1.265,224.517 1.244,219.750 1.244 C 214.983 1.244,213.057 1.266,215.470 1.292 M246.945 1.292 C 253.194 1.316,263.469 1.316,269.779 1.292 C 276.088 1.267,270.975 1.248,258.417 1.248 C 245.858 1.248,240.696 1.267,246.945 1.292 M313.750 1.291 L 336.500 1.335 336.500 7.501 L 336.500 13.667 322.260 13.667 C 314.428 13.667,307.985 13.723,307.942 13.792 C 307.900 13.860,314.327 13.879,322.224 13.833 L 336.583 13.750 336.583 7.500 L 336.583 1.250 313.792 1.249 L 291.000 1.248 313.750 1.291 M346.410 1.375 C 346.367 1.490,346.351 13.358,346.374 27.750 L 346.418 53.917 346.459 27.627 L 346.500 1.337 353.875 1.292 L 361.250 1.246 353.870 1.207 C 348.089 1.175,346.472 1.212,346.410 1.375 M391.166 1.291 L 398.832 1.337 398.875 27.543 L 398.918 53.750 398.917 27.500 L 398.917 1.250 391.208 1.247 L 383.500 1.245 391.166 1.291 M32.627 1.451 C 32.834 1.491,33.134 1.490,33.294 1.448 C 33.453 1.406,33.283 1.374,32.917 1.375 C 32.550 1.377,32.420 1.411,32.627 1.451 M91.127 1.451 C 91.334 1.491,91.634 1.490,91.794 1.448 C 91.953 1.406,91.783 1.374,91.417 1.375 C 91.050 1.377,90.920 1.411,91.127 1.451 M35.917 2.089 C 36.192 2.215,36.529 2.316,36.667 2.313 C 36.804 2.310,36.654 2.207,36.333 2.083 C 35.572 1.790,35.273 1.795,35.917 2.089 M37.500 2.582 C 37.500 2.696,38.520 3.202,38.597 3.125 C 38.633 3.089,38.401 2.935,38.081 2.783 C 37.762 2.630,37.500 2.540,37.500 2.582 M42.250 5.833 C 42.794 6.383,43.277 6.833,43.323 6.833 C 43.369 6.833,42.961 6.383,42.417 5.833 C 41.872 5.283,41.390 4.833,41.344 4.833 C 41.298 4.833,41.706 5.283,42.250 5.833 M73.442 13.125 C 73.400 13.194,75.026 13.231,77.057 13.208 C 84.066 13.127,84.731 13.072,79.135 13.036 C 76.046 13.016,73.485 13.056,73.442 13.125 M19.958 13.625 C 21.081 13.653,22.919 13.653,24.042 13.625 C 25.165 13.596,24.246 13.572,22.000 13.572 C 19.754 13.572,18.835 13.596,19.958 13.625 M86.833 13.697 C 88.457 15.171,88.742 15.397,88.083 14.690 C 87.717 14.296,87.267 13.894,87.083 13.798 C 86.900 13.701,86.787 13.656,86.833 13.697 M252.444 13.778 C 252.233 13.989,252.317 20.917,252.533 21.133 C 252.686 21.286,255.616 21.324,264.908 21.293 L 277.083 21.253 264.833 21.168 L 252.583 21.083 252.538 17.459 L 252.494 13.835 266.872 13.792 L 281.250 13.748 266.903 13.707 C 259.012 13.685,252.506 13.717,252.444 13.778 M17.869 19.115 C 17.849 22.066,17.890 24.515,17.958 24.558 C 18.027 24.600,18.064 23.049,18.041 21.109 C 17.960 14.410,17.905 13.770,17.869 19.115 M106.372 15.500 C 106.372 15.821,106.406 15.952,106.448 15.792 C 106.490 15.631,106.490 15.369,106.448 15.208 C 106.406 15.048,106.372 15.179,106.372 15.500 M47.375 17.750 C 47.377 18.117,47.411 18.247,47.451 18.040 C 47.491 17.832,47.490 17.532,47.448 17.373 C 47.406 17.214,47.374 17.383,47.375 17.750 M106.379 19.000 C 106.379 19.412,106.411 19.581,106.451 19.375 C 106.491 19.169,106.491 18.831,106.451 18.625 C 106.411 18.419,106.379 18.587,106.379 19.000 M47.375 20.250 C 47.377 20.617,47.411 20.747,47.451 20.540 C 47.491 20.332,47.490 20.032,47.448 19.873 C 47.406 19.714,47.374 19.883,47.375 20.250 M307.901 21.037 C 307.936 21.207,310.416 21.259,320.137 21.293 L 332.329 21.335 332.375 27.293 L 332.421 33.250 332.461 27.208 L 332.500 21.167 320.264 21.167 C 312.074 21.167,308.000 21.110,307.943 20.996 C 307.896 20.902,307.878 20.921,307.901 21.037 M87.740 21.708 L 87.250 22.250 87.792 21.760 C 88.090 21.491,88.333 21.248,88.333 21.219 C 88.333 21.090,88.196 21.203,87.740 21.708 M73.477 23.044 C 73.547 23.114,76.112 23.151,79.177 23.127 L 84.750 23.083 79.050 23.000 C 75.915 22.954,73.407 22.974,73.477 23.044 M25.377 24.620 C 25.631 24.658,26.006 24.657,26.211 24.617 C 26.416 24.578,26.208 24.546,25.750 24.548 C 25.292 24.549,25.124 24.581,25.377 24.620 M100.750 29.275 C 100.248 29.723,100.211 29.786,100.598 29.526 C 101.059 29.218,101.638 28.657,101.479 28.673 C 101.445 28.676,101.117 28.947,100.750 29.275 M362.333 28.719 C 362.333 28.748,362.577 28.991,362.875 29.260 L 363.417 29.750 362.927 29.208 C 362.471 28.703,362.333 28.590,362.333 28.719 M41.406 33.042 L 40.917 33.583 41.458 33.094 C 41.963 32.638,42.077 32.500,41.948 32.500 C 41.919 32.500,41.675 32.744,41.406 33.042 M252.444 33.278 C 252.290 33.432,252.304 41.129,252.458 41.224 C 252.527 41.267,252.583 39.471,252.583 37.234 C 252.583 34.997,252.577 33.167,252.569 33.167 C 252.562 33.167,252.506 33.217,252.444 33.278 M39.542 34.353 C 38.974 34.716,38.790 34.961,39.292 34.685 C 39.674 34.475,40.273 34.011,40.167 34.008 C 40.121 34.007,39.840 34.162,39.542 34.353 M134.356 34.377 L 134.333 34.838 140.039 34.794 C 145.358 34.753,145.747 34.730,145.772 34.455 C 145.791 34.249,145.776 34.236,145.721 34.413 C 145.653 34.633,144.911 34.667,140.083 34.667 L 134.523 34.667 134.451 34.292 C 134.389 33.972,134.375 33.984,134.356 34.377 M73.442 34.625 C 73.400 34.694,74.752 34.728,76.448 34.701 C 78.778 34.664,79.599 34.705,79.808 34.868 C 80.054 35.060,80.059 35.052,79.855 34.792 C 79.614 34.484,73.626 34.329,73.442 34.625 M37.833 35.250 C 37.421 35.471,37.158 35.652,37.250 35.652 C 37.342 35.652,37.754 35.471,38.167 35.250 C 38.579 35.029,38.842 34.848,38.750 34.848 C 38.658 34.848,38.246 35.029,37.833 35.250 M368.667 36.052 C 368.667 36.081,368.910 36.325,369.208 36.594 L 369.750 37.083 369.260 36.542 C 368.804 36.037,368.667 35.923,368.667 36.052 M31.208 36.788 C 31.552 36.824,32.115 36.824,32.458 36.788 C 32.802 36.752,32.521 36.723,31.833 36.723 C 31.146 36.723,30.865 36.752,31.208 36.788 M17.910 37.042 C 17.866 37.156,17.849 41.000,17.873 45.583 L 17.917 53.917 18.000 45.375 C 18.046 40.677,18.062 36.833,18.036 36.833 C 18.011 36.833,17.954 36.927,17.910 37.042 M369.667 37.219 C 369.667 37.248,369.910 37.491,370.208 37.760 L 370.750 38.250 370.260 37.708 C 369.804 37.203,369.667 37.090,369.667 37.219 M281.667 47.633 L 281.750 53.917 281.794 47.760 C 281.818 44.374,281.780 41.547,281.710 41.477 C 281.641 41.407,281.621 44.177,281.667 47.633 M375.000 43.385 C 375.000 43.414,375.244 43.658,375.542 43.927 L 376.083 44.417 375.594 43.875 C 375.138 43.370,375.000 43.257,375.000 43.385 M377.167 45.885 C 377.167 45.914,377.410 46.158,377.708 46.427 L 378.250 46.917 377.760 46.375 C 377.304 45.870,377.167 45.757,377.167 45.885 M130.776 46.458 C 130.733 46.527,134.922 46.583,140.083 46.583 C 145.245 46.583,149.433 46.527,149.391 46.458 C 149.348 46.390,145.160 46.333,140.083 46.333 C 135.007 46.333,130.818 46.390,130.776 46.458 " stroke="none" fill="#a4a4a4" fill-rule="evenodd"></path></g></svg>